<mxfile host="app.diagrams.net" modified="2023-09-29T10:23:17.839Z" agent="Mozilla/5.0 (Macintosh; Intel Mac OS X 10_15_7) AppleWebKit/537.36 (KHTML, like Gecko) Chrome/116.0.0.0 Safari/537.36" etag="jTd1bi0ATrhagWSFC4h0" version="21.8.0" type="google" pages="2">
  <diagram name="Main resources and overview" id="LF-q-auXPr-UVFW1YLAf">
    <mxGraphModel dx="1092" dy="1959" grid="1" gridSize="10" guides="1" tooltips="1" connect="1" arrows="1" fold="1" page="1" pageScale="1" pageWidth="827" pageHeight="1169" math="0" shadow="0">
      <root>
        <mxCell id="0" />
        <mxCell id="1" parent="0" />
        <mxCell id="FoZ4xrfnojmpwjGYDju7-1" value="Animals API" style="text;html=1;strokeColor=none;fillColor=none;align=center;verticalAlign=middle;whiteSpace=wrap;rounded=0;fontStyle=5" vertex="1" parent="1">
          <mxGeometry x="300" y="50" width="190" height="30" as="geometry" />
        </mxCell>
        <mxCell id="FoZ4xrfnojmpwjGYDju7-2" value="Resources" style="text;html=1;strokeColor=none;fillColor=none;align=center;verticalAlign=middle;whiteSpace=wrap;rounded=0;fontStyle=5" vertex="1" parent="1">
          <mxGeometry x="30" y="50" width="190" height="30" as="geometry" />
        </mxCell>
        <mxCell id="AULg8cVnwUli6qEm_wom-1" style="edgeStyle=orthogonalEdgeStyle;rounded=0;orthogonalLoop=1;jettySize=auto;html=1;" edge="1" parent="1" source="NOnEa8H7SadbHopuPd-u-1" target="NOnEa8H7SadbHopuPd-u-2">
          <mxGeometry relative="1" as="geometry" />
        </mxCell>
        <mxCell id="NOnEa8H7SadbHopuPd-u-1" value="Install express&lt;br&gt;Install nodemon&lt;br&gt;Install uuidv4" style="rounded=0;whiteSpace=wrap;html=1;" vertex="1" parent="1">
          <mxGeometry x="335" y="90" width="120" height="50" as="geometry" />
        </mxCell>
        <mxCell id="AULg8cVnwUli6qEm_wom-3" style="edgeStyle=orthogonalEdgeStyle;rounded=0;orthogonalLoop=1;jettySize=auto;html=1;" edge="1" parent="1" source="FoZ4xrfnojmpwjGYDju7-4" target="NOnEa8H7SadbHopuPd-u-3">
          <mxGeometry relative="1" as="geometry" />
        </mxCell>
        <mxCell id="RQqiAmgiru1GTpHeYbH2-7" value="" style="edgeStyle=orthogonalEdgeStyle;rounded=0;orthogonalLoop=1;jettySize=auto;html=1;" edge="1" parent="1" source="FoZ4xrfnojmpwjGYDju7-4" target="RQqiAmgiru1GTpHeYbH2-6">
          <mxGeometry relative="1" as="geometry" />
        </mxCell>
        <mxCell id="FoZ4xrfnojmpwjGYDju7-4" value="Empty animals.json" style="rounded=0;whiteSpace=wrap;html=1;" vertex="1" parent="1">
          <mxGeometry x="335" y="240" width="120" height="60" as="geometry" />
        </mxCell>
        <mxCell id="AULg8cVnwUli6qEm_wom-2" style="edgeStyle=orthogonalEdgeStyle;rounded=0;orthogonalLoop=1;jettySize=auto;html=1;" edge="1" parent="1" source="NOnEa8H7SadbHopuPd-u-2" target="FoZ4xrfnojmpwjGYDju7-4">
          <mxGeometry relative="1" as="geometry" />
        </mxCell>
        <mxCell id="RQqiAmgiru1GTpHeYbH2-5" value="" style="edgeStyle=orthogonalEdgeStyle;rounded=0;orthogonalLoop=1;jettySize=auto;html=1;" edge="1" parent="1" source="NOnEa8H7SadbHopuPd-u-2" target="RQqiAmgiru1GTpHeYbH2-4">
          <mxGeometry relative="1" as="geometry" />
        </mxCell>
        <mxCell id="NOnEa8H7SadbHopuPd-u-2" value="create a .gitignore file" style="rounded=0;whiteSpace=wrap;html=1;" vertex="1" parent="1">
          <mxGeometry x="335" y="160" width="120" height="60" as="geometry" />
        </mxCell>
        <mxCell id="FoZ4xrfnojmpwjGYDju7-5" value="Animal objects properties list:&lt;br&gt;Name:&lt;br&gt;Fact:&lt;br&gt;Habitat:&lt;br&gt;&lt;div style=&quot;&quot;&gt;&lt;span style=&quot;background-color: initial;&quot;&gt;Image link(wiki) (stretch):&lt;/span&gt;&lt;/div&gt;" style="rounded=0;whiteSpace=wrap;html=1;align=left;" vertex="1" parent="1">
          <mxGeometry x="40" y="80" width="190" height="110" as="geometry" />
        </mxCell>
        <mxCell id="AULg8cVnwUli6qEm_wom-4" style="edgeStyle=orthogonalEdgeStyle;rounded=0;orthogonalLoop=1;jettySize=auto;html=1;" edge="1" parent="1" source="NOnEa8H7SadbHopuPd-u-3" target="4u0Usgzk8m38tA_I_tJz-3">
          <mxGeometry relative="1" as="geometry" />
        </mxCell>
        <mxCell id="RQqiAmgiru1GTpHeYbH2-3" value="" style="edgeStyle=orthogonalEdgeStyle;rounded=0;orthogonalLoop=1;jettySize=auto;html=1;" edge="1" parent="1" source="NOnEa8H7SadbHopuPd-u-3" target="4u0Usgzk8m38tA_I_tJz-3">
          <mxGeometry relative="1" as="geometry" />
        </mxCell>
        <mxCell id="RQqiAmgiru1GTpHeYbH2-9" value="" style="edgeStyle=orthogonalEdgeStyle;rounded=0;orthogonalLoop=1;jettySize=auto;html=1;" edge="1" parent="1" source="NOnEa8H7SadbHopuPd-u-3" target="RQqiAmgiru1GTpHeYbH2-8">
          <mxGeometry relative="1" as="geometry" />
        </mxCell>
        <mxCell id="NOnEa8H7SadbHopuPd-u-3" value="Add JS file for CRUD functionality&lt;br&gt;(animals.js)" style="rounded=0;whiteSpace=wrap;html=1;" vertex="1" parent="1">
          <mxGeometry x="335" y="320" width="120" height="60" as="geometry" />
        </mxCell>
        <mxCell id="RQqiAmgiru1GTpHeYbH2-2" value="" style="edgeStyle=orthogonalEdgeStyle;rounded=0;orthogonalLoop=1;jettySize=auto;html=1;" edge="1" parent="1" source="4u0Usgzk8m38tA_I_tJz-2" target="RQqiAmgiru1GTpHeYbH2-1">
          <mxGeometry relative="1" as="geometry" />
        </mxCell>
        <mxCell id="4u0Usgzk8m38tA_I_tJz-2" value="Add express.json -&amp;gt; for body access&lt;br&gt;Add listener" style="rounded=0;whiteSpace=wrap;html=1;" vertex="1" parent="1">
          <mxGeometry x="500" y="410" width="125" height="60" as="geometry" />
        </mxCell>
        <mxCell id="FoZ4xrfnojmpwjGYDju7-7" value="&lt;font style=&quot;font-size: 72px;&quot;&gt;MVP 1&lt;/font&gt;" style="text;html=1;strokeColor=none;fillColor=none;align=center;verticalAlign=middle;whiteSpace=wrap;rounded=0;fontStyle=4" vertex="1" parent="1">
          <mxGeometry x="120" y="-70" width="300" height="100" as="geometry" />
        </mxCell>
        <mxCell id="NOnEa8H7SadbHopuPd-u-4" value="" style="edgeStyle=orthogonalEdgeStyle;rounded=0;orthogonalLoop=1;jettySize=auto;html=1;" edge="1" parent="1" source="4u0Usgzk8m38tA_I_tJz-3" target="4u0Usgzk8m38tA_I_tJz-2">
          <mxGeometry relative="1" as="geometry" />
        </mxCell>
        <mxCell id="4u0Usgzk8m38tA_I_tJz-3" value="Create app.js file for HTTP requests" style="rounded=0;whiteSpace=wrap;html=1;" vertex="1" parent="1">
          <mxGeometry x="335" y="410" width="120" height="60" as="geometry" />
        </mxCell>
        <mxCell id="FoZ4xrfnojmpwjGYDju7-8" style="edgeStyle=orthogonalEdgeStyle;rounded=0;orthogonalLoop=1;jettySize=auto;html=1;entryX=0.579;entryY=1;entryDx=0;entryDy=0;entryPerimeter=0;" edge="1" parent="1" source="FoZ4xrfnojmpwjGYDju7-4" target="FoZ4xrfnojmpwjGYDju7-5">
          <mxGeometry relative="1" as="geometry" />
        </mxCell>
        <mxCell id="RQqiAmgiru1GTpHeYbH2-1" value="Import functions from animals.js" style="whiteSpace=wrap;html=1;rounded=0;" vertex="1" parent="1">
          <mxGeometry x="650" y="410" width="120" height="60" as="geometry" />
        </mxCell>
        <mxCell id="RQqiAmgiru1GTpHeYbH2-4" value="node_modules" style="whiteSpace=wrap;html=1;rounded=0;" vertex="1" parent="1">
          <mxGeometry x="535" y="160" width="120" height="60" as="geometry" />
        </mxCell>
        <mxCell id="RQqiAmgiru1GTpHeYbH2-6" value="[]&lt;br&gt;empty array" style="whiteSpace=wrap;html=1;rounded=0;" vertex="1" parent="1">
          <mxGeometry x="535" y="240" width="120" height="60" as="geometry" />
        </mxCell>
        <mxCell id="RQqiAmgiru1GTpHeYbH2-8" value="1. Get all animals&lt;br&gt;2. Get an animal by ID&lt;br&gt;3. Add an animal&lt;br&gt;4. Edit an animal&lt;br&gt;5. Delete an animal&lt;br&gt;" style="whiteSpace=wrap;html=1;rounded=0;" vertex="1" parent="1">
          <mxGeometry x="820" y="280" width="120" height="140" as="geometry" />
        </mxCell>
        <mxCell id="RQqiAmgiru1GTpHeYbH2-10" value="" style="edgeStyle=segmentEdgeStyle;endArrow=classic;html=1;curved=0;rounded=0;endSize=8;startSize=8;" edge="1" parent="1">
          <mxGeometry width="50" height="50" relative="1" as="geometry">
            <mxPoint x="490" y="420" as="sourcePoint" />
            <mxPoint x="540" y="370" as="targetPoint" />
          </mxGeometry>
        </mxCell>
      </root>
    </mxGraphModel>
  </diagram>
  <diagram id="-AeGwrp03sZxgaJYe8yt" name="HTTP table plan">
    <mxGraphModel grid="1" page="1" gridSize="10" guides="1" tooltips="1" connect="1" arrows="1" fold="1" pageScale="1" pageWidth="827" pageHeight="1169" math="0" shadow="0">
      <root>
        <mxCell id="0" />
        <mxCell id="1" parent="0" />
        <mxCell id="Ejk2b4wCk3Pjagr7CB5D-1" value="HTTP requests plan" style="shape=table;startSize=30;container=1;collapsible=0;childLayout=tableLayout;strokeColor=default;fontSize=16;" vertex="1" parent="1">
          <mxGeometry x="-780" y="60" width="740" height="400" as="geometry" />
        </mxCell>
        <mxCell id="Ejk2b4wCk3Pjagr7CB5D-2" value="" style="shape=tableRow;horizontal=0;startSize=0;swimlaneHead=0;swimlaneBody=0;strokeColor=inherit;top=0;left=0;bottom=0;right=0;collapsible=0;dropTarget=0;fillColor=none;points=[[0,0.5],[1,0.5]];portConstraint=eastwest;fontSize=16;" vertex="1" parent="Ejk2b4wCk3Pjagr7CB5D-1">
          <mxGeometry y="30" width="740" height="24" as="geometry" />
        </mxCell>
        <mxCell id="Ejk2b4wCk3Pjagr7CB5D-3" value="HTTP Method" style="shape=partialRectangle;html=1;whiteSpace=wrap;connectable=0;strokeColor=inherit;overflow=hidden;fillColor=none;top=0;left=0;bottom=0;right=0;pointerEvents=1;fontSize=16;fontStyle=1" vertex="1" parent="Ejk2b4wCk3Pjagr7CB5D-2">
          <mxGeometry width="123" height="24" as="geometry">
            <mxRectangle width="123" height="24" as="alternateBounds" />
          </mxGeometry>
        </mxCell>
        <mxCell id="Ejk2b4wCk3Pjagr7CB5D-4" value="Path" style="shape=partialRectangle;html=1;whiteSpace=wrap;connectable=0;strokeColor=inherit;overflow=hidden;fillColor=none;top=0;left=0;bottom=0;right=0;pointerEvents=1;fontSize=16;fontStyle=1" vertex="1" parent="Ejk2b4wCk3Pjagr7CB5D-2">
          <mxGeometry x="123" width="124" height="24" as="geometry">
            <mxRectangle width="124" height="24" as="alternateBounds" />
          </mxGeometry>
        </mxCell>
        <mxCell id="Ejk2b4wCk3Pjagr7CB5D-5" value="Request body (JSON)" style="shape=partialRectangle;html=1;whiteSpace=wrap;connectable=0;strokeColor=inherit;overflow=hidden;fillColor=none;top=0;left=0;bottom=0;right=0;pointerEvents=1;fontSize=16;fontStyle=1" vertex="1" parent="Ejk2b4wCk3Pjagr7CB5D-2">
          <mxGeometry x="247" width="124" height="24" as="geometry">
            <mxRectangle width="124" height="24" as="alternateBounds" />
          </mxGeometry>
        </mxCell>
        <mxCell id="Ejk2b4wCk3Pjagr7CB5D-6" value="Response body (JSON)" style="shape=partialRectangle;html=1;whiteSpace=wrap;connectable=0;strokeColor=inherit;overflow=hidden;fillColor=none;top=0;left=0;bottom=0;right=0;pointerEvents=1;fontSize=16;fontStyle=1" vertex="1" parent="Ejk2b4wCk3Pjagr7CB5D-2">
          <mxGeometry x="371" width="122" height="24" as="geometry">
            <mxRectangle width="122" height="24" as="alternateBounds" />
          </mxGeometry>
        </mxCell>
        <mxCell id="Ejk2b4wCk3Pjagr7CB5D-7" value="Status Code" style="shape=partialRectangle;html=1;whiteSpace=wrap;connectable=0;strokeColor=inherit;overflow=hidden;fillColor=none;top=0;left=0;bottom=0;right=0;pointerEvents=1;fontSize=16;fontStyle=1" vertex="1" parent="Ejk2b4wCk3Pjagr7CB5D-2">
          <mxGeometry x="493" width="124" height="24" as="geometry">
            <mxRectangle width="124" height="24" as="alternateBounds" />
          </mxGeometry>
        </mxCell>
        <mxCell id="Ejk2b4wCk3Pjagr7CB5D-8" value="Description" style="shape=partialRectangle;html=1;whiteSpace=wrap;connectable=0;strokeColor=inherit;overflow=hidden;fillColor=none;top=0;left=0;bottom=0;right=0;pointerEvents=1;fontSize=16;fontStyle=1" vertex="1" parent="Ejk2b4wCk3Pjagr7CB5D-2">
          <mxGeometry x="617" width="123" height="24" as="geometry">
            <mxRectangle width="123" height="24" as="alternateBounds" />
          </mxGeometry>
        </mxCell>
        <mxCell id="Ejk2b4wCk3Pjagr7CB5D-9" value="" style="shape=tableRow;horizontal=0;startSize=0;swimlaneHead=0;swimlaneBody=0;strokeColor=inherit;top=0;left=0;bottom=0;right=0;collapsible=0;dropTarget=0;fillColor=none;points=[[0,0.5],[1,0.5]];portConstraint=eastwest;fontSize=16;" vertex="1" parent="Ejk2b4wCk3Pjagr7CB5D-1">
          <mxGeometry y="54" width="740" height="69" as="geometry" />
        </mxCell>
        <mxCell id="Ejk2b4wCk3Pjagr7CB5D-10" value="GET" style="shape=partialRectangle;html=1;whiteSpace=wrap;connectable=0;strokeColor=inherit;overflow=hidden;fillColor=none;top=0;left=0;bottom=0;right=0;pointerEvents=1;fontSize=16;fontStyle=1" vertex="1" parent="Ejk2b4wCk3Pjagr7CB5D-9">
          <mxGeometry width="123" height="69" as="geometry">
            <mxRectangle width="123" height="69" as="alternateBounds" />
          </mxGeometry>
        </mxCell>
        <mxCell id="Ejk2b4wCk3Pjagr7CB5D-11" value="/animals" style="shape=partialRectangle;html=1;whiteSpace=wrap;connectable=0;strokeColor=inherit;overflow=hidden;fillColor=none;top=0;left=0;bottom=0;right=0;pointerEvents=1;fontSize=16;" vertex="1" parent="Ejk2b4wCk3Pjagr7CB5D-9">
          <mxGeometry x="123" width="124" height="69" as="geometry">
            <mxRectangle width="124" height="69" as="alternateBounds" />
          </mxGeometry>
        </mxCell>
        <mxCell id="Ejk2b4wCk3Pjagr7CB5D-12" value="N/A" style="shape=partialRectangle;html=1;whiteSpace=wrap;connectable=0;strokeColor=inherit;overflow=hidden;fillColor=none;top=0;left=0;bottom=0;right=0;pointerEvents=1;fontSize=16;" vertex="1" parent="Ejk2b4wCk3Pjagr7CB5D-9">
          <mxGeometry x="247" width="124" height="69" as="geometry">
            <mxRectangle width="124" height="69" as="alternateBounds" />
          </mxGeometry>
        </mxCell>
        <mxCell id="Ejk2b4wCk3Pjagr7CB5D-13" value="List of all animals" style="shape=partialRectangle;html=1;whiteSpace=wrap;connectable=0;strokeColor=inherit;overflow=hidden;fillColor=none;top=0;left=0;bottom=0;right=0;pointerEvents=1;fontSize=16;" vertex="1" parent="Ejk2b4wCk3Pjagr7CB5D-9">
          <mxGeometry x="371" width="122" height="69" as="geometry">
            <mxRectangle width="122" height="69" as="alternateBounds" />
          </mxGeometry>
        </mxCell>
        <mxCell id="Ejk2b4wCk3Pjagr7CB5D-14" value="200" style="shape=partialRectangle;html=1;whiteSpace=wrap;connectable=0;strokeColor=inherit;overflow=hidden;fillColor=none;top=0;left=0;bottom=0;right=0;pointerEvents=1;fontSize=16;" vertex="1" parent="Ejk2b4wCk3Pjagr7CB5D-9">
          <mxGeometry x="493" width="124" height="69" as="geometry">
            <mxRectangle width="124" height="69" as="alternateBounds" />
          </mxGeometry>
        </mxCell>
        <mxCell id="Ejk2b4wCk3Pjagr7CB5D-15" value="Retrieve all animals" style="shape=partialRectangle;html=1;whiteSpace=wrap;connectable=0;strokeColor=inherit;overflow=hidden;fillColor=none;top=0;left=0;bottom=0;right=0;pointerEvents=1;fontSize=16;" vertex="1" parent="Ejk2b4wCk3Pjagr7CB5D-9">
          <mxGeometry x="617" width="123" height="69" as="geometry">
            <mxRectangle width="123" height="69" as="alternateBounds" />
          </mxGeometry>
        </mxCell>
        <mxCell id="Ejk2b4wCk3Pjagr7CB5D-16" value="" style="shape=tableRow;horizontal=0;startSize=0;swimlaneHead=0;swimlaneBody=0;strokeColor=inherit;top=0;left=0;bottom=0;right=0;collapsible=0;dropTarget=0;fillColor=none;points=[[0,0.5],[1,0.5]];portConstraint=eastwest;fontSize=16;" vertex="1" parent="Ejk2b4wCk3Pjagr7CB5D-1">
          <mxGeometry y="123" width="740" height="69" as="geometry" />
        </mxCell>
        <mxCell id="Ejk2b4wCk3Pjagr7CB5D-17" value="GET" style="shape=partialRectangle;html=1;whiteSpace=wrap;connectable=0;strokeColor=inherit;overflow=hidden;fillColor=none;top=0;left=0;bottom=0;right=0;pointerEvents=1;fontSize=16;fontStyle=1" vertex="1" parent="Ejk2b4wCk3Pjagr7CB5D-16">
          <mxGeometry width="123" height="69" as="geometry">
            <mxRectangle width="123" height="69" as="alternateBounds" />
          </mxGeometry>
        </mxCell>
        <mxCell id="Ejk2b4wCk3Pjagr7CB5D-18" value="/animals/:id" style="shape=partialRectangle;html=1;whiteSpace=wrap;connectable=0;strokeColor=inherit;overflow=hidden;fillColor=none;top=0;left=0;bottom=0;right=0;pointerEvents=1;fontSize=16;" vertex="1" parent="Ejk2b4wCk3Pjagr7CB5D-16">
          <mxGeometry x="123" width="124" height="69" as="geometry">
            <mxRectangle width="124" height="69" as="alternateBounds" />
          </mxGeometry>
        </mxCell>
        <mxCell id="Ejk2b4wCk3Pjagr7CB5D-19" value="N/A" style="shape=partialRectangle;html=1;whiteSpace=wrap;connectable=0;strokeColor=inherit;overflow=hidden;fillColor=none;top=0;left=0;bottom=0;right=0;pointerEvents=1;fontSize=16;" vertex="1" parent="Ejk2b4wCk3Pjagr7CB5D-16">
          <mxGeometry x="247" width="124" height="69" as="geometry">
            <mxRectangle width="124" height="69" as="alternateBounds" />
          </mxGeometry>
        </mxCell>
        <mxCell id="Ejk2b4wCk3Pjagr7CB5D-20" value="A specific animal record" style="shape=partialRectangle;html=1;whiteSpace=wrap;connectable=0;strokeColor=inherit;overflow=hidden;fillColor=none;top=0;left=0;bottom=0;right=0;pointerEvents=1;fontSize=16;" vertex="1" parent="Ejk2b4wCk3Pjagr7CB5D-16">
          <mxGeometry x="371" width="122" height="69" as="geometry">
            <mxRectangle width="122" height="69" as="alternateBounds" />
          </mxGeometry>
        </mxCell>
        <mxCell id="Ejk2b4wCk3Pjagr7CB5D-21" value="200" style="shape=partialRectangle;html=1;whiteSpace=wrap;connectable=0;strokeColor=inherit;overflow=hidden;fillColor=none;top=0;left=0;bottom=0;right=0;pointerEvents=1;fontSize=16;" vertex="1" parent="Ejk2b4wCk3Pjagr7CB5D-16">
          <mxGeometry x="493" width="124" height="69" as="geometry">
            <mxRectangle width="124" height="69" as="alternateBounds" />
          </mxGeometry>
        </mxCell>
        <mxCell id="Ejk2b4wCk3Pjagr7CB5D-22" value="Retrieve a specific animal by its ID" style="shape=partialRectangle;html=1;whiteSpace=wrap;connectable=0;strokeColor=inherit;overflow=hidden;fillColor=none;top=0;left=0;bottom=0;right=0;pointerEvents=1;fontSize=16;" vertex="1" parent="Ejk2b4wCk3Pjagr7CB5D-16">
          <mxGeometry x="617" width="123" height="69" as="geometry">
            <mxRectangle width="123" height="69" as="alternateBounds" />
          </mxGeometry>
        </mxCell>
        <mxCell id="Ejk2b4wCk3Pjagr7CB5D-23" style="shape=tableRow;horizontal=0;startSize=0;swimlaneHead=0;swimlaneBody=0;strokeColor=inherit;top=0;left=0;bottom=0;right=0;collapsible=0;dropTarget=0;fillColor=none;points=[[0,0.5],[1,0.5]];portConstraint=eastwest;fontSize=16;" vertex="1" parent="Ejk2b4wCk3Pjagr7CB5D-1">
          <mxGeometry y="192" width="740" height="70" as="geometry" />
        </mxCell>
        <mxCell id="Ejk2b4wCk3Pjagr7CB5D-24" value="POST" style="shape=partialRectangle;html=1;whiteSpace=wrap;connectable=0;strokeColor=inherit;overflow=hidden;fillColor=none;top=0;left=0;bottom=0;right=0;pointerEvents=1;fontSize=16;fontStyle=1" vertex="1" parent="Ejk2b4wCk3Pjagr7CB5D-23">
          <mxGeometry width="123" height="70" as="geometry">
            <mxRectangle width="123" height="70" as="alternateBounds" />
          </mxGeometry>
        </mxCell>
        <mxCell id="Ejk2b4wCk3Pjagr7CB5D-25" value="/animals" style="shape=partialRectangle;html=1;whiteSpace=wrap;connectable=0;strokeColor=inherit;overflow=hidden;fillColor=none;top=0;left=0;bottom=0;right=0;pointerEvents=1;fontSize=16;" vertex="1" parent="Ejk2b4wCk3Pjagr7CB5D-23">
          <mxGeometry x="123" width="124" height="70" as="geometry">
            <mxRectangle width="124" height="70" as="alternateBounds" />
          </mxGeometry>
        </mxCell>
        <mxCell id="Ejk2b4wCk3Pjagr7CB5D-26" value="New animal object" style="shape=partialRectangle;html=1;whiteSpace=wrap;connectable=0;strokeColor=inherit;overflow=hidden;fillColor=none;top=0;left=0;bottom=0;right=0;pointerEvents=1;fontSize=16;" vertex="1" parent="Ejk2b4wCk3Pjagr7CB5D-23">
          <mxGeometry x="247" width="124" height="70" as="geometry">
            <mxRectangle width="124" height="70" as="alternateBounds" />
          </mxGeometry>
        </mxCell>
        <mxCell id="Ejk2b4wCk3Pjagr7CB5D-27" value="The newly created animal" style="shape=partialRectangle;html=1;whiteSpace=wrap;connectable=0;strokeColor=inherit;overflow=hidden;fillColor=none;top=0;left=0;bottom=0;right=0;pointerEvents=1;fontSize=16;" vertex="1" parent="Ejk2b4wCk3Pjagr7CB5D-23">
          <mxGeometry x="371" width="122" height="70" as="geometry">
            <mxRectangle width="122" height="70" as="alternateBounds" />
          </mxGeometry>
        </mxCell>
        <mxCell id="Ejk2b4wCk3Pjagr7CB5D-28" value="201" style="shape=partialRectangle;html=1;whiteSpace=wrap;connectable=0;strokeColor=inherit;overflow=hidden;fillColor=none;top=0;left=0;bottom=0;right=0;pointerEvents=1;fontSize=16;" vertex="1" parent="Ejk2b4wCk3Pjagr7CB5D-23">
          <mxGeometry x="493" width="124" height="70" as="geometry">
            <mxRectangle width="124" height="70" as="alternateBounds" />
          </mxGeometry>
        </mxCell>
        <mxCell id="Ejk2b4wCk3Pjagr7CB5D-29" value="Create a new animal" style="shape=partialRectangle;html=1;whiteSpace=wrap;connectable=0;strokeColor=inherit;overflow=hidden;fillColor=none;top=0;left=0;bottom=0;right=0;pointerEvents=1;fontSize=16;" vertex="1" parent="Ejk2b4wCk3Pjagr7CB5D-23">
          <mxGeometry x="617" width="123" height="70" as="geometry">
            <mxRectangle width="123" height="70" as="alternateBounds" />
          </mxGeometry>
        </mxCell>
        <mxCell id="Ejk2b4wCk3Pjagr7CB5D-30" style="shape=tableRow;horizontal=0;startSize=0;swimlaneHead=0;swimlaneBody=0;strokeColor=inherit;top=0;left=0;bottom=0;right=0;collapsible=0;dropTarget=0;fillColor=none;points=[[0,0.5],[1,0.5]];portConstraint=eastwest;fontSize=16;" vertex="1" parent="Ejk2b4wCk3Pjagr7CB5D-1">
          <mxGeometry y="262" width="740" height="68" as="geometry" />
        </mxCell>
        <mxCell id="Ejk2b4wCk3Pjagr7CB5D-31" value="PATCH" style="shape=partialRectangle;html=1;whiteSpace=wrap;connectable=0;strokeColor=inherit;overflow=hidden;fillColor=none;top=0;left=0;bottom=0;right=0;pointerEvents=1;fontSize=16;fontStyle=1" vertex="1" parent="Ejk2b4wCk3Pjagr7CB5D-30">
          <mxGeometry width="123" height="68" as="geometry">
            <mxRectangle width="123" height="68" as="alternateBounds" />
          </mxGeometry>
        </mxCell>
        <mxCell id="Ejk2b4wCk3Pjagr7CB5D-32" value="/animals/:id" style="shape=partialRectangle;html=1;whiteSpace=wrap;connectable=0;strokeColor=inherit;overflow=hidden;fillColor=none;top=0;left=0;bottom=0;right=0;pointerEvents=1;fontSize=16;" vertex="1" parent="Ejk2b4wCk3Pjagr7CB5D-30">
          <mxGeometry x="123" width="124" height="68" as="geometry">
            <mxRectangle width="124" height="68" as="alternateBounds" />
          </mxGeometry>
        </mxCell>
        <mxCell id="Ejk2b4wCk3Pjagr7CB5D-33" value="Edited animal object" style="shape=partialRectangle;html=1;whiteSpace=wrap;connectable=0;strokeColor=inherit;overflow=hidden;fillColor=none;top=0;left=0;bottom=0;right=0;pointerEvents=1;fontSize=16;" vertex="1" parent="Ejk2b4wCk3Pjagr7CB5D-30">
          <mxGeometry x="247" width="124" height="68" as="geometry">
            <mxRectangle width="124" height="68" as="alternateBounds" />
          </mxGeometry>
        </mxCell>
        <mxCell id="Ejk2b4wCk3Pjagr7CB5D-34" value="The updated animal" style="shape=partialRectangle;html=1;whiteSpace=wrap;connectable=0;strokeColor=inherit;overflow=hidden;fillColor=none;top=0;left=0;bottom=0;right=0;pointerEvents=1;fontSize=16;" vertex="1" parent="Ejk2b4wCk3Pjagr7CB5D-30">
          <mxGeometry x="371" width="122" height="68" as="geometry">
            <mxRectangle width="122" height="68" as="alternateBounds" />
          </mxGeometry>
        </mxCell>
        <mxCell id="Ejk2b4wCk3Pjagr7CB5D-35" value="200" style="shape=partialRectangle;html=1;whiteSpace=wrap;connectable=0;strokeColor=inherit;overflow=hidden;fillColor=none;top=0;left=0;bottom=0;right=0;pointerEvents=1;fontSize=16;" vertex="1" parent="Ejk2b4wCk3Pjagr7CB5D-30">
          <mxGeometry x="493" width="124" height="68" as="geometry">
            <mxRectangle width="124" height="68" as="alternateBounds" />
          </mxGeometry>
        </mxCell>
        <mxCell id="Ejk2b4wCk3Pjagr7CB5D-36" value="Update the details of a specific animal" style="shape=partialRectangle;html=1;whiteSpace=wrap;connectable=0;strokeColor=inherit;overflow=hidden;fillColor=none;top=0;left=0;bottom=0;right=0;pointerEvents=1;fontSize=16;" vertex="1" parent="Ejk2b4wCk3Pjagr7CB5D-30">
          <mxGeometry x="617" width="123" height="68" as="geometry">
            <mxRectangle width="123" height="68" as="alternateBounds" />
          </mxGeometry>
        </mxCell>
        <mxCell id="Ejk2b4wCk3Pjagr7CB5D-37" style="shape=tableRow;horizontal=0;startSize=0;swimlaneHead=0;swimlaneBody=0;strokeColor=inherit;top=0;left=0;bottom=0;right=0;collapsible=0;dropTarget=0;fillColor=none;points=[[0,0.5],[1,0.5]];portConstraint=eastwest;fontSize=16;" vertex="1" parent="Ejk2b4wCk3Pjagr7CB5D-1">
          <mxGeometry y="330" width="740" height="70" as="geometry" />
        </mxCell>
        <mxCell id="Ejk2b4wCk3Pjagr7CB5D-38" value="DELETE" style="shape=partialRectangle;html=1;whiteSpace=wrap;connectable=0;strokeColor=inherit;overflow=hidden;fillColor=none;top=0;left=0;bottom=0;right=0;pointerEvents=1;fontSize=16;fontStyle=1" vertex="1" parent="Ejk2b4wCk3Pjagr7CB5D-37">
          <mxGeometry width="123" height="70" as="geometry">
            <mxRectangle width="123" height="70" as="alternateBounds" />
          </mxGeometry>
        </mxCell>
        <mxCell id="Ejk2b4wCk3Pjagr7CB5D-39" value="/animals/:id" style="shape=partialRectangle;html=1;whiteSpace=wrap;connectable=0;strokeColor=inherit;overflow=hidden;fillColor=none;top=0;left=0;bottom=0;right=0;pointerEvents=1;fontSize=16;" vertex="1" parent="Ejk2b4wCk3Pjagr7CB5D-37">
          <mxGeometry x="123" width="124" height="70" as="geometry">
            <mxRectangle width="124" height="70" as="alternateBounds" />
          </mxGeometry>
        </mxCell>
        <mxCell id="Ejk2b4wCk3Pjagr7CB5D-40" value="N/A" style="shape=partialRectangle;html=1;whiteSpace=wrap;connectable=0;strokeColor=inherit;overflow=hidden;fillColor=none;top=0;left=0;bottom=0;right=0;pointerEvents=1;fontSize=16;" vertex="1" parent="Ejk2b4wCk3Pjagr7CB5D-37">
          <mxGeometry x="247" width="124" height="70" as="geometry">
            <mxRectangle width="124" height="70" as="alternateBounds" />
          </mxGeometry>
        </mxCell>
        <mxCell id="Ejk2b4wCk3Pjagr7CB5D-41" value="The deleted record" style="shape=partialRectangle;html=1;whiteSpace=wrap;connectable=0;strokeColor=inherit;overflow=hidden;fillColor=none;top=0;left=0;bottom=0;right=0;pointerEvents=1;fontSize=16;" vertex="1" parent="Ejk2b4wCk3Pjagr7CB5D-37">
          <mxGeometry x="371" width="122" height="70" as="geometry">
            <mxRectangle width="122" height="70" as="alternateBounds" />
          </mxGeometry>
        </mxCell>
        <mxCell id="Ejk2b4wCk3Pjagr7CB5D-42" value="200" style="shape=partialRectangle;html=1;whiteSpace=wrap;connectable=0;strokeColor=inherit;overflow=hidden;fillColor=none;top=0;left=0;bottom=0;right=0;pointerEvents=1;fontSize=16;" vertex="1" parent="Ejk2b4wCk3Pjagr7CB5D-37">
          <mxGeometry x="493" width="124" height="70" as="geometry">
            <mxRectangle width="124" height="70" as="alternateBounds" />
          </mxGeometry>
        </mxCell>
        <mxCell id="Ejk2b4wCk3Pjagr7CB5D-43" value="Remove a specific animal by its ID" style="shape=partialRectangle;html=1;whiteSpace=wrap;connectable=0;strokeColor=inherit;overflow=hidden;fillColor=none;top=0;left=0;bottom=0;right=0;pointerEvents=1;fontSize=16;" vertex="1" parent="Ejk2b4wCk3Pjagr7CB5D-37">
          <mxGeometry x="617" width="123" height="70" as="geometry">
            <mxRectangle width="123" height="70" as="alternateBounds" />
          </mxGeometry>
        </mxCell>
        <mxCell id="FonPEVB5OExBpuRoE8Y3-1" value="" style="shape=image;verticalLabelPosition=bottom;labelBackgroundColor=default;verticalAlign=top;aspect=fixed;imageAspect=0;image=data:image/png,iVBORw0KGgoAAAANSUhEUgAAAlkAAAF7CAYAAADhdJ7nAAABV2lDQ1BJQ0MgUHJvZmlsZQAAKJF1kL1LQmEUxn+WkYXQBw4NfThERFmESkRLmIMEDWIJ1Xa9mgamL1cjgkZpTmhusb+hGqMxagoa+pgbG4ILUXI7Vyu16MDD+b0PD4fzHmhzaUplncB2rmjEIovetfUNb+czXQzhYowBTS+oUDS6LBG+e2uZdzjsfjtlzyqNeK7UzezLsJow+ybn3/7mW6o7mSro0j9E07oyiuDwCUd3i8rmfWGPIUsJH9qcrvOJzYk6n9cyq7Gw8LVwr57RksKPwr5Ek59u4u3sjv61g729O5WLr0jvFw0SJ0CQCH5RkJi8+CcfrOXD5FHsYbBFmgxFvITEUWRJCS+RQ2can7CfGVHAvvPv+zW8vPxvzoT2csNLHMHZAQzcN7zRY+gpweml0gzt56oO01nYDPjr7F6AjifLeh2HzjJUy5b1XrGsakXmP8DF3id9G2LU12nOzgAAAFZlWElmTU0AKgAAAAgAAYdpAAQAAAABAAAAGgAAAAAAA5KGAAcAAAASAAAARKACAAQAAAABAAACWaADAAQAAAABAAABewAAAABBU0NJSQAAAFNjcmVlbnNob3TXjFS+AAAB1mlUWHRYTUw6Y29tLmFkb2JlLnhtcAAAAAAAPHg6eG1wbWV0YSB4bWxuczp4PSJhZG9iZTpuczptZXRhLyIgeDp4bXB0az0iWE1QIENvcmUgNi4wLjAiPgogICA8cmRmOlJERiB4bWxuczpyZGY9Imh0dHA6Ly93d3cudzMub3JnLzE5OTkvMDIvMjItcmRmLXN5bnRheC1ucyMiPgogICAgICA8cmRmOkRlc2NyaXB0aW9uIHJkZjphYm91dD0iIgogICAgICAgICAgICB4bWxuczpleGlmPSJodHRwOi8vbnMuYWRvYmUuY29tL2V4aWYvMS4wLyI+CiAgICAgICAgIDxleGlmOlBpeGVsWURpbWVuc2lvbj4zNzk8L2V4aWY6UGl4ZWxZRGltZW5zaW9uPgogICAgICAgICA8ZXhpZjpQaXhlbFhEaW1lbnNpb24+NjAxPC9leGlmOlBpeGVsWERpbWVuc2lvbj4KICAgICAgICAgPGV4aWY6VXNlckNvbW1lbnQ+U2NyZWVuc2hvdDwvZXhpZjpVc2VyQ29tbWVudD4KICAgICAgPC9yZGY6RGVzY3JpcHRpb24+CiAgIDwvcmRmOlJERj4KPC94OnhtcG1ldGE+CkMoeZsAAEAASURBVHgB7J0FuOO20oZV3C0zbpmZmW6Zube9ZWbeMm2Zb2HLzNz+3TJtmZmZmZm5/ueddnwVHydONjknycnM8yS2JVmWPtFoNBoNlQiFXkRTTjllWGWVVcJxxx3Xdrn65ZdfwpxzzhkGDRoUpp122rZK/yuvvBKmn376sNFGG4UtttgifPDBB2HHHXcMU0wxRXj44Ye75OXDDz8Md911VzjppJPU77HHHusSxh26F4GPPvoo9OvXL1x77bXaZrr3ax67I+AIOAKdh8CwvS3LE0wwQRhttNHaMlt9+/YNzz77bBh22PYrlummmy5cdNFF4bzzzgsLLbRQGGWUUcIKK6wQTj311Nyy+Oyzz8KGG24YJppoonD77bfnhnHH7kVg6KGHDuOOO27o06dP937IY3cEHAFHoEMRGKq3SbI6tBxbKtu//fZbGG644cJQQw1VMV0//fRTGHHEESuGcU9HwBFwBBwBR6BdEXAmq11LztPtCDgCjoAj4Ag4Ai2NwNAtnTpPnCPgCDgCjoAj4Ag4Am2KgDNZbVpwnmxHwBFwBBwBR8ARaG0EnMlq7fLx1DkCjoAj4Ag4Ao5AmyLgTFabFpwn2xFwBBwBR8ARcARaGwFnslq7fDx1joAj4Ag4Ao6AI9CmCDiT1aYF58l2BBwBR8ARcAQcgdZGwJms1i4fT50j4Ag4Ao6AI+AItCkCzmS1acF5sh0BR8ARcAQcAUegtRFwJqu1y8dT5wg4Ao6AI+AIOAJtioAzWW1acJ5sR8ARcAQcAUfAEWhtBJzJau3y8dQ5Ao6AI+AIOAKOQJsi4ExWmxacJ9sRcAQcAUfAEXAEWhsBZ7Jau3w8dY6AI+AIOAKOgCPQpgg4k9WmBefJdgQcAUfAEXAEHIHWRsCZrNYuH0+dI+AIOAKOgCPgCLQpAsPWku6hhhqqluAe1hFwBBwBR8ARcAQcgbZFIEmSutJeE5PFl+r9YF2pbcOXYUwds9YsOC+b5pSL494c3Gv9aqeXU6fnv9b60hvDUwfqJV8urBdBf98RcAQcAUfAEXAEHIEcBJzJygHFnRwBR8ARcAQcAUfAEagXAWey6kXQ33cEHAFHwBFwBBwBRyAHAWeyckBxJ0fAEXAEHAFHwBFwBOpFwJmsehH09x0BR8ARcAQcAUfAEchBwJmsHFDcyRFwBBwBR8ARcAQcgXoRcCarXgT9fUfAEXAEHAFHwBFwBHIQqNlOVk4cqdOrr74aDjvssDDMMMOEs88+W6/muckmm4Q///wz7LXXXuG1114LgwYNMq8u1+GHHz6suOKKhWH4xhFHHBFefvlljWPooYfWb4400khhkUUWCf/+97+7xN1qDq+88ko4/PDD02SBHfmfcMIJw1ZbbRXGH3/81K+am0ceeSTMN998GvSll14KRx55ZBh33HHDMcccU83rHiZCAOzA0Ij6Rd0aZ5xxwsorrxzmmGMO82qr6/fffx8++OCDMP3007dkurErt9FGG5WkjXYx+uijh/HGG0/9JphgghJ/f2gOAh9//HE47bTTwjPPPBM++eSTMNlkk2nbWHvttcOww/5veBmSOjck7/QkCn/88UfYdNNNSz45wggjaH+77rrrtkT7evHFF8NRRx0Vxh577HDccceVpLXoIR5L6omn6Du93l86tKpJwKgY9oEHHsA0qv5+/fXXkrDmfvvttyeHHHJIGs7cs9dqwvCBxRdfvGxcG2ywQUkamvFAvirRfffdVzb9o4wySvLYY49Vej31+/bbbxPp2DQuc7zjjjv0eaKJJjInv0YIFJXNUkstVbZsePe6666LYmuP2+uvvz4RpjuRjrdpCS7CXSZjFXEn/a+//nrT0t8pHy4qp7feekvrEuGyv4033jiFaUjq3JC8k36wQTdF+f/tt9+65DvGQZiaBqVkyKO56667NI20mWopbywZkniq/V4rhyuqA9WkvSnLhcxS7777bv3tsssuko+g3L+5ca0mjL74z5806iBMRZCBL6yxxhrqetFFF4UPP/wwDtbS98KAhltuuSWceuqpQRiswEzuvPPOqyrN77//frj88surCuuBakPA6uKdd94ZrrrqqjDNNNNoBMcff3xtEbVA6Isvvjh89tlnLZCS6pJw7LHHBungA9iffvrp+hLpv+yyy6qLwEN1GwK0Bcpihhlm0L73+eefD9tss41+7/zzzw9vvPGG3g9JnRuSd7oto1VEjJSI8ef//u//wjLLLKNvMLa98MILVbzdfUFmmmmmcOWVV4Zzzz236o/kjSVDEk/VH+ztAavhxCyMYGG3uddqJVnxy8JEKKc9xRRTxM4l95XCmCQLyZfRjz/+mM4wLr30UnNuyrUIs1iS9fvvv6dpPOCAAzQPsRTq5JNPTlZZZRWdPYLX9ttvn5DXL774Ipl77rnTPC+66KIJM49YkiWNLJHlrYT3dt55Z30v/ViH3hSVjUmyDjrooBKETjzxRMUaSaPRV199peUBvsKEJdtuu22Cm5EwzMmOO+6o+FNWwiQka665ZkJZEe67777Te3vmvXfffTd1++uvvzSqou/ceOONycILL6x1hNkr0k1ZktZ3hSlMSDP5pl41S9JbhHssyZIJl6bd/qj/vC/LMeaUiLpAstpqq2mewRYpnbUlcJOlcq375N3qP+UBffPNN4rxCiuskIAd+IPNFltsUVJ+hKUNWfsD47POOiuxcnn88cf13T333DMRNQZtj8RDPaBsoaK0EKaofAnTU1RUTuSNMPQrMpnVZJHX3XffPaH/ErWQpFydE+ZD28Mss8yi5bbgggsmrHJAee9U2z4q1X+NvIa/ovzHkqz7778/jZm6J4ynYrP11lun7jfccIPWEdol49a1116b+lVTN37++eeEvgi8qVubbbaZ9vFE8vnnn2vc9Cmi5qD+MjlMnnrqKXVfa6219Fukkzo+YMAAbRfgT38lajeJLH+WHUuy8RAZYw/psf6GNnTvvffqd/irpk2kgVv0pqgOVJPsylxTJoaiD8ZM1n777acFQCHw411+1pAs6koMVDVhskwWlVVmWOn37rnnHoumKdcizPKYLDpaOh3epUFAMrNL82QNGH8YrY8++ij1w42fSLVSJsvcaEx2f+CBBzYFj1b6KFhUImOy6MyeeOKJRHQUkptvvjntQMEeolOl4zNsjZGhnGywX2655br4W3gGKMrcnkXPReOFOTI3GI+i77z33ntpeNqFlTfpoIMmvRYfVxiOZhDfrkQxkyVSXe2sH3744UQk0ymTKLNzjSLOs+FO/FY29Dc84ycShvR9G/wYnPDP+9EGjYmK+7A4bPY75mfY87z33ntrWovSUlS+lTDrDj/SXoloC5ZfrqILqqogzz33XPpaXp2jLho+MAtxuYkUJbeeVtM+4rqQV//TRFV5U5T/ckwW0YvusWIDAwLBUBlWMFl2b/W4qG4QBxMJey/GjKVz+hDzsytLttllvjgdFs6u+++/f9mxJBsPZRj3aRYH12yezM/KnGdrE+SrlYm01ks1xVD0wZjJMmCz1+5isvhOXHl5ZhD54Ycf6sWorvdJRyWKmSzSHzce3mW2DCGRY2CwGROzc/ytETMz5Dn+nkmycJPlFo1nn3320TA0kE6nGKs8LIzJMlzjKx2GSYiuvvpqxZSyY9BmhkfdI7wsHySiFKz3PCPBYjBlJmnxVctkFX3nzDPP1DhhqmAISQcSXr759ddfaxaZ0fLddtbJWmmllVJJLNJB8sOgih5ozJiCKwMN/ki+8EOP6NBDD03Q+YGBipks2tcvv/ySyJK9vsN7tDckitzzg+ljgDGscXv22Wd18mhhGJCg/v376zswd1BRWorKVyPpwT/yU0SnnHJKlz6L95DoGYOarXPgeYBIusAHhhrMDTuTXGbfqYbJsjKpVP+L8hP7F+W/EpN10kknaZ7o0yFjMMg3dM4556g/7lBR3XjyySdTjBAcgK0o3Ws/g2Q9ZrJ22GEH1Vl8++23KzJZCDjoi2CuDP+ffvopyRtLskwW45G9wwQIPa4tt9xS3egHidcYR8KVaxOa+Rb+K6oD1SS923SyhDlQfSIpyKr1iiRDdZHpmkghB+H6w+DBg3U3WF2R9uDLpB89LEgaX5AOLGy++eb6vM4662ierrnmmjDPPPOE3XbbTd2lMuu16G+xxRbTILajTAbdolfc/x8EREqV6vnhJCL2IOLzMO2002qIWO9COqy0bPBkVw67aY3QF2TXlSzVmVPZqzTgEr+i7yywwAIanh2R7DBlJyR6MpNMMonuzCuJrE0eZAkiiDQ3Ta0wQkEYpDDiiCOq29NPP61XWTIPsgweTjjhhDQsu51lEqLPMiiE6aabTnH59NNPw8wzzxyGGmqoNCw3MtCFPn36hGWXXVZ1RHETxiwIo8Wt6knKMmLo27ev7iqTAVTdZXOKXi2MtbXZZ59d3WUA0mtRWorKN/1IC93IkqHqvdIvidQqxY0dbSLpyk0p9ZFylIlIYBciz0bCuNht4TXbPlqp/ssytKafXX3ClKd9gEjEA5ihYwjRNwiTWVhPbZczde5f//qX1l1h1MKbb74ZhKnSuOwPvbippppKd3qaW96VHZD0RRtuuGHqLQxwel/pRphh9ZblSW1To446athpp53UjTHM9PFwYDwu1yb0hV7+121MFgVHp2W/7sZRZghBuHA1EyHr92r+Ycopp+zuzzY0ftIts3Gmj4EBgsZohOkLFCpRsGSbNA0EYmt7EYlIPh1Q4m3VRe+5/98IiB6OKrRaxyLLIUEkKCk8MqvUezoXBkp+/fr1046Tzkdm6+pPBznccMPpfXaATyOTGwufHXCKvjPjjDMGkYwqM27xofQqy15BllLMqa2uTCbAXSRymm6U39nQYmSYYD7AsIeZ4QfGbLFnogcGEBMZkTKEJZZYIti7FhcmOowwFwExibHyGG200VKzBLS7kUceWcPQZo0IY2Rlbc9FabH0lKtHFk8rXEkrgzmmdmAyV111VcVVpCc6CSGNxpxm0yvSxDDrrLMqcyBSwIB5HwZiKC6D7Hv2bOWRbR+tVP+ZXEFMai29PIMP9RTlcqunjFtFdQNGLUtx3Yz9MDFTDVkfZNjzTrWTdgtH/2YU1/1q24S925uv/+tV2jyXMA/YKKmmkbZqVkk/NrKyhD0WZobQbbfdprtFRMFXn60Bx8wW4Z0ajwASFZh5iN067CSCllxySb3CRMEQwOgwQ2eiwSBkzD4DvHW+ogSr79ifSWZ4hmGAkJbFVPQdUTrV7zPg0cnJ8r1KC4jD0mpMdnaAir/Tiveiw5HO9sGVgRpafvnl9br00ksr7rfeequWBzbmGMjZpYY06uijjw5IF8w+H+9n8TXJiyy9pJIHym6uuebSb2BbDNtBEBIJSwNSsWqoKC1F5VvNN3oqDP2sLGGFm266KVA2X375pX4aiSKMBGSSvmydQ+pFW6APYzJ54IEHanj+jNHMvlNN+6im/qcf6qYb+mMkrbbT+z//+Y8y47KcrV9kxyH9Ays9orIReIahL6obU089tb4PbmYXkokHOGUlWVnmvlxWjQm2ySPhmMBXM5bMP//8Gi2TOJPUcm/ESozTPwhUs6ZoYeQVu829xjpZ0smXhOFdft2lkxXvLiz5cJMfijCLdbJkdlA2taZYje7JHnvsoVgStykvozBqGAszkMhgkiq+o1xqhH4O4VBS7XQqKhvTyULp2Yh6zY4c3pUZYCKDSyIMS6qXQjmxq8fKAqVU6XhLFOMpH/Pnij4FZHobXFG2j8MQR9F3TG+C91A4ZhepxSGzZ/0Geke4yQCoO+XUsYf/+H4lIq+WbhkA0qCyBJG6UzYyICexrgq6WrQP3qWM0J0yhXXyi7Ituln40ybQP4l1snCnXVCu3NO2KG92XVldwN02pXCPvhXpMP2TSm2tKC1F5ZsC0UM35K8SmQ4Z4fiZHqI9my2zbJ1jB6CFYYOUSHTSZ1Oazr5DOoraRzX1v1J+sn6ksRJRXpYPrlZvzI06YzRw4MA0rKzupHlhhyZUVDcYG6zfIf64D0EnKtbJQj/KyDCh/kNZxfc4HtIF5Y0l2XhkwqFtyPJq4xPP7FSEqmkTGrCF/8hPvVRTDEUffPDBB9OKVC2TdeGFF+o7xizkZahSGOv82pXJihnTSkwWSuxxIzMFdsrEBmm20PLMj0Ztiu9xx8+uQ/wZKDqdwKESWd2KmSzCs53ZcLZOEuVnFG7NnU4nNlaKmQEbJAgjSy1pWCs/lKyto+aKUrHFB+MBFX1HrG+XMHTEI0ts+i5/MVNP3DAQPU18txKVY7J4B8Vzw8QGZOo0g4i5U24ouUMMhDCbtAHzp68BayhmsuKdcJSV6LNpGP5gyGB8rXyIi2fbUGADStyPWVuzCU1RWvhOUfkSpqeIPBYROz5j7HmHuk8+jLJ1jrGBAd3KA7MbtnOOMoCy71BPq2kfRfXf0lTNtSj/WSbL8kM/TZ+BeRAj+nbbcUg46hEmVNicAlVTN0RCmE4iiIPvoGAPxUwW5i6MUJInrI0BxmTxLPqhaRlgmoTNBUbZsSQbD+HeeeedkskHecIAq/Up1bQJ+16rXsGuXhqKCCSiqog13BqCVxVnbw/UaMykMakYvpxIWMw5qMJzvD7e2zEe0vw1umxIB6Jz6VD1GIu8dFE+Y4wxhoaxMqJMOUYJYrnEnmOxfTauou+wfCODmR5Dk40HRVuWHdAby/plv9Mdz92BO+lkmVU6+rKbXVjuY0l+rLHGSrPF8pbpsAjDpQr1LCtaeaQB/7mhfIiHY33KtcHsO3nPeWmJwxWVbxy2u+5rKScZoAObaVBiz8Mlr86hiyRMRop/Nh9571TbPirV/+x3yj3Xkv9ycWTdLf3UH1sSzYYpqhuyYz7wq/XINb6DsW7UCWRCqKoL4MTSL31SlqodSygn2o4wbqnubzaudn1uRB1wJqubS78RhdTNSezY6JtZNmxyyGOyOqEwmol7Ft8sk8VuMKe/EWilcmpGmfTG/GeZrGbg2k7fbEQd+N8Jnu2Uc0+rI9DmCDB7ZOYHNUOa1ObwNSz5YO/l0DA4PaIWRwCzLtT3iSeeuMVT2nuS55Ksbi7LRnDC3ZzEjo3ey6Y5Re+4Nwf3Wr/a6eXU6fmvtb70xvCNqANtY8LBtk5TkBhmYxu3GeRsZOFi3JC42Zbs1NkIiNVqrQuixNtwIDAFQT2T870aHne7R4huD9jwy7MPVE/+0AMiXlG8TreeD0l86MRgFPjggw/u8joGIvkG9p/QzzPC7ANb9jHMuNBCC6lZidhoo4UTxWE1EYIZCrbKo0NDfUFXLybMUvAdjBbHJBuQ1B1/SM5SVHMW2GZqB8L8AfnCrIGTI9D2CNSiOS+ZrSV4Q8KyHZVDbuNv5+2aa8jHJBLbXszuokZQnO5GxOdxNA6BorKxLemc0dZosi3PnLPZaVSEuzAT6a4n2n8jid2AfJ8fZ34OKR1++OEaR17dEOOc6Tds9xiHA9t3s1cxlpomgx1e7EbMhuGZ3VvsDjPCfISF4+gmI2FO1N2O82FnK+HY0VoL8U4ziCN5+LbtNGxGGvhms/LfrPz6d7si0Ig60PKSLGZfzGycHAFHwBFoBQTYkSW2gHQnoxkQLUrXySefrEHkTD6VXopto9QKPRJTIyRdJrXHADEGUzFAjOFOLMFzHJMZq7V3uHJMDTvX8ojjhHhfzBukBlTzwrmbI+AINB6BhjJZWLFGFH7ssccGseOklq4RqWNlmaMXsMqMwh0dBUsCRlhkXn311XW7OeERcyMypzND5G5E3GKc0B71KrPAMOecc+q35MBRPVrHArA0gDh/kUUW0bixvi32V8xbrxyRgtXo8cYbT6/dsTRU8kF/aDsEREqg59lRR6hDnAcYE5amqafUbeoidZ+t6UbU5cMOOyxw7AfnHXKPmxH1nbrNkpARJhZw48dW6k4lLNXTJ4At53hiKiAm2j/LaZQN7Zylsb+FEH+Hog/hPd4nHjGgGb8esMgNxmYJHk/OlcMNvzzCYjkMjxyIm2uuIO8ds4LOjlK2z4u0KojNryCGhcN2222n59dhtuH888/X12HK8OP8Q/pNkd4rU8d35UDgLp+AMQOLcmT9qDF75cLV6s4S6Morr6z4g9mRRx6plvUtHvJNv0zdx3o+y7RiX8m89UqZsCxqZYw5gCzJCoOWCeXMkUjsknNyBNoCga4CsvIukqHynuJjp6ATjp/sYtCrPcdG6zDEBsmZamkYxOEWFlEx4nx7tisG/my50NxiI49yRIPGi7VnObagy/u8Y0YMP/744xL/+Pu+XKgw9uo/6kIlsuVCwsV1g2eRJuirImUoqUP48cNQoNiP0TBZI4QWhivLhSw5mZstL8nhr+qGgdPeRuS1EsXLhYSNsWcpTSQ2+rpZyTbs7GrLTBg1xdClucfx4Eb/YktTsXVu+ib8hTnITSbx4x8v3cUB85YL7TuWFqzTY2w2XrLEcrf5x4YsLW77LoYiIVsutHxxFeY8yS4XEhbjoMRdixFiwlei2Nq+pYF3hPnU1zBWmR0DLH9mDT6u+3EchLNyNAOauMVjiPXjldJYjx/fc+psBBpRB2qqRUUfjJksGhiMjjUcLMpCMtPUxm5MjBy0q88ch4ElYCw18x1+dLYcB2LPVtwxkyWzTnU2C+gwVtCll16avkfnhW4HjZ+4SBMWeEWioM80XBguLOXakRmWPo2sjj++59SaCBSVjTFZHD0his5aH60+o5MD2SAiB7yqhWeRKKT1TqQG2gas/nIqAQyCSGfSMDBZ1EUbPGzgtgEUC8q9jYpwj5ksmBOR+qVHdPAupyS8++67KYZYgaevifsfmAoshBv2HM8DzjBO5gaDE/cvn376qVp2N3/ZlJALvfURIsXJ9c9jskhfbOXfvsFVJGMaj51sgVsecVwJfmZV3uoI+Y/rYR6TFVu2NyY17xuxW7l0WBj6dMLAMDI5oO+mfXBMDlhaf4v+oZzzqBbCjenF2jhkxyDBOBIH4wZx8jMmyybRIunVd2wC0qg+WiPN+SvKf84r7tTLEGhEHWjocqEkSElm8WHSSScNffv2VcvIOEojUr+ppppKr1hVhtjNB2EUUI6/CCeccII+88fhoUWEiBritHPIliFtWXHNNddU0Tynhe+0004aBpE7u3pYpoRYAsJ6rnQQKvpWR/9zBP5B4N///rdaEccKOIe6QtRNGejV+jfP1C2Wguadd149HBq3hx56KMQ7utZff321iCyDEt4pYfmZJS1IZue6TI4eDlRuyUo9O+BPzhpUO2IyGGv7JMsiBQnCQGnuabNbbLGF9jXC6KaHEqOeQDhIGNggjLJa2EYnKiaWsdBXgjjYV85o03sZwNODodXhnz/0nti9B5WzCv9P0JILfSHLg8JA6s5B8mUkR8roMih9lBHW+rNkS6VYC48JDNC3gji4nKXFLMVW7uM6mQ1XyzMHREOoenCAM0vhGNlFJQPMRUql/nL8UJh88sl1TLB6PnjwYPUTJlevHKhOHIwbwjyqG3/CnKaHdbM0KcdY6XIufq+99pous3Lv5Ai0KgLdwmTFnQCdC2SWlLOGF+m0IJQ5aXD8ZCakP2xUVCKZvaVm/LNHFNjW6bjjMgvbxEknZmHiE97j8JW+7X6dg0B8TMiYY46pGZelqBK9qtFHHz0FxO4ZIKyO4dmnTx8NQ11lYIwJBgwSCWy60YPBppaBPI6vt9xbu8Z4qx1/A/b8INq0haFvGXnkkdU9bt9WHniYvwb65w/dKkgOTw/ogEEwBnkU69JZv8HGHEy+wFRDcg5d+urwww8fMOmALtKyyy6raUU/6pJLLgkitUnDoQhvE1AcbZJoAcjvTTfdpI/odGWJiSLMGmR6XXEY+lKrc4Zd7D8k9+iQZYkjVowMh7hPtXsmuiL0SE102DjBu3E/HacV/S7GB5hEGyPQu3VyBFoZgW5hsvIyXI5hQukcQrmTGdCtt94a2LGDjZhZZ521xBp23MHlfSN2Q5ESQjJgnQH3RsxU+UHMXpmB0ehRsHRyBGIEbNZN/bP6MfXUUwdZtkkHriuuuEJfoR6ZErUsk+jM3OIy6RS2sRhkYkISizI0JMskemVg7nQyZgPJsyw5KRzgPtdcc+k957zZbjwkHRZm5pln1vIhEBIPk2rRv2RJlq7UiX7AGBQkK3kE02T9hilowxij8C3Llcp4kw6ISSAMIBPMCy64QHcJypJxyliYFIewSH5sFyDPKMNjDxCi3rGZwp6NIVfP6C9eBYic9Za+zeocCuaNoNlmm02jkYOAte9E0sbZkMT/4osvBqSPEP0ueeBnfTCSRcYEVj0gygWGCqbplltuUTf+YIotHnZeMkacddZZKlHmOWag05f8xhFoJQRqWUKVdFcMbjoR6AoYoQDMe6Z3YHoS6KBAsfIka/u2Rs976DHIrCVdo5eGmcgAliq+o4dgJLNQDYdiLCSdb6qnwPfNLhH36DZAKF/yzI/0WFp5lo5Uw9T7R1xOrYlAUdmYThbhUIyOn0U6oZlCzwp/ftQxkRak9Ul2tmkYkYqkYdBXsfBcYztZpmti/uiB9UYif5Uo1skiLPo7hivtEt0qGbC1TAwr05Pimf4HvSORpGg7tjD0H3bPNVY6N2V33OmDKpEsOWo8sqtUg6HAbvFaOnkeMGBAGo3pnlo4+hu7p16RHwg9L3PnGtc5nmVpNI2TfOJ20UUXpW7HH398+n7cD5uuUy39GnFXItkVmH6LDRqmF2Z6sbHuLH7mT7zo1UGknWd+xBHjYjpZAwcOTMPIxCMtU1k6rJS8uv2K8l/3BzyClkegEXWgcivKQFD0QZlhaGOwRsbrxrjIlluNLctk4ciOwbhxMaChRGmEUiTf5keDs8YbM1nEgX+8e4aOhbjsXTpAFImtQyN+FI2tY+RqyqW1dEaWzrwr33ZqTQSKyoY6QBiRUpTUEZswWK7EZEnJAAIjFddfDGDKUk5aD7m3Oo0SvFFsKBPGrLdSEe7GZNEe2S1MeH4MwiIhSWERqUcCTtZ+CcMzOBoRnvcsDnYkWng2uxiJNCYNEzMt5h9fqQ/EZ5M1mLlYqZ34xW6VMoP2HhNGmC5Lh11RHkdJPCYmf1Y/LBx9HZuGYqV1+ln84/TCgFqfG/fDtkOPdFVLxF1EMJiGJ1fRNdPJq70HrpYe4iMfIqky70SkVwkK7ZZPyso2J+ywww4ajjxld+jCFNtO3DSyBt9Uk/8Gf9KjazEEGlEHWursQvSypKGqkrFkroRk1qnu8Xp9SYAKD+gJINqXBp7qcMXBEVMTf79+/QK6H40kROJSbxoZpcfVIARqKRurI+hIZfUKLTnUIXRO8vR+CGObMsYYYwx7peTKRgzbwMHSlW3qKAnUCx5qwZ3s0n5Ziiqnn4ZeJ8uG6ILG+nMxVJQN+nSx7k/sL1LEdPMB6gWmOxSHsXthzjQtLGNhU8sIHTxhmMIkk0xSth8hrfRz1Kdy/ZHFRxjyRX2plB4LX+mKwjjK8WL9XZclK4U1v2rLiTyBLzasyuHPRid0tGQybdGXXIvKmMB8h40DlLPp4ZVE0uCHavPf4M96dC2EQCPqQEsxWS2EbcOS0ohCalhiPKISBFqlbNA3Qg/LdLZkNq8GTxvN8JdkvokPrYI7EGBYFOPJtmNQpCe5xj6zcGFgU6TqqrzOjrhWJvSc2D2NrqvpC1aT3lYqp2rS2+gwnZ7/RuPZjvE1og40VmzTjih6mh2BJiPALjVjsGSJUncY9lYGq8lQd/m8qA6kDJYsrwVZTuwSJs8BpWsIkwmtTiibo/QeH9/T6mn29DkCvQUBl2R1c0k2ghPu5iR2bPTVlI0on+vuJrbI77///l2wEh0gNdMgOiN6XAoB2F3GjjNswGHCgWNHsCUUb9EnHAO8GKAMjz76aOA4J0wUsCMRkwIsXRuxo5GBkp1UolOYLpVgW47BHoaMXXEcKXPSSSfpDshG7SCzNDTyWg3ujfxeUVxIelh+YudgLcQSGO+VWx6uJa7uDEv+WI4z8yPVfqvVyqnadDcqXKfnv1E4tnM8DakDteiZCVi1BPewfytjOQ4tikA19RnL7oTj+I88wo8fCr6QnN+pz+YeX+VsOQ3Dn+gYJeyEjf3tHgVis/xOWDkoOA2HdW8j2zHGe5Do22g4lLBbmSy9rZxGT5sqknY0DF5PO7r4NfONqAO+XCgoOjkCeQhwuLDsINPNGOizVEN2AC+WxbGHhZFJ2fGqr8bLNUigzL6TMFHhqaee0iVDrI+ztCO7p1RBOvtN4kDxOo/MzhIKzmYvKi+cuzkCjoAj4Aj0DALOZPUMzv6VNkQApWgYHpbvyu2aymYLq9QQu2BRYMfAKMep7LHHHmpgkmUbdq+Z0UuYMvxmn312NcjLkSjssOW7J554YjZ6dSd8OcKaOGTMXrlw7u4IOAKOgCPQ/Qg4k9X9GPsX2hQB9KQgjvColuxoE6xSjzTSSKqPJYYX9VxOdLowIcA2eqOs9W626m+00Ubq/dxzz1kwvcJ8QXIAcHrGnjpEfyY14+w+J0fAEXAEHIHmIuBMVnPx96+3MAJ2eDn2jKolMZ4ZRCcqDS46WirBwsaT6Fmpux3xwkOe3TdTeo+ZMcKyBMmB5xDfQCqWJbMlhUkCUSrIevuzI+AIOAKOQA8i4ExWD4Ltn2ofBDB8aLaTjHGpJvVIqlgexGgi2/vFAnb6GlIujGrGhiU5yDhLhIHig9YtjByborecx8d5eVkaa6yxUicO0nVyBBwBR8ARaB4CzmQ1D3v/cgsjgHkFI+xYQQ899JDaUTJ9KixyG3EwrpxnGDjUedlll9Wt/ehHXXLJJWqw0sKhCB+bcrADkM2fOG+66SZ9RKcrS0i5MNMAWTriMGw5tmXFOH1xGL93BBwBR8AR6BkEnMnqGZz9K22GADaTMAwKcSQThD0rlgPZccgROaazhR/SrrHHHjtccMEFuktQDo4OHLMCvfDCC3rlj2NFbBcgz9ttt1146aWXuFW7Wfvss0/6nNXX0kDyJ+fPqT0te46vLBGiNA+1sq2sOM1+7wg4Ao5Ab0XAmazeWrKer7oRmG222TQOzmWDOKsOYqkOw45zzjmnPqMYz3l16FftuOOO6sbuPiRgnOeGIVNoiimmUOaIsw8xswBhamHGGWcMU045pe5gPProo9V9iy22CIsssojeZ/8wgHn66adnnfX5vffe0ysMYk+c75abCHd0BBwBR8ARUAScyfKK4AiUQQDr6xDLhNCss84azjzzTL23P45iufzyy9NDo7F5NWDAAPMOn332md6vssoqajPLDpeGQUMBfoUVVlB/s2uFkj2W288444w0jrwjdrCnxTl7WXrmmWfUyRjCrL8/OwKOgCPgCPQcAn6sTjdj3RCz/N2cxk6NvqhsMPrJMiAMy5133pnChL7WBx98oIrpffr0Sd3jGxTnP/nkk4BeFIwT3ypHhCG+McYYo0Qpvlz4Su7bbrutSsnYmciyZCtSEe6tmOZOTFOnl1On578T63w2z42oA85kZVFt8HMjCqnBSfLo/kGgmrLp379/GDhwoCqvTzrppC2NHWfUjT/++AHr9IMGDWrZtFaDe8smvoMS1unl1On576CqXjarjagDvlxYFl73cASCHsAMDphjaHXiEGmU3uPje1o9zZ4+R8ARcAR6MwIuyerm0m0EJ9zNSezY6Kstm2+++UaVyEceeeSWxgpJFgZKUcpvZaoW91bOQyekrdPLqdPz3wl1vCiPjagDzmQVoVynfyMKqc4k+OtlEPCyKQNMNzs77t0McIOi7/Ry6vT8N6gatXU0jagDvlzY1lXAE+8IOAKOgCPgCDgCrYqAM1mtWjKeLkfAEXAEHAFHwBFoawScyWrr4vPEOwKOgCPgCDgCjkCrIuBMVquWjKfLEXAEHAFHwBFwBNoaAWey2rr4PPGOgCPgCDgCjoAj0KoI1Ly7sFUz4ulyBBwBR8ARcAQcAUegkQgkSVJXdMPW+na9H6z1e+0evhFbQNsdg1ZNv5dNc0rGcW8O7rV+tdPLqdPzX2t96Y3hqQP1ki8X1ougv+8IOAKOgCPgCDgCjkAOAs5k5YDiTo6AI+AIOAKOgCPgCNSLgDNZ9SLo7zsCjoAj4Ag4Ao6AI5CDgDNZOaC4kyPgCDgCjoAj4Ag4AvUi4ExWvQj6+46AI+AIOAKOgCPgCOQg4ExWDiju5Ag4Ao6AI+AIOAKOQL0I1GzCoZoP/vrrr+H2228PDz74oP5GHXXUMMccc4Qtt9wyTDTRRGkUO+ywQ/j222/T5/hmyimnDAcccEDYZJNNwp9//hl7ldyvs846Ybnllitxa8eHa6+9NlxxxRXhsssua8fk98o0H3/88eG5554Lxx13XBhjjDFK8njYYYeF0UYbLWy//fap+3vvvad18dFHHw0jjzyyuuO23377hdlmmy3ssssuaVi/KY8AZmI22mijsNJKK4U111wzN+Bee+0VZpppprD++uvn+seOn3/+efjll1/CxBNPHDtXff/hhx9qGVIXNthgg7DzzjtX/W5vD/jNN9+EW2+9Ndx2221hnHHGCWuvvbb29Zbvr7/+Otx4443hrrvuCtNOO62W6wQTTGDe4bfffgt33nlnuP7667WNUd6zzz576t/qN9ttt134/vvv02QOPfTQYcQRRwyTTDJJ2GyzzRST1LPgpqie0q+ccsop4eSTTw6Mqa1EDzzwQDjnnHPC6aefrmP6brvtFvbYYw9to62UzmakpeGSrD/++COst9562kE+8sgjYa655gpjjjlmGDhwYJhhhhmU6bKMXnDBBdo4v/jii5D9ffbZZxqMimd+d999d7jooosCfub2ww8/WHRtfR00aNAQDwJtnfEWTvy9994bzj///FzmiEHljjvuKEk9z8MOO2zKYOFJHafO7rrrruHLL78sCe8P+QjAZIHZ888/nx9AXG+44YbwzDPPlPU3D/oJJmwvvPCCOdV8haGjHvzrX//yQSNCj76ZyQeTZ4gJ4pxzzqlMFc+MBUsuuWTYcMMNdaIMg7DQQgtp/40/BLbLL798eP/99wP9O5NxJuftQtTTOL0IBOgb9t577zDffPOFTz75pKqsVFNPP/roI20Xv//+e1Vx9mSgd955R9sITPOPP/6o6fzggw96Mgmt+y3p0KomyUVhWOHeMY+aSEUrCSuzwWSaaaZJ5p577tR9lFFGSaSBps9FNwcddJDGLQVZFLRl/KvBTDqjBCxE+tcy6e6EhBSVzSqrrKL1jXAyGy+BZOGFF07wj0lm4cmAAQNSJ8pVJLdax4lDJGOpXyffFOEuA5XiHmM5pHiJJFHjuvnmm4c0ikQGy2SNNdYY4vfb9cWicjrkkEMU2++++06zKIO/1nfr40Xiov6vvPKK+n/88cf6fOihh+rzU089pc/nnXde+j5YL7744vrc7L+i/JM++u2tt966S1KF+dK8nXHGGV388hwaUU/z4u0pN8svdeGtt97SvN9yyy099flu+041daDo4w2VZCEaRmQonWNYeumlJX3/owknnDAcddRRKtmKxav/C9G5d08//bSKnBdYYIHw6aefhsUWW0zFrszAmeWxpPr2228HlkZZ8ph11lmDdHAqajfULrnkkjDPPPOE8cYbT2eL0nGZl4Y75phjdJaJ/4orrhgef/zx1J9yYek2Jpa2Dj/8cHXi3X322UeXSkgTszcIyc1aa62laWIZJZbsFKVXI2iDP2bWSGA33XTTQP0uR8wur7rqKp25W5h77rknMJtjSWu11VYLJ510Uvjrr7/M2691IIB0hGUTCMk29Y+2Qf3ED9zpZ6ifEMsXSFLyiPep/7zLj2UeYQg0KG0Fifz999+v7RLpjdPfCIw++ujhtNNOC8JoqANS3Pnnnz+8++67+owkeKmlltJlQhzGH398XU5Eag89/PDDev3Pf/6jV95HPYSlxUptTQO3+J+Nfyw1G9Ef4G59NOohUF49pS+l7qGqQL2mP+Z9xgbDhlUcluRmnHFGrbebb755KiXcZpttukjgBw8erO8zxkDl0qOeOX+8T5pID3mgbQlDlRPSnWIEGspk2cAtM5H4G+n9qquuGk499dS0UeJBpwWTkf0hPu0UQn8NvTLW8tFno/LTSBA304ExgMNYPfbYY7rsBDO2//77h2233VYhevbZZ3Ugn2WWWcKJJ54Ypp56amUKaBQQS1W77757mGqqqVS35PXXX1eGDMwhnlnvjwk/W67B/4gjjtDvs/w79thjB9bg6UAR86M7h4iYZzpYyq5SeuPvtPr9SCONpEt+DMT9+/cvm1zKBqLMjM4999ww7rjjBsqLgZ8OiQHEqX4EqK/WwdMOaDNM7hh0WK5Bt2eEEUYINoAvs8wyOsnIfhldLdoeDJtIq5RZg1lmwsIghm4YZYg+EYw29cHpbwTQRxQpTgoHbSSeaLz66qvaF6UB5Ia+if4EYolpiimm0HJSB/njGTJGQB9a/I/+mX6bH/0g+ba+wnQKWQqFQSIsE2R0qtBfu/jii3PrKePiTTfdFA488EB9jz6XfpV6zjKsSE9UJQcdKJGoa9288sorg0jYdVItq0YBnVLKxIixVyRNyiBVSo+Fj6+MBbQhdM4YCyh3dPGYkDgVIFAk6or9Jar4scu9gK9iQpYGjd58880E8TCiZfuZ+BhRK3Hm/aTyWBTptbcuFy644IKJSDk0n8KkKB7SgXXJ94svvpi6yQxHw0lHlUjj0nsZwNVfGnJy7LHHJojjpZGpH8u4RiIZUzdbAsHPRPwWZtFFF02kE9BHlnQpo7hcWSoTKU8ikhkNI51LIo0wkU4jsXIql177RrOvRfWZPLIsCInyumIgukD6nF0uFEYzEWmV+vEn+lcaXjpJdZPBXJcWDPM0YAfeFOFezXIhqgcykCl63AujlFAHofvuuy9hmYZ2ULQMIxtOtJxY7jBi2Z40stwF0Tbi9mPhevu1qJzi/LNMxFIf74gUW73o30UCHgdLRCquYSgbkYR06XeEeVZ/kRyWvNeMh2ryX24Mw10mvGmy6S+EWU9iVRfZ2KHLqwTK1tNLL71UcaBvNxIGVt3o0+nrSd+ZZ55p3okIOdSNd0V/S++FsVJ/GwfsuSg9aaT/3KAuwXhgS8M4s0xKPiFfLlQYcv8aurvQdg5KhQksD0Io/sFtQyjFwVmze4SZIQSnLwOU3sd/8Q6U2L233SP6RXHyrLPOKskaM2kjU/BlVmNkCpXMmoQh0l2bSBCZwbA0tfrqqyvOJs1aYYUV7FWdRTErMUlW6lHhhtm8lSnBEPUzs7cDNJHCMbOB+DZULr2TTjqp+rfT37777htY5mDm9vLLL3dJOorY8ayeWSVEOTGjhBCzX3311YElhH79+qmb/9WPwFZbbaXSWqRMzOpXXnlllRKw/FREJoFECmuEcjZUj7K8xdUJVxSy2QmKhIp+YbLJJtNsI0lE6hITkkMZmHWDCH1Gduc40iCo1XbPxXnI3tOXsvJA3tjoIrpI2ubpKyAZeXW5mT6UTWFG9N0sa1favMVGgjySCaw6IzlkJQQyVQTqLaoltIULL7xQ00a/A7HEV016bHe0viR/jB+sTqCWQrr5vn3Xwvg1H4HiXij/vVzXeeedV92ffPLJdNmEpRKWlCCWtdjKHhO7U1hT7lRC/Evjm3766UsgYEemEY2Qjokt60bcs3MHPQe2ToMtDY7BHh0rfjBu1uHxfkx0YvEglO3sEHvHZAy0ucEs9+3b1x5LrkXpLQncJg/klQ6L5dLsFn6WNkRqGJZYYok0N2AP5gziNpAb3ujLYdbBqTEIoK8i0qaAGRSY2+uuu07rP/1QEVmZxMuAww03XMoIFL3f6f6yUqGTPCbQTBZnnnnmFBImU/QTMbHDliVDiEmbbEiIvcNXX32lz5hAaBeafPLJlaEhvSw5oxaDfhRLnywRWt9KX53tw3nH/LnPUtZ0jPkbY4bAIq67qIygRwoxCYbReuONNwKqCzBYY401Vsr41pIelheZxDNWMalHt4y02WTS0uXXrgg0lMlC54eKxfZVEUcGCjymdlpnj9PdnfdImmiYlQipH7MGlEKRhkAMIEhWUD6lAaCHIsuygVk90jGYAbad84N4H6YMokOEITMbQ8MPP3xJZ8jsU5Z0VZlSX8j5o2zjQYxZlCx7akMsSm9OdG3hxKwSXbiDDz5Y00sHBoE/9d70SZAQwnShFBxLtwjLbBAFeLau2wCPu9OQIYDk48gjj1SFa1kiD2zSkCUUxR29LSS7kM3ys19hgIRQ0jZpL2WHMnJ2Qph9t9Of0b9kEo2+EFJs65sMFxgAGF+wR5cHQs/ImAAYDpgwmADGDgidRSYn9GvtSLTps88+W+sdOlf0ozAj1EMYI/QGTfqP4jt5h0lCVwoqV0+zWLBBAwJjvgPR7zO5NuyWXXZZxZL2gb609VuksSg9GmH0d8IJJ+hqCVIsJJAQTJtTMQJ/1/zicFWFoPIw4GCkEZE7AwmNDOU+OHvEqjSguDGy9GLMQPYKM9CbCbEtjBK4VCJmJNAWW2wRRN9Elc6p4DBOzAbBm8YFA0AjoEGhOAkjROeFYi8DPrurGHgoC8iYOxocYmsa0hNPPKHfKdoBirIxUjN2HSJFwzgnu7BQNC5Kr368Tf/IL7sNY2KAMYYLd9t9afjGYWG6GFgYbJwqIwCzk+0TMFwZU58+fXTZm+Ua/OhPbAPOdNNNpwMc4SkjW2KJ30fqQJ+Ewjx9FUs9O+64o7ohhXAqjwA7MqnL6667rmJvZUV/D2GoE3+W2mHI6CNee+01xRp/1BqQjKBAD7MB/mzcQbG6nQkJkegEat4ZAyHqFBs1dtppJzVwzCQX5gjGCKbHJFbl6mkWD3adgx3YwqxhKJflScYBW71g8ky7YMc/YW2SXU16st+DqWOMQHWF5WF2PZIHqJIkLhtPRz7namqVcRSAyviUOqO8jbK0zOxV+Y73sBeEoqqIg9PA0rml/oTJ/uKwvCScuIZBabJdqBJmsmND8yMNLc2OLK2qW9aujzBjqjhpGKE0GSuWi7mFLv7CaGm82KcRJiDFl7KQJav0m3wfxWGLW/RT1C4Qio4QCo4oucdEGQhTl74jjFpiSpWEK0pvHFez7iuVDWkCMxREsyQSPM03/tjCoh5becnEQJ/xyyNTiBepSZ53R7gV4S6ddlqvrE7a1XClvpniuwzcalvJwlAeKP8a0Vbwo47nkUwsEmGc029S13EzQqG7Fnt+9l67X8GsHNE3G955V3uPDQjmT7+T3dAkS4xpv0W5seGHNtUKVCn/lj7STP+YR9anyk5s3YRhG4KIl/fYTCHSrfTVuJ6KYVfFTSzqp/6iV6Vu1q8LY6X9suFLPZWl8jQ8N4TBP7sBgf67KD1xRMIgJowL9i02gwjTrM9sVnDF9xit0vuheBTgqiIkVTUE1zhZIkTHIdYxqupjvSRQJczQe8Iej4nKq8kyswjEwSayjd9B1Ix9KjYN5Pn/9NNPgWMwYgX2+H1mVZRvLWXF0iLK3VmdLYu3UnotTLOulcqm2jSBObNzZnrUc6diBBqBe95X0Of5+eefczcVULdR5q1URugLsaxlUoW8b3SSW6PKiT6CfoAVDOLMEn0Om0GQtiB9aRVqVP7j/BgWbHwZZphhYi+9r6aeZl+iTydelm1rpaL0ZOOjjYFLp7SRRtSBbmeysoXUac+NKKROw6yn8utl01NIl37HcS/Fo1WfOr2cOj3/rVovezJdjagDDdXJ6snM+7ccAUfAEXAEHAFHwBFoZQScyWrl0vG0OQKOgCPgCDgCjkDbIuBMVtsWnSfcEXAEHAFHwBFwBFoZAWeyWrl0PG2OgCPgCDgCjoAj0LYIOJPVtkXnCXcEHAFHwBFwBByBVkbAmaxWLh1PmyPQgQhg9gVDoJx5imkMDC/KoeZqMRujoRzDhTtGdTF2acS5apz5Od5446kxZLEFZ156xdjlIosskvoT3ggjjhjXjInjesT+nDrdcccdYcUVV1QjjJgiwA/CHcPAuG2wwQb6rB7yh4XvetJr8fi1NREoV08xo8PZgdQJTng45JBD9JQNy0WleooBbk4t4HQJ6jF1zozr8n531NN60mt58msFBMRGSdUk0VQd1gP+jYBj1ro1wcumOWVThDvGjAnDT6yJJ8LEJGKPLJEz09SIoxzblcgRUnqPUVI5WicRS9QaHgOPl19+ebLxxhvrsxw3pZmUM9b0GYONGM2Vc9j0WU5BUH/ew8BiTHzPDPJi3JT0YERSmCk1xHj//fenccpZlYlYMNfnd955p+70xulo1n1ROTUrXT313aL859VTDIVSRzDELQfDq6FS4qF+QUX1FGOshKfOi/X7hPrNs5x+oO83up7Wm15NVC/+K6oD1WS9Jq6pER+sJlG9KYxj1rql6WXTnLIpwt0GLwYcIznTTgcbOZfQnBKZ4asbDJAxUYSDsGgtZxmmgxMW3bE4HhMMFwMiFuarHbz4jhHW57EODwMIiXHhRI7ISuRYmaTe9No3mnktKqdmpq0nvl2U/7x6albU49M45Agaracw35XqqUhlNZwxZORRJLjqJkd0aZYbXU/rSW9PlEGzv1FUB6pJ37ASiZMj4Ag4Ai2HAEt/RnbuIOelcWYnhLV96IUXXgg777yznjogEio9/JZz8VZffXU9QJdlu5deeknD6Av//BGG8zaxNl4tsYxj9PDDD+s5nRgshDhlgbPnoJNPPlmvQ5JefdH/2gaBuJ5yth904IEH6pU/TsSAOFdWpKNl6+ngwYM1nB1UzsOoo46qZ9ty6HwtVG09pY1AQ5LeWtLTyWGdyerk0ve8OwItjEB8vBOMEjT77LOHkUYaKU01h6CLNCmMM844elA5TA0Hl6O7wk+W8fQAY15gwIqJY3YgO94ke9Atx15lKT5OBH2wvn37ZoPocz3ptQPccyN2x5ZDIFtPRToaZppppjSd3HM4MwdHV6qnk002mb7D+zFRbzlE2qjR9XRI0+v11Eqk8tUV3yvj476OgCPQAgig6A7BZMnB5PpDUZ3zODnL8+677w5HH310kOWUcOONNwbOWBO9mHD++eerhIlz8XCPSQ71DgwwnOXJmXmxEj1nur3yyitx8C73MHhyWHjqjmRt/vnnD/vuu68q5uMxJOlNI/SbtkNg2mmnDd9//33YZJNN0nqKZEr0BgvrqTFZJqkl8yjCM3EwaVmj62k96W27wmlWgqtZU7Qwkka79WuVCDhmVQLVhGBeNk0AXT5ZhLvpughTlCZQJEOJMEqqUIxi+7PPPpsqmr///vuJMDsaL0rxwhwlKLwLA5Vss802GodItdRfdvslTzzxRGK6KP3791d/lJRJ18CBA1XXyxTns4rvwrylaZLdj+k3UWg++OCD9Zm01Zve9CNNvCkqpyYmrUc+XZT/vHqKgjrvoZt37733JmyOQAmeTRXoCRbV0+WWW07rrSw3J7KUrZssiO+aa67RPDe6ntab3h4piCZ+pKgOVJO0mrimRnywmkT1pjCOWeuWppdNc8qmCHeYJsKIpKkkgc8995wqmuPHD8X16667Lg0j5haUETP/lVZaKWH3FMQOxL322kvfwx8GDAZLJFbq//XXXycMcPbuUkstlaBsbEzWZZddpn7ffPONhuePQVOkauk77ARj56JRPem1OJp5BYtOpqL8l6ungwYN6lIPY0X4SvX0448/TthQYfWQzRpiiiQthu6op/WkN01YL70pqgPVZHsoAklEVVEjTqSu6kO9KJBj1rqF6WXTnLKpF3dhdALLeWOPPXaXDLBkh92fCSaYQJcJswF476OPPgr9+vVLdbHiMDKIwVmEWM8m9s+7J06Um2VAzPMO9aQ3N8Iecqy3nHoomd32mXrzTz1jKZsNEVkqqqcsg1NvWMrOo+6op/WkNy+NvcGt3joABs5L0p5pAABAAElEQVRkdXNNaEQhdXMSOzZ6L5vmFL3j3hzca/1qp5dTp+e/1vrSG8M3og644ntvrBmeJ0fAEXAEHAFHwBFoOgLOZDW9CDwBjoAj4Ag4Ao6AI9AbEXAmqzeWqufJEXAEHAFHwBFwBJqOgDNZTS8CT4Aj4Ag4Ao6AI+AI9EYEnMnqjaXqeXIEHAFHwBFwBByBpiPgTFbTi8AT4Ag4Ao6AI+AIOAK9EQFnsnpjqXqeHAFHwBFwBBwBR6DpCNRsJ6vpKfYEOAKOgCPgCDgCjoAj0AMI1GCvPTc1/zvaO9e7q2O9H+waY+92aYQxs96NUPNy52XTHOwd9+bgXutXO72cOj3/tdaX3hieOlAv+XJhvQj6+46AI+AIOAKOgCPgCOQg4ExWDiju5Ag4Ao6AI+AIOAKOQL0IOJNVL4L+viPgCDgCjoAj4Ag4AjkIOJOVA4o7OQKOgCPgCDgCjoAjUC8CzmTVi6C/7wg4Ao6AI+AIOAKOQA4CzmTlgOJOjoAj4Ag4Ao6AI+AI1IuAM1n1IujvOwKOgCPgCDgCjoAjkINAzXaycuLo4vTrr7+G22+/PTz44IP6G3XUUcMcc8wRttxyyzDRRBOl4XfYYYfw7bffps/xzZRTThkOOOCAsMkmm4Q///wz9iq5X2eddcJyyy1X4taOD9dee2244oorwmWXXdaOyR+iNL/33ntado8++mgYeeSR0zi+/vrrsNNOOwXqx9xzz5262w31gXqx+eabh0UWWcScG349/vjjw3PPPReOO+64MMYYY5TEf9hhh4XRRhstbL/99ql7Xn5w22+//cJss80WdtlllzSs31SHQCvg9+STT4Y555xTE7zXXnuFmWaaKay//vrVZaBMqM8++yzstttuYY899tD4ygRreedvvvkm3HrrreG2224L44wzTlh77bW1r7eE05ZvvPHGcNddd4Vpp502bLTRRmGCCSYw7/Dbb7+FO++8M1x//fXaxtZcc80w++yzp/6tfrPddtuF77//Pk3m0EMPHUYcccQwySSThM0220wxST0Lbj7//PPwyy+/hIknnjg3JP3kKaecEk4++eTAmOrUHgg0XJL1xx9/hPXWWy+stNJK4ZFHHglzzTVXGHPMMcPAgQPDDDPMoEyXQXPBBRdo4/ziiy9C9kcnBFHxzO/uu+8OF110UcDP3H744QeLrq2vgwYNKtu42jpjFRJ/xx13hGGHHbaEwSI4HS/l/Mknn+S+jUFc/F977bVc/0Y53nvvveH888/PZY4YVEh/THn5oY6T1l133TV8+eWXcXC/rwKBZuN38MEH6+TQknrDDTeEZ555xh6H+Prjjz9qvfjggw+GOI5mv0jfzOSDyTPEBBFmFKYKYixYcsklw4YbbqgTZRiEhRZaSPtvDSB/MK3LL798eP/99wP9O5NxJuftQrTtOL1MAOkb9t577zDffPOV7cOy+WM8Q7DwwgsvZL3S548++kjrzO+//566+U0bICADVtUk2SkMK9x7QjipaCVhP/zww2SaaaZJRDKRuo8yyiiJNND0uejmoIMO0rhlEC4K2jL+1WAmnVECFiL9a5l090RCZNaaDBgwoOZPSSej9eCss86q+d34haKyWWWVVfQ7hJOBI341WXjhhRP8Y8rmh3IVya3WceIQyVgcvGPvi3A3YFoBv6233jqRgd+S1LDrW2+9pXXrlltuaVicjY6oqJwOOeQQzcN3332nn6ZdUt+tjxeJi/q/8sor6v/xxx/r86GHHqrPTz31lD6fd9556fvCmCSLL764Pjf7ryj/pI9+mzqSJWG+NG9nnHFG1iv3WSS2Gv7mm2/O9XfH5iBQTR0oSllDJVmIhs8555wgA2dYeumlJX3/owknnDAcddRRKtmKxav/C9G5d08//bSKnBdYYIHw6aefhsUWWyycfvrpOrNhlseS6ttvvx1YGkWUPOusswbp4FTiY6hdcsklYZ555gnjjTeezhal4zIvDXfMMcfoLBP/FVdcMTz++OOpP+XC0lxMLG0dfvjh6sS7++yzT9hggw00TczeICQ3a621lqYJv1iyU5ReZmNXXXWVznSJC0nPxhtvzK1KfMDg/vvv12dmxOSXfPOTjkvde+KPmTUS2E033TRQv8tRNj+Eu+eeewKSCpaWVltttXDSSSeFv/76q1wU7p5BoBb8kARQZy6++GK90k622WYbbTcWLeW35557ajthuWXGGWfU5Rfzz9Zz6iMSZmEGNE7eRyrDco1RuTaA1IH0sNRo9Oyzz6obUpss1Zo2a4PZeHryefTRRw+nnXZaEEZDP4tUev755w/vvvuuPiMJXmqppXSZEIfxxx9flxPBFHr44Yf1+p///EevvI8aAEuLldqaBm7xPxv/RLiQppT6jLv10aiHQIyH9KMQS8hI/KhX9NOoKlCX6Y95nzpl2LCKw3Iz9RgpGOoTtgJE3c+qJwwePFjfZ4yByqVHPXP+eJ80kR7yQJplspAT0p1KECjiwmJ/eTF+7HKP9IowIvbt4pfnwCxABp+EGU32J6LoLq/0VkmWMDOJ6JVpfqWDUgzBcd11102kIidgAVZTTDGFSkOYOeGP1BCS5Yv0+fLLL09kcNBnkyaK3pA+E9eJJ56oEkXeB3OIeGz2qQ7yt+iiiyaiX6GPSBsJjySSOJhtCQOkbsw8kShRjoR55513CtNLpA888ICGF/09/QZplg5Z72WAUr9rrrlGn6Uj0WfpOJL9999f7/lWT0iykFgJQ6rfFH0STQ9/WUlWNj+EofzGHXfcBIkMeSHNnSatBIcsgUM1VAt+SMqJlx/ldOqpp6pURRjkRAYj/Rx1l3b03//+N0F6Qn0jvDAD6p+t58IUazkjnbnwwgsTWeLTNtC/f38NX6kN5Emq+A7fe/HFF5Osf61p6wmJB2mthWTw1vxRbtAss8ySbLvttiVRILmmDKDdd99d+7Q4AO2D77788suxc1Puq8k/eaH/FF0q/VHXkNyBAe8///zzmnZhHPWZfhXpFv09/ki8kAAi5eaZuiXMZ3LppZfqM/HLBDYRHdBEJqXqJoxUIpM17aPxl6XJBOkg9/TR9KnCnGlYysQIybtJZSulx8LHV9FN1fhEDUjTTD/M98hPb6Zq6kBR/mtqRUUfPOKII7Qg6PCM3nzzTa0AiJbtZ+JjCok4834iybEo0mtvZbIWXHDBhA4dMiYLxsjI8k3nbGSNCKbmyiuvVAxpOBCN9thjj1UmigYJvsaQ4S+SMXVbY401eKyayYrL1RosjR1iAFpmmWUSkSQkRekl/AEHHKCMGfdZipksmeVpWkXalgYTRVl16ykmiw+L8rp+U3RyNB1ZJiubH9G/0vAHHnighqcTpr4b5urYoX9F/Qiw1IqfMVkw+0Y2kDDxoE1sscUWylyZv0iUtIxsSceYrLieZ5cLGcSMyarUBrJMFN8sx2QNadosH911raac7NssGTLh4h2RYqsz9V0k4BZEryIt1DDkGcYyO7kT5W71h4FtNlWT/3JjGO5MaI3oL5hwxaouMCww8FB2udCYLPp2o5jJsrp95plnmnc6GeRd60OZbEA2DthzUXrSSP+5QV2CSbctDeNM2yCfvZmqqQNF+W/o7kKpMJKmENgRxPIghPIyS18QCs2IM9k9wk4TiN0kMkDpffwX70CJ3XvbPaJfFCeFYSjJGkt/RqZoKwO2OaUKla+++mqQ2YTu2hRdhiCDgC5Nrb766oozIl5ohRVWSN9lqUQYosAyZbUkHURapryDqJ8lNDulnB017DKC+DZULr2TTjppQIFYGqmGq/T30ksvqTd5NOrOHYX2jex133331aUjYVaDzLKz3l3yI52jhqH+s0sRQsx+9dVXBxnEQ79+/dTN//IRGFL8WF43QvEYYpmOJSmWttj1zNIzmyYeeugh9ZcBX6/8Zet56pFzU6kNCKOR80a+E8tkjU5b/pe6x5WlUTY6vf7669ovTDbZZPqhEUYYQZXf46+ye04GZt3wQp+R3TnOznSonXbP0ZeyPEfe2Kghenba5ukrIBmEVfWBusWmMCP6btQJKm3esl2t9o5dZcKtt6hcUKchU0VAeR7VEpkEBJHAatrodyBhbKtKT7zbm/cYP1DVQC2FdPN9+y7+TuURaCiTNe+88+qX0EOwDg49I9NBoLNjK3tM7E5hTblTiXVxGt/0009fAgE7Mo1ohHRMbB034p6dO+g5sHUabGlwMC/oWPGDcbMOj/djohOjczfKdnbsforJGGhzg1nu27evPZZci9KLTgB6LksssUTJe3kPdFwQW8WNYNZ7msgrHRa7ZXfeeeeSz+flB+zB/LHHHtMfLxjeslSlZh1KIvGHEgSGFL+43Rje6PTxW3nllXUApG9Cd0gkrqpnGH84W89jv+x9pTZgYeN2ZXXZ/OzaHWmzuLv7KisVOsmjTTJZnHnmmdNPMpkCo5jYYTv11FOrExNxWfaMvcNXX32lz5hAaBeafPLJlaEhvSKpDquuuqrqR4l6h+pAWR2gr8724bxj/txnKWs6xvyNMUNgMdJII5lzkCXa1IQGk2AYrTfeeCOce+65ymCNNdZYKeNbS3rY+ckknrGKCS+6ZaTNJkNpAvymCwL/G2W7eNXuMNVUUwUqFttXRRypBR7HwmDkVIoAkiYaZiVC6sesAaVQpCEQjCwKpCif0gDYNizr8mGrrbZSxUiYAcwP8IN4H6YMokOEITNbP8MPP3xJZ0inL0u6qkypL+T80ZhjpV5mUbLsqQ2xmvRST/gVkXXaIh5PN1OYBKLo3Ub7M6sUXYTAtn6IDgwC/zg/SAhhIpFOZKV1zAZRgGfrujEBGon/pQjUgx+TFpOk2uYONi9g7wwJA1J12ggk+jJ6pb4PCVVqA6KLpFHK8koaNZKePOqOtOV9p9FuKLgziR577LFVim19k30HBgD7f/QN2I+CbrrpppQJgOGACYMJYOyAaOdMTujX2pFo02effbauKGAzjH4UZoQVBhgjNoWZ9B/Fd/IOk2T1xKRRRXlH0R0CY74DsSrC5NqwW3bZZRXLI488Ujc6Wb9FGovSoxFGfyeccIKuliDFQgIJIRVzKkbg75pfHK6qEFQeBhyMNGIPhYGERsaOH3Y+IFalAcWNkaUXYway12ZILKrKaIMCIUaGUQKXSsSMBBKdknDfffcFUbLWCg7jxGwQvGlcMAA0AgYXbNgwCNB5YayVAZ9dKxi0oywgY+5ocIitaUhPPPGEfqdoByiDCFIzdh0iRcM4J3bRWJYpSi/LisagaELkT3TIcpeN6aBYUhZdAp2NUb/4ZrOIb7PbMKZsfmznl+Ebh4XpYmBhsHHKR6Ae/OhD2OFMPWHHKjNvJKamvkDbYHmLq00yfvrpp/yEiCuSMZgjyuvnn38uCVepDSBdpq9jxyLt4rrrrisxXBtHNKRpi+Noxj07kqnLouStBkWt/6a/hzDUiT9L7TBk9BEs07IjDmLHLeWDQV+YDcYK0WMKotur/u36h4SIHdDknTEQ2nHHHXUnHkaWYaqZ5MIcwRjB9JjEir7ElgIr5Z9lcbADW5g14mR5knHAVi+YPLOMSXsgrE2yq0lP9tswdYwRqK7Qftj1SB6gSpK4bDwd+VyktBX7C0DxY9l7lLdRIpXZvSox8h4KfiiMijg4fU86odSfMNlfHJaXhBPXMChNtgtVwoydJ/hLQ0uzY8q42d1Dwoyp4qRhhNJkrAjPDkVpSCmG+NsOTezTCFOT+lEWsmSVfpPv224X4mfXlTAI6e5CFBxtV4q9RBnEO/2EUdMdXeZfLr0iNVBlyWz++Cb1BRI9Jk2rdLr6LDPAdPci6cMeFVdZUlL/If0jjkoEZiiIZkkkePp9/LP5kYmB5g+/PDKFbtFxyPPuCLdKuA8pfqb4bjsG+QZ1ViYAKaYoXcdt5EDZlEAYK4u8ei6TmrTdsOuLem6K70VtQAYhrQukhb6ONso97TarGD8kaUsz1k03lcqJvhn/cj9LEpsKLAz9TnZDkywxpmUCRmz4oU21AlXKv6WPNFNv8sj6VHYeU1dsQxDx8h6bkejbjOiz8eM9Meyq96ImYd6J6FWpm/Xrwlhp/TV82XggzHwanhvC4J/dgFBNeuKIqK9x22LDAjseiZvNCr2VyF+9NBQRSERVEZKqGoJrnCwRDjfccDojrOojvSxQJczQexIGKBWVV5N1ZhGIg01kG7+DqBmFWzYN5PkzY0e3yWbO8bvcM6uifGO9lmyY7DNLLSh3l9NlyaaXNDKbZWZEvaiFkK5J51BT+irFX6lsKr0X+9WTnzieTrpvBO5ZvKhnbCZAGoJkGNty2PLJEuXFjJw2UO1yLcrYSLFsGSYbZ6U2wCzfNjoMM8ww2VdLnockbSURNPihUeUEPpQPKxjEmSX6HDBC2oL0pVWoUfmP82NYUFfz6gN9MErntfSN9OnEy7JtrVSUnmx86MyBi0nesv697bkRdaDbmazeBnqt+WlEIdX6TQ9fHQJeNtXh1OhQ3YF7zGSJFLHRSe7I+LqjnNoJyE7PfzuVVXeltRF1oKE6Wd2VUY/XEXAEHIFKCKBYjSSkT58+lYK5nyPgCDgCPYqAS7K6Ge5GcMLdnMSOjd7LpjlF77g3B/dav9rp5dTp+a+1vvTG8I2oAy7J6o01w/PkCDgCjoAj0GsRQHeLczTNTAm6quxkxP4b58hyb7s8ey0IbZIxZ7LapKA8mY6AI+AIOAKOAAhg3ghTJ2w6gjCUjPkGTPZgoxLzOnZSiAbwv6YhMGzTvuwfdgQcAUfAEXAEHIGaEWDnbLzTHztkYhZCj/VBP1FMKNUcp7/QPQi4JKt7cPVYHQFHYAgRwOzLYostptbZMfWB4UVMMmAxG0OWHMOFO0Z1MfhoxLlqnPnJAIQxZLEFZ156xbwD516aP+GNkAJgXDOmXXbZJYhtK3W64447woorrqhGGDFFgB+EO5avcWOZhmejovRaOL+2LwKV6hzLeRhRxkAzde7f//534ESCmHjmiBqrkxgWjalc/eJ4ItqIHKQdxN6bGj/FxA2Gd7Gaz7dPPvnkNKpy8aQB/rkp1/YwDcR5iNRzTq3g/M/YWHglHAiHUV5OzCCftCNb5uSzRW2PdzECTfui3Zux4kp5KkpvNt/d+izccNUkCak6rAf8GwHHrHVrgpdNc8qmCHeMGROGn1gTT4SJScSGVCJnpqkRRzm2K5EjpPQe46BixyqRpRENj4HHyy+/PNl44431WY6b0kzKGWv6jMFGGfgSOYdNn+UUBPXnPQwsxsT3xCq3Ol166aUaHiOS0tmrIUYZ4NI4MYwrFsz1+Z133ilMb/ydVr0vKqdWTXej0lWU/6I6Z8a45bixRBj+hLpHnGZEWpghfaaeYbTVjJcKE6FZqFS/xGSJvnvNNdckcrpBIrbhtD3IsmEi50mWGM2tFE8Wq7y2h/FT6j35kcPu1fgq+aDNQEU4YGCW8LRjseivaeNZjh7T94vaHobNCU9bJw4MWVfKU1F69aNV/vHdeqmmGBrxwXoT3G7vO2atW2JeNs0pmyLcraOnczayAenMM880p0Rmw9r5wgAZE0U4CIvWclRT2pHLUUh66kT6stww6DF4iMFQHTCqYbL4jhFW/bEYDwMIiXFhHexE4TgpSq/F0crXonJq5bQ3Im1F+S+qczAl1C/qIoR1d+KUo270mdMkOIGAUw6MsPqOZXyoUv2KmSzCMvGw93iOTyaoFA9hY8pre2ap3phDwsuxOpoXJhSVcBBJs4Yzhox3RSqtbpwqAlXLZHGqg1GlPBWl1+Ko5lpUB6qJw3WyBEUnR8ARaD0EWPozkg5ebzkvjTM7ISykQy+88ELYeeed9dQBkVDp4beci8dB0Rygy7LdSy+9pGH0hX/+CMO5glgbr5ZY8jCSY3b0nE62eUOcssDZc5At1ZRLrwbyv7ZGQCRQZeucZUyYpvRkAQ6ClqNp9HxYGZx1qQ/bbuutt54F17NnOZGAOlupfnFSSLVUKZ5yccRtzxToWZY0MoV7zsqthMPgwYP1FTm6yl4No446qp7KwEHw1RI4xSeVVMqTHRBfLr2TTjpptZ9tSDhnshoCo0fiCDgCjUYgPt6JQQeCaWKwMuIQdJEmBQ5k5qBymBp2VqHnwU+W8fQAY8LTucfE8SWQHW+SPeiWY6+yFB8ngj5Y3759s0H0uSi9uS+5Y1shUKnOoS8IZY+64dggjmmyusZh0jPNNFOab7vHv1L9Sl+o4mZI4sm2PZHIdUknB06T/ko4TDbZZJpC3o+Jthgfa2V4WJhs28se21YpT7S9Sum1b/TU1ZmsnkLav+MIOAJDjAAKrxBMluhJ6T22gmCkOFNQ9FKC6F8F0dUKW221lZ7DOddcc4Xzzz9fFeSZCd94441BlhL0Xf5Et0M7Y2bIDH503Eac6fbKK6+ooq25Za8weHJYeOqMZE30bwLStNlmm03dy6U3fclv2haBojpHxkyyyf0vv/wSbrrppiAHSiuDIUt6KrEaMGBAeqYjiu9vvPGGTiQq1S9ZSifKqqhSPHLIc2Ec0047rUqPN9lkE1V85wXq/aBBgwrbHu0PQvoMUwahCM9kaP3119fnRre9ovTqR3vyr5o1RQsj6bJbv1aJgGNWJVBNCOZl0wTQ5ZNFuJteiDBFaQJldqr6K+i5oNguUqtU0fz9999PpNPXeNFNEeYoQeEdfRjTfxFmTP1ld2LyxBNPJKa30b9/f/0GCr2ka+DAgarrZYrzWcV3OSA3TdPpp5+efhPl34MPPlifSVtRetNIWvimqJxaOOkNSVpR/ovqnCm+77ffflqnNtpoI60fDzzwgKZPlpT1WXa1an023aZdd91V/SvVr1p0sirFkwUqr+2hoA4WKNffe++9qnRO3tBhRN+sCAcU+mmL5FeW53XjCPGhtA8VtT0U39F9jKlSnorSG8dTdF9UB4rex78mrqkRH6wmUb0pjGPWuqXpZdOcsinCHaaJMOwiium5557TzhY/fiiuX3fddWkQMbegjJj5o0TMTiOIHYhiBVvfw59OHwZLJFbqL1KxdHcX/qI7k6CYa0zWZZddpu9+8803Gp4/Bpj9998/jRNlY3YuGhWl18K16hUcOpmqyX+lOmeMCHWNuFBMpx4ZUX+M2cefcCiBw6BDleqX6ERpnGKWRMPCyJVTfK8Uj74c/ZVreyK16tK2YkX4SjiI/pgq8ZNHw4HdlkZFbU8kf12YrKI8FaXXvl10Jb31kp9dKCh2JzXi7KPuTF8nx+1l05zSrxd3YXQCy3lZfRdyw5IdNnImmGACVUTP5pD3RAoQ+vXrl+pixWFYgpRONcQ6KbF/3j1xogic1RuxsJXSa2Fa8VpvObVinmpJU7X5L1fnWOKWXXDhv//9b0BRnTpHnFkqqpNF9SsbX7nnRsRD22F5nk0eWSqHg4X76aefAm0hVmA3P67d0fYqpTf+drn7autAufdxdyarEjoN8GtEITUgGR5FDgJeNjmg9ICT494DIDfgE51eTvXm35gsMXfQgNLwKJqBQL11gDS7xfdmlJx/0xFwBBwBR6BXI4A0dbTRRuvVefTMFSPgkqxijOoK0QhOuK4E+MtlEfCyKQtNt3o0AneO18FmFUeW5FGRf9475dzYDYU9oJlnnrlckF7p3ohyamdgivIvmyDU9tpuu+0W2MFXL7ETj3p2xBFHaFSiT6g7EjnKplZiV6MY6Q1yooHuoD3ppJNKjrJhR99YY40VsBUnuo21Rt8x4YvqQDVAuCSrGpQ8jCPgCLQUAldffXXJoJFNXJF/NnylZ7aex+ccVgrrfp2DADpGnKMnO/IakmnZKKFmRYjsiy++UPMhGNodEnr99dc1bdjkgmRXoD4TLz8MgZ522mlh/vnnD7IDd0g+4e9UiYDbyaoSKA/mCDgC7YOAnN/WsMTWYhG+YR/1iDoOgVh36+effw4c+NxIwi4XtuGMYMA23XRTPYidg6U5wNqp8Qi4JKvxmHqMjoAjUCcCGAYV+0E6m0eBWLa26w6tOFp2bLFcON544wUGiXvuuSf15qgSOecwfcZv6aWX1rALLbRQwOhjTBiAFHs8+r1ll11WLcWzyxC3t956K8iW87DhhhvGr/i9I6AIcMTLYostpnWL+miSLTnDUt3ZNWeENXLqKoZxs3TCCScEDH7CXMlByOrNUiRLfuwM3HfffQOGNqnvyy+/fHjooYeyUdT03KdPnyAHSuty4tFHH13Tux64egScyaoeKw/pCDgCPYAAlrHFgKGe/ye2qsIGG2ygFqI5T41BygidE8w1iK0qXQJhoLPz0DiT8LXXXtOgWObGT2zrhEMOOUSP18FqPIMghPkF/G+55Zaw3XbbqVV5mCuWHNFZEftFqv9lZ6LpS/7nCPyDADpUnCggRkSV0aeespSIziDMvdiySrESu25BDg8Ps846a+pmNzD6jz32WBhhhBFSXUMxAKrxnHHGGUFsUSkThsTru+++09MFYgbO4qnlypFSLIfLYevpWaC1vO9hq0CgFkNbEl0twT0sU2HHrGXrgZdNc4qmCHcMLBJG9F3SBMqxHOqG1WgIQ48Yb8QoIYSRUN7BUjuEv1nOXnjhhdWQoiiwqx9/GCo1440nnniivovRRKMdd9wxwTo8RFx77rmneXXMtaicejsQRfk3w51rrrlmCgUnDfDeBRdcoG4YzJUDlFN/jNxiOT2P5KicZIYZZlCv9957T+Mxg7z4CSOXyNK1+r/zzjt6OgGW3/PI6rQZ48WwLsZy88hOKigXV947neJWVAeqwcF1sgRFJ0fAEWgdBJjNQzIgpYliiQ+KFYGRLNkhs2yV59xAlIdjkk4w3H///SppYAnRiF1cH3zwgUrG5BiOIEeE6GG35s/SjZMjUA0CLN0ZUQchsYauVw6K5scSIlIjzvATq+/qV8sfkleZYKhBU76BkVOWFDETUS+ZNAwjo06NR8CZrMZj6jE6Ao5AHQgY4zTSSCOlsQw33HC6bGd+eGQtvo866qhdlIX//PNPjWP88ccPM800Uxqf3ePPIMOWdidHYEgQwBSCEfUUgrmHWO6GyZJzCcPQQ/+tnbPyyiurXy1/MFYsf3OwMsuPmCjhxwSBQ8jrITnLUychLFM6NR4B18lqPKYeoyPgCNSBwOSTT65vs+3ciMEEheDZZpvNnFL9KxzQgUGnypgnCwRTxq4qdLkGDBig+lvocKFAjGQBRg5/JGDs6DJC4Rg9LRsszd2vjkAWgeeffz51evTRR/V+6qmn1ivSIdMpZLOFnMOXeyRNGkHmhqNqoHPOOUelYPvss4/qbZnEFh2vegh7Wkh63YxDPShWftclWZXxcV9HwBHoYQRWXXXVIDpROlNHWZ1dUKI3opIsGB8jFIix9cMs/6ijjlLnbbfd1rzTK3GJTkvYaaedVKrAUiHLLygqw4QxCHK+HMuJSAdYRjz22GODHPasZ80hqXjggQd0MBL9rjRev3EEQODII48MKLtTl6g/bJSIzSGInqDuKCTswIEDuRTSGGOMoWFggiabbDKdRFCPcZ9rrrnCfffdp/7TTz99YVwWgHMDMXgKIb1lSRPmTXQOdSevevhf4xGoRnHLwsjX7davVSLgmFUJVBOCedk0AXT5ZDW4yxKGKgETlt8cc8yR4GaEMvoKK6ygyu8WRgYM8y5RfEc5/qCDDtJ4CIvCvJiESES6lYaXZZg0Lvz79++fyC5H9T/mmGPSd03RPn2xF9+AVSdTUf5N8X3ddddN6webKcSkQwlsYn5BldapsyKZKvGLH9hsIZbjUyc2Z5AG2WmbiJQ1WX/99dPv4M5mjHL1kQ0ihPnyyy81PpTzeY5/KMLzTVd4TyHvcgNe9ZIfqyModic1wix/d6avk+P2smlO6deCuwwSqstiM/tsillOQfI04YQTpkrwhMGWEDaHkDIYYWtIBhRVHmapMEvSmao/78a6X4RjuRGdmhFHHDH7Wq99rqWceiMIteQfsyPU1X79+nWBAj9MPLBMzTJ0LYTEaeSRRw6m68WSNvbhJplkki51tJZ4PWx1CNRSB8rF6MuF5ZBxd0fAEWg6ArFScV5iYHwYcIw4742lPYyZwizFBOMUh439uKdDzRsk8WOgc3IEyiHQt2/fLnUHpv7yyy8PgwcPVn1Clg1rpezkAuV0lvec2gcBZ7Lap6w8pY6AI1CAwPXXX696V7I8khp0LHjFvR2BbkEAaSn6fuhosbswuxu2Wz7qkbYcAr5c2M1F0ghxYzcnsWOj97JpTtF3N+7sNOykZb3uKsXuLqfuSnej4m1E/sUAri4zZ5efG5VGj6d7EWhEHXAmq3vLSJcg0PVwaj0EGtGAWi9XrZ8ix731y4gUdno5dXr+26OWdm8qG1EH3E5W95aRx+4IOAKOgCPgCDgCHYqAM1kdWvCebUfAEXAEHAFHwBHoXgScyepefD12R8ARcAQcAUfAEehQBJzJ6tCC92w7Ao6AI+AIOAKOQPci4ExW9+LrsTsCjoAj4Ag4Ao5AhyJQ8+7CDsXJs+0IOAKOgCPgCDgCHYZAvdYBajZGWu8HO6x8On4bdCuXdyO257Zy/lo1bY57q5ZMabo6vZw6Pf+ltaEzn6gD9ZIvF9aLoL/vCDgCjoAj4Ag4Ao5ADgLOZOWA4k6OgCPgCDgCjoAj4AjUi4AzWfUi6O87Ao6AI+AIOAKOgCOQg4AzWTmguJMj4Ag4Ao6AI+AIOAL1IuBMVr0I+vuOgCPgCDgCjoAj4AjkIOBMVg4o7uQIOAKOgCPgCDgCjkC9CNRswqHSB997772w3377lQQZaaSRwgQTTBDWWGONMOOMM5b4ffzxx+H0008PTz75ZPjmm2/CUkstFRZbbLGwyCKLlIT766+/wvnnnx/uvvvu8Oqrr4app546LLDAAmGrrbYKww47bHjjjTfCwQcfXPJO9uHAAw8MU0wxRda5ZZ6vvfbacMUVV4TLLrusZdLU6Qk5/vjjw3PPPReOO+64MMYYY5TAcdhhh4XRRhstbL/99iXu/tBYBKxPmW222cIuu+zS2MiHMLbPPvss7LbbbmGPPfYIM8000xDG0jteo9++9dZbw2233RbGGWecsPbaa4c55pgjzdzXX38dbrzxxnDXXXeFaaedNmy00UY6HqQB/rn56aefwnbbbRd23nnnMOuss2a9W/qZ8Yn833vvveGBBx4Io446qo5jW2+9dRhllFG6Ne2ff/55+OWXX8LEE0/crd/xyOtAQOxeVU3ymYphn3322YQws8wyS7Lccsvpb8EFF1Q33G+//fb0fe6lAupvgw02SKRCJhNNNJGGPeCAA9Jw3Ky11lppvJtttpnGT3zClCW//fZb8tJLL6Xf47v4EbelgSthmkGkpRoCg913372aoB6mQQgUlc0qq6yidWnjjTfu8sWFF144wd+pdgSKcI9jlMmTlgHvfPHFF7FX0+7feustTdMtt9zStDT0xIeLykmYzbSvpY1Y/33DDTdo8n7//fdEGC4NQ/+Gv0x0k08//bQk+cIkpH18PEaUBGrCQ1H+SZIwWMk222yjeSRv3NuYt/jiiyd//vlnt6VcGCwd526++eZu+0anR1xNHSjCqDoO4J9Yij5oTNbVV19d8l2ZjWplYGCCZHajzzTADz/8sCQsjAbfOe2009T9o48+0ud99tmnJNx///tfdb/zzjtL3HngO4suumgX92Y4FGFGmv744w/Fo5U6mGZg1dPfLCobY7IIJ7PxkuQ5k1UCR00PRbhbZLQLBuYtt9xS27pIFs2rqVdnsv6G/5BDDtFy+e6779QBporymnvuufX55JNPVv9XXnlFn2XlQp8PPfTQvyOQ/8ceeyyZYYYZ1J160Up9YDX1dP/999e0n3nmmWmeuLnooovUXVZqStwb+cC4ShqdyWokqqVxVVMHSt/o+tQjOlmIMhdaaKHwzDPPSJpDEAYqfP/99+Gss84KE044obrZ3xFHHBFkJhCEiVKnr776Sq9jjjmmBdErS4UsAY444ogl7u348PTTTyseLIHKLE9FzSyjTjnllGH55ZcP3377bXj77bfDOuuso2JhxOnSwQWR4qXZveSSS8I888wTxhtvPMX6vPPOS/0Id8wxx4Q555xT/VdcccXw+OOPp/5HHXVU2GGHHdJnbliaOfzww9WNd4XJDTIb1TRJB6Lud9xxRxApo6YJP56NitJr4Vr9ytKHDAJh0003DSx9lKMffvhBl49YEqfcNt9888CyEksJlKF0wumrZ599tpaxTCDUTWa7GkYmJ2kYvwnhnnvuCR988EFYf/31w2qrrRZOOukkxTMPG5FyKabXXXddWHnllbWeo3rw0EMPpcGl+1P1hPnnnz9tB7Q96P/+7//CEkssEX788Ud9ZvmKZ9qG0VVXXaXlRDxGF198sX43rhvUBd5lmaw30+ijj659uS2JoboBtu+++65mm+UzVEBYJoTGH398XU4cNGiQPvMnqxYBlZLYLfVsgxv6aZmMhS222KIkteutt17Yc8899cQPPMr1odTxpZdeOu23URkxkklGOOWUU7R+0a/Tr9AvU78YP+l7IZauCQfV2u+ifrPhhhuqKg/LnIzTqOWUI8Kee+65QSY+2u8zppxzzjklwcvlaUjbWEnk7fjQle8q7yL5K+8pPuUkWe+8845y3PPNN5++z/LfuOOOWzYuZjp8C3Eo4lhmRjwjWWDG8Prrr5d9F492k2QJM6NLm6RdOijNK/ldd911VYxuYmHE0czmWVrFn6VTSJjX9Pnyyy9PEN3jL3oC6i96Q/oM7ieeeGIyzTTT6PNTTz2l/sRjs091kD8kgaJfoY8mSeA94mDmdP/992sclKkwy4kMgvpMWRel177R7CsYVSLqG3VJGFLNm+iTpMFjSRZ1FLxYot57770T6i/34PXrr78moo9Ygq8tJ4j+ncb38MMPl5RH+pFeelOEu2Wb+k8/gUTrmmuuUYzKSTqQiBMvP+q/DDoqVaEchHHSKA866KASf5OgvPbaa2nfZUuAMmHQsLQ5I9QOqOexJAs1BL4pA48FS4TxUjckDe1M1ZaT5ZFlQN6h3CDURrbddlvz1uuAAQO0bZgjfTnthyvvlitfC9+T16L8W19djbQqrw8VPTXNM33HGWecoWMA30QKBrGaw3P//v2TSy+9NJXoIkFEashYYP70IbX2u/RNtC/aAePqwIED07HBpJNZvGkPfJOlUNoYV54fffRRDVopT8YfVNPGst9t1jN5q5dqiqHogwYiA6/MPrWx0dB4j58N+rgx0JQjUQLX8BQYJFx7IpIWbZwWF2JpOt48ajcmCyxklq5ZsYYLY2Rkg8OLL75oTokoYytGMDVXXnllCV40wGOPPTaBiTK9CWPIiEAkYxqewR+qlsmKl3ZhQFjupYOEGMiWWWYZHWCK0qsvtMBfUX02JoukyoYOxcz0TWImyzqWeMnAGDM6xwsvvFDfpRNkqdzqMB0vJBJZZQgMS3XsxX9FuJP1L7/8UnECGwi9HRgmq7PqGP0Zk8WAZCQzZ43jhRdeSBg0+K4xAISxOCkHsKdP2XXXXfX1vfbaKy0n2qS9T1nGTBaB6e9i9QR0RWkL7U7VlJPlEXzAgXfefvttdaa8smoeItHRMPRRMbUjk8Vkk/zauBbnJ3tvTFbch9KHwOSgV2y00koraT3kGaysPpo/TI5NfrPLhbX2u2BOe3jiiScs+oSJH3mKx5rUU274PuO36ZrZErAxmpXyVEsbi7/ZzPta2kC5dDZ0d6EkSAlRu4nP2X2D+F4KM0w//fTqz/Lh+++//0/orhdpsOoonZ5eRx555CASGN3lJYycLiOceuqpuoTAbjx2tLQrgdODDz6oS6dxHlj6M7JlVpZHjT755BO9RdwrHXwAK5lVBJGeKC6rr756mH322cPgwYM13AorrGCv6u4XGQSCLZWkHhVupDMoWdqVmZMuodkBmizbsssI4ttQufROOumk6t9Of/vuu68uaQhDGl5++eWSpEuHpM8sJ8lMXO+lQ9GrDPBhp5120nvE6H369NF70eVQsTsPLJUg+jcsNUCH/8nEQRGgnrPLE6LfYElVBqrQr18/dcv+iUQ2dbL+4+eff9YdyHjQlsA6JtoB2K+55ppBmGhd2pEBVHcsU0733Xef7iTlnWWXXVaXa+L3WRrmJ8xYGGaYYbQOdNIuYZa9hTkIMmgH+oXJJptM4RlhhBECS14xsRNOmC/dFR67t+O97eijPlZDcR8qA3KQ1YCAG0uLRvTnLJGzJCgMVpCJstZ/0WvT/loY/LK7L4vGiWy/O9VUUwWRoGmdp13xDVP5ECbYktTlKsx0GHrovzWNWAKGGPOL8sRSfLVtrMtH29ihW5gs1tltoM3DhnVfWVYJ6Ftlda0IT0OlIVIJKHwRRYajjz5aGyZrwPxkF0eYeeaZAzoR7cxkMfDS0IwBNbxiXGhw4BFvF+d+ySWXVD0Htk7DfDLIM0igR8IPnTfr8Hg/Jtbf0aEwQi8oJtNNMTcbsOwZfaO+ffvaY8m1KL0lgdvkgbyKFCPMNddcus08Tjb5hWBq0S8xkhmfbmenfNEzhOElHpGQBZhczI6g/4CZCCYRTv9DgLpLnRXFaP3hY/UVfcOsqRh7M9bRhOExgtGCMP+SbUfW1tBVhKF75JFHtEz4DgMhZTT88MPrZIa2ZuVtcWOeBiYLxtAGHyaWnUBvvvmm4oLeJ5NF+mQjBnX6iZhEQqllELu16/10002nSX/++edzs4BOFvlFIADFfaj1tzAp2fpIWPzRiWVyx8RZJESqB4V+bjmqtd+FOZ533nmVqZOl8MAEhT5LJGLlPqHucR8XB6wmT9W2sTjetr8vJ+LKc5fM5jmnbrZcKIxR6pZ3wzIWcZmYPg5j+kWm/yIdnYaVBhwHU/E+Ysu85QNEliLdKQnfrIcizNCvYtuvkS0XxrvZTKcq1vFAxIsonvAsV0mD1nV64hHmVcW6LEOaGF5s+tgnVE+IdLGkC/F96QBSf0T5MsClYmnKiaXBmMAe0baRNDBdLiBNRem1d5p9LSqbeLnQ0mq7iXgXf8iWa03HCjfKgDJBdw1i+VaYLS0Xdl2hD0Ec6EOAdXb5RF/qpX9FuFv/YDuMYxiod+CYxcuWC1E1MLIlW67mT3szYvlC7J2lOjCUCWVB38EVXTB2MfM9nm1JP7tcSHyYKECvkV/8DftWO16LyglVBbChDsd9k+WVfgN/+gYj9BRtucvcuFo/1U46WaSbPgCcGLdisjrM0jGU14eCBctv1EMjdGrR6ZRJgcYbY2X9svU7tlxoY0Wt/S46WKSd5XQjYQjVTWxXmlPJlfTGS/J4EgfqK1ClPJH+atuYRtYCf0VtoJokVuaaMjEUfbBaJotobe1XlrGS66+/PhEjbolIq7TAYA7Qw4LQKaKh8m3WnKlQDGq8h1ueXla7MFk0LvIWDwx5TJY1WPQ8ZMeODtxUdjp0Ki4NAixQuma7NDoCDArGvKGwyzODu8zSdUCIsTMFShodA5IpzlsDz+sgWIO3b9LBmD0j6kBRerVgW+CP9FeiPCYLPR5TmLbOTmaQWo6UCZ0kGNhGAFkW109QLnyPn8x81Q0mlWfZuVgpGb3Orwh3OnHC0PazZINA3GYIY0xU7B4zWYRhQka8DAiy5Ku6cDzT/xgx8cCNDR4Qkxme+YnURt3ymCxMyVi47IRQX2rDP/JTiaz+whQwGbafKW7beIB+GwwZ4YiT/iFL7cpkoWfJBJV+nPGLCS/jFG7k1fSd8vpQM3GBvjFY2WTN9LCYUDC5pe/gByNPnMa4MUbyDHMFo1Rrvys7cfV9JjOyLK/tgHGCOBmP86iIySrKE3FW08byvt0MN7Col2qKoeiDsuyhBVQkybJEx8wScVOAVBiUg2NCuY4GbRWAsHDMossSB0vvmYmy66EVqBJmDLb4x/llUMYta/uEvBqziT94xMqJ7FDM+tMBQOBnMy7epQOgQzTi+zBi+PH7//bOBG63qfrjO4WreyOhixuuJMWVseFG/uZMSTJkdkVCmTW4boZbkaGuayohV5kyX4lU5sylkFwhRUpRoWjS+a/vYh37Pe/znH2e93me95nW+nye55yzp7P3b++z99p7r70WHzEDkjFZzMyLK1kwd/GqDvXBAGiUyq+F6+SVspZRLSaL8MbUGpOFG20fjAxDhIDpxGKifdOGbeZqHVIxXBynH+/LcEcIGIxibGMMTCCeSVZMtZgsY5BgtiCUmcI8WR1RH3w3MdlAZ4cYbPWAAc+oFpPFqhffH2la/Vr4Xr2W1RMrtYZjrauVmVNz5k+/YwLS5m9Xsdqh4XptJYv8w+AwMY37XybAMbNdrw81YXUwot1zCIlJG8Rk2SZ0+NN28eeeyR5kjC79N9RIv0vbNsaNNMm/1RdC97WIfr5sJYs0y8pEmlW+sVrv7oQbuDRLryEBSagSIRzaQPBKaRIIYUjks4o6s4oJ8G72kdkTRkdLL1AZZsg9CQOksmdVy0L5KXsse2JxpXNXPSmYMarlj3AiZjDq4YwQPhibjIqlW3ZFsBXhZOlAawYry2/NCKPoWFY3I80G+ILJwgsvPNIk+j5eO3BvBDTks+hv6gnPN5KWhaUPk0EqICiP3qJ+oFbVE98D/QCC4qTZKzSS8nOgC3lXTG5VJcOH9hjLEVp8sMOsFwcJahH9NofD5p577ty7kX6X74E06o0LeaIN3KTK1EBSHQ06kjZQzHBXMFnFTPXTcysqqZ/w6KayeN10pjb6CXcGE9ki1kMNKOmV1eO+YbD7qZ5G0tIHvfwjwazf4rSiDbx6vKzf0PHyOAKOgCPQZgRYecDagWz16OlCX8FsM+CevCPQYwg4k9VjFebZdQQcge5BgJmunJhS1Q2mYqJ7cuc5cQQcgU4jMCq2CztdSH+/I+AIOAIpBFAci76nRgkdWjBYcrIxVzzbaBoe3hFwBPoTAWey+rNevVSOgCPQAAJoukaRpiktbSBqHhQmTU7t5s9+4wg4Ao6AM1neBhwBR2DgERD1DgOPgQPgCDgCrUfAmazWY+op9gkC2BQTLd8BO5L8RD+WqrgQXT9h8uTJYfz48QEzEbENSNHNpPbt8FtppZWCaMBXu14GCSZ0MDll/qJTRlWY4I/ZnfXWWy9/xg1TPmai6qmnngrrrLNO4P3LLLNM2GSTTQJmNkTHkJrcwA3bepikMVUrXMvyyzu6kVA3guktMMSMlmhmz+2hig4fxRWBc8rMqb5UOTkFeMoppyh+YE+8Aw88UE3k3HrrreFwMQUGYeMTUzqQGDoO2223naoeIB/Tp08fsp2Iua9tt91W6xJ7iKJwU+P532AgUO97TLWbc889V/sT2iEm5uLVT7arad+0efzpX0TPWw4o5tJEeWn+zA3tGBM8ECuyxBGFu9pu8TN32ihqNPhuzEYhfqn8agL+N3IEpHOqTPKWymE94MsIOGbd2xJSdWNam1Fsi7I/lLqaoj2UD8qgnSsLfOihhzJTpInFAbGpmWu4Fjt7CoJptSZdzLWg6Z08iNFU9UdTNs9iID0HTQZ2VVKIg1kDIIwYXFflhOSJ9Phhugft2viLHUtNoyy/+UtG+Yb8lREKDU3JItqvxa6jYoCiYgjt2aSBYkQUNKK4N1VOtFoTB0WK5513Xp4G+KLIFGWR+BMOZaMo8kU5JMpFsYhg/iiDhGRgUn/ygLkd6pz4xOkXojyDTKny1/oeU+3GzMbRjrAOYdY1UDwKmWkc2jXtnvZFPkxLPvFQdBoTyrdNcTRt29ohikYxG4VpL9xQkCwTsNwaBVr4U/mN3zOI96k2UAWThr6iVrywSqb6KYxj1r21maobGBc0LssqiBYC5oc4MDhGaF5mYGXgN63jDNxmrw3GSYx2a3AzF8MAbTRt2jRNE7MaVZksYzZIg46YPMFsGe27774ZtipT+bXwo31N4W7mQQw38jdr1ixlvESBb84ggTdUpZxosDZzJRpJ/mCgbHAyM1+iTFa9jWmLrSpgjoe8MzjBOFPvZv6LSJgDcyZL4euLv1Q7NSYr/h5T7ca0nWN+B2JCweSINo8ZKd5pjDz+slKtbmajtyqTxXuMsJ6ANQqzRMA3hIk2JoKp/Foag3pNtYEquLgKB0HRyRGoh4DM/nItzGzLQTIbDSy9x8SWIRqT2W4SximIHTMNs/nmmwdZBdOgYg8sCNMWJk6cmEdly49tqAceeCB3S92wdWkknXOQmW1YdNFFzSmceOKJem/bmPXym0foshthODVHa621Vp6znXfeOfAzQru6aahO1QtxhMEKYCWrUkHswOkWr6xY6XakpRlfwQw64ogj9Moflg2gOXPmaHzyh6ZtI7Zp2A52GiwE4u8x1W5k1UmtY8jqeJBVqiA2TlUcYJVVVlFxAZCjDzFCe7wwRENEEsyv7Mp2o9Ftt90WZNU817aPNZBrrrlGvU0UoV47X2qppSwZv44QAWeyRgicRxsMBGLlknbybNlllw2TJk3KAeDeTBGJwfIgtgjDVVddpcopzzzzzCAGUVVuiKP+/GIy80cotURuCJJVsDyIvTN3kBt7F26YwyimaWEtbll+LWw3XZEzg+qVCz9ZZeSiVKWcyKxMnTpVBzbZ2lMZNnuPpRNfxX6cKhgt1vP666+vDC0msTClE5OsSsSPfj8gCMTfY6rdLLLIIoFJhGznB1mpDchY8UOO0iZfsho6BDkYrVgHW9w/EJC2WCTM8BjJClkYM2aMPQ65pvI7JLA/jAgBF3wfEWweaRARsE4Q25DYqOPHqhUdIPYkH3nkkSDbSGH11VdXYVZOrCFkKsvyKvwOsyNGY9VunuFnAqhigDi3PSbbX+YdfvWrX+X3tW6YDbN6YowGYbCdh4C8zULr5bdWet3ghlA6hEoEI5hXhHafeOIJc8qvqXqBeYXBkq1BXYU644wzgsjCqN1Q7H3GZM/LLbdckK3AMGXKlLyuWWFA8Sh1/d73vjfcfvvtuTA+aYhcTZyU3w8gAql2c/311+sqt2z7he9973vaF8i2dTj77LNzJkuMZOfIIQgPQ2arZUw8YJqMaNuszJYRfQuHdoxo4xzc4ZtI5dfi+LUJBKrsKVoYeY3d+rUiAo5ZRaA6ECxVN8hkIdsUE7IRxEM+RxigTJbZ9Xn27NmZzArVkj1C28hY3HnnnSqkiuwPJMv2GhYZCYRRzzrrLA2PvASyGXIyUf0RhpVOUd/Bu0zOx2RApHPOsyQMlsaRbQdNH4F34px66qkapiy/eSKjfJPCHZkRsJfBIQPXG264QWXj7IAA8m9gFlOqnKRFHBmQ9IdQMPnYYIMNNBkEj3mWk5gqW0f98Yzsyo033qj1RT0idBzXFe+VU4aZrJRpeKurOG+9ep+qp14tV9V8p8pf63tMtRu+a9KVk7PaDml3tJm99tpLs8UBG55PPvnkTJj4zNqpTDLUn0MYxJ8xY0Ympw5zwXmTLTTBdzGAnheTNm3vlO3M7KijjtJn5EBT+c0TGdCbVBuoAktDXFMrXlglU/0UxjHr3tpM1Q2D6mc/+9khBZDVKT3RRlx+hGGANYIBQlje/LmnIzNC2JRO1PxldSQjTSOYOvMj7UMOOSRnsh5//HH14zRdTDBWliZXBOwRyIdS+Y3TGa17ypciBgAYI8OCQURWCjUaJ/2KTFaqnAxmcb1wegshYtIHKzmOr3XJs8jT6XsuvfRSZYItDzDPsSD8JZdcoswg/uAO88y1X4hyDTKlyl/ve0y1G/oLkSnM2zbtilN+EAdYaEfW5phsiIoH9eNPxAP0pLP5M0mA0Tcmq3iAgzhMCmTVPU+TE4s2CcM/lV/CDCql2kAVXF5DIEmoErXCInWlF/VRIMeseyuzmbphe05mi2HChAk1Cygn38J88803RH7KAvLJPfnkk+pHmCKl0i6G59nSRLdOLL9hYUeSpsVt9bUR3IV5CvPOO6/Km915MQAAQABJREFUR1XJR6qc4I68Si3c2UaR04W6HTjXXK9KUhCHLUKTnyvmgy1MtmSRq+snaqSe+qncVpZmy1/Wbmhr6Kei3dRqV+iJoy3a4Q7Lk12RxeSbj+XBzK/ela1FDm/E8oxx2LL8xuEG6b7ZNgBWzmS1ucW0opLanMWBTd7rpjNV77h3BvdG3zro9TTo5W+0vfRj+Fa0gVena/2IkJfJEXAEHAFHwBFwBByBDiHgTFaHgPfXOgKOgCPgCDgCjkB/I+BMVn/Xr5eujQiIQGoQjcl135Dyrxuxjkd8DLtOEHd2BBwBR8AR6CIEnMnqosrwrPQWAqKiIcjJnLqZTvnXjVjDQ45dqwLNGl7u5Ag4Ao6AI9ClCLjG9y6tGM9W7yMgxoZbVgg52t2ytDwhR8ARcAQcgdFBwFeyRgdnf0sPIoC2ZTEsHLADhmoEbNOJAsAhJcG0yqGHHhrQUk44GCvTiiIKS4MoGczDc2R7u+22U83lK620ktos5B1GHNsWJYVqT4+0vvSlL6lGcdJkxUz0bakmd45v9zOJziotpyhRVFyx74gJHEyAiB6xsMIKK6j77rvvPkT79bnnnquasamrNddcU7XuxzhdfvnlAXuD5k94I0ybfPrTn7ZHvR544IEBczwQmvmpf+oUzfP4mTt2LHFDu79p8McvlV9NwP8cAUegvxGQAaEyCRKVw3rAlxFwzLq3JaTq5lOf+pQq8ENx5cyZMzOU+BHHlIuiFJNnFAuecMIJuRJBtDVD+KNQE0LZIIoqUTCK1maLi0JMCIWBKCUkPTFmrO8jPHngfWJvTxVfnnPOORka0XuZUribJm3Cbb/99qr8VfQKZWJcVzFEW/YXv/hFvadOxNRNhiZrwoPnBRdckGvCRgkp9N3vflf9xeC3KmIUA736fMopp6g/8dDmHhPvMyWPpkmbOkELtzDAqgWed5Km2J7L0LrP82OPPZal8hu/p1vvKcsg06CXf5Dr3sreijbQ0FfUihda5gfl6ph1b02X1Y3YB8sHbSuBrKaoGxqWIWOU0E5uxEAN0wXFTJYIyGvcWGM4pnnIA4MyjBT3YjTWkspmzZqljBdMFWkVtZznAXvspgx3imJMFgym0XXXXaf4nH766eakZkVICwbImCjCQTCtML7GEKPtHe3ZMcEcwTSJwV1lzqowWbzHCM3c1AkMFUQ9YYYHrf6p/Foa3XxN1VM3570VeRv08rcCw15PoxVtwGWyBEUnR6CIwD333KNOGAU2mn/++YMMosH8cBeGKqy44ooWJBBe7BkOMRyMp6y0aBj8jNC+DM2ZM0c1wHPPdpbRzjvvHPgNKplRXMovzKnCgLFcM6CL1mwIQ9L777+/arKWFaqA0WxZVQpbbrllWGWVVXTb7oEHHtAwGuGVP8Jg5Bnt/FWJbVwjsUUZdtttt4DCQgjN3ddcc43ey2qmXuvlVz39zxFwBPoeAWey+r6KvYAjQcDMqshKx5DoMFqx2ZpFF100H2QJOHbs2CHh7QH5HNKaNGmSOen9+uuvH0hDjE2r+zzzzJP7D/pNbDIE/CCYphhj2Y4NspoUFllkkSArigGmRlYDAzJW/GQbL8iWo8al7mIaN26cPpo5HFnRir2DrEwNeeYBkzxGstoZxowZY49Drqn8DgnsD46AI9C3CLjge99WrResGQQmTpyo0W3VhAeE1BnE4xWWe++9N4hMkIbl7+qrr1ZmKh6McV9uueXC888/H6ZMmRLEWKv+WPUiLnbxEJyHWJUxuuyyy1SgGtt4g06GD0yW4YegOocFwO/6668PYtg5iGxVECPdaldS5N/C2WefrStMrDjiHpMY2ta6wj4czC1MkxF23h588EF7rHmFwYt1l7GyNnny5DB16tS8Puvlt2aC7ugIOAL9h0Aje6ZS+kaCe1hBwDHr3maQqpuNN95YZXYQZJdtJRV4Jo4wP1ook8n6xCc+kclKVDZ9+nStbzmRlvub4LvJXCGzc+ONN6rQNELwyAEhP4Q8DzJDhJ89e3Z2ww03ZMgRbb311pqWnGDUvAijkAlj0b2gVshZCneTyaKsRrIypLJuYIZgO3JwJmj++OOPZ8LsKPYIxQtzlCHwjryVnO7UJGRVS/3ldGJ29913ZyYjd8ABB6g/hxHI14wZM1TWa9ddd9XnouC7GAW3LGVy+jF/J4L3ostMn8lbKr95Il18k6qnLs56S7I26OVvCYg9nkgr2kBDXFMrXtjjmDecfcesYchGLUKqbkQ3VX5ikLAwQaLFPc8fTBaMEIwS/vxkdSUTtQ4aJhZ8x0HUMCijYGE5TRgLwjM4w2SZPwP8I488omnddNNNubvIAqlbr/5RvjKCaSKMrDQNCSarhipobvgguH7FFVfkYWBuOXRg/uDLqU6IE4if+9zncj8YMBgsWbFSf1GLkcFUW9wNNtgg44CDMVnnn3+++v3tb3/T8PzBHMuqWh6Hk46nnnpq7p/Kbx6wS2/AYpBp0Ms/yHVvZW9FG3gNiUlClagVFqkrvaiPAjlm3VuZVeuGLSkZXAPbSvXoySef1G0rhJ+NEFpHYDveUsKvVliLw/Xpp58O8847r25lxe5sLb744ov6nti91+6r4l6vXNQF23kLL7zwsCBs2aGPbLHFFtNtwmIA4oH/hAkTgslixWHQQUaXGMuDxf617kmTQwzChNfy1rZTL781I3SJY7P11CXFGHE2Br38IwaujyK2og04k9XmBtGKSmpzFgc2+XbVDQOqbPeFPffcUxVnyvbfwGJcq+Dtwr3Wu9xt5AgMej0NevlH3nL6J2Yr2oALvvdPe/CSdAkCssUXZLspLLTQQqoNvkuy5dlwBBwBR8ARGGUEnMkaZcD9df2PACcJOf6PgWiRG+r/AneghJjXufDCC+u+OeVfN2IND06V3nfffTV83MkRcAQcgXIEnMkqx8d9HYERIRDLZo0oAY9UisAll1wyzI5kHCHlH4dN3aPLLLZzmArv/o6AI+AIGAKujNSQ8Ksj4Aj0DQJs2baKGtEI36p3ejqOgCPQHwj4SlZ/1KOXwhHoKwRQDIqyUZSQ8kPJqKjUGFJGnrfddtswfvz4sN566+lhAwuwww47BLFzaI/qt+GGG2rYNddcc9hW48MPPxxE35m+a6ONNlJN8ZwyxO3RRx8NorpjoE0c5UD6jSPgCDSEgDNZDcHlgR0BR6DdCIiesSA6qwL2/0RXVdhpp51yTftmroY8iGFoVdeABnjUXqyzzjq5XUlsEj700EOaVbTB4yd6rYIojA2Y1xH9V0EMOas/6hfwR1v/Pvvso6Z7YK7YcsS+IeaQsFmILUQnR8ARcAQaQcC3CxtBy8M6Ao5A2xEQbe1BNOSHb3/722HHHXfU97H6xInNWbNmKSOEI8zPrbfeqrYkCYd5nZkzZ+qqU5zJww8/XA15X3vttWHuuefW1anNN988iHZ4TR9TSZguYmUMO5IQutHuuusutX+IXURM6GyxxRZxsn7vCDgCjkASAWeykhB5AEfAERhNBDiVCcFUGcFkQbFtR1aWzFj3AgssENZYY42ALcmY2PK7+eablcliC9Fozpw5ylixMgZDJ1r7cwaLMCeeeKIF9asj4Ag4AiNGwJmsEUPnER0BR6AdCBjjNHbs2Dx5VqBYuTI/PIoa39kGxAh3TC+99JI+skI1adKk3Mvu8UfLOwainRwBR8ARaDUCLpPVakQ9PUfAEWgKgaWXXlrjiyHtPB1Wm2CgVl555dztnnvuye/Z3kOmypgn84ApE5uCgRWradOmBeS3+KHLDLM6MHL4swKGySKjgw8+WOW0GrA6ZlH96gg4Ao5AjoAzWTkUfuMIOALdgACyT6xaoVD08ssvV+Zp3333VTcE1I2uu+66cNpppymDtMcee6jz3nvvbd75lbicENxvv/00LDJYCL6zggUThmA9DBzbiQjMX3zxxeGEE04I22yzTcCsBpr7b7nlFt12zBP1G0fAEXAEqiAgM7XKJOlVDusBX0bAMeveluB105m6qYL73XffnS2//PIYr9ffqquumuFm9Na3vjXbdNNNM2HG8jBnnnmmeWf4H3TQQfospwqzI488Mg9HHFEJkcnqVh5eGK88LfwPOOCATE45qv/xxx+fxyWtQaEq9dTPWAx6+fu5bquWrRVtwA1EC4rtpFYYmGxn/gY5ba+bztR+I7g/88wzYa655goLLrhgzcz+73//UwH2xRdffIi8FrqzpkyZEo455pg8Hoa7n3zyyTBhwgTdKsw9XrmRjlf9iRvLfuHNdiP5GCRN/o3UUxHLfnge9PL3Qx02W4ZWtAEXfG+2Fjy+I+AItA0BturKCMZnySWXzIP8+c9/1q09lJnCLMUE4xSHjf24p0OFAatF48aNq+Xsbo6AI+AIlCLgMlml8LinI+AI9BICs2fPVqWhW2+9tWqD76W8e14dAUeg/xDw7cI212krlhvbnMWBTd7rpjNV327cOWk4SNt67arFdtdTu/LdqnQHvfytwrGX02lFG/CVrF5uAZ53R8ARGIaAM1jDIHEHR8AR6BACzmR1CHh/rSPgCDgCjoAj4Aj0NwLOZPV3/XrpHAFHwBFwBBwBR6BDCDiT1SHg/bWOgCPgCDgCjoAj0N8IOJPV3/XrpXMEHAFHwBFwBByBDiHgTFaHgPfXOgKOgCPgCDgCjkB/I9CwCof+hsNL5wg4Ao6AI+AIOAKOwMsIYAmiGWpY43uzL2wms70YtxV6Nnqx3L2QZ6+bztSS494Z3Bt966DX06CXv9H20o/haQPNkm8XNougx3cEHAFHwBFwBBwBR6AGAs5k1QDFnRwBR8ARcAQcAUfAEWgWAWeymkXQ4zsCjoAj4Ag4Ao6AI1ADAWeyaoDiTo6AI+AIOAKOgCPgCDSLgDNZzSLo8R0BR8ARcAQcAUfAEaiBgDNZNUBxJ0fAEXAEHAFHwBFwBJpFoGEVDmUv/N3vfhcOO+ywIUHGjh0bFltssfDRj340rLDCCrnf//73v/CpT30qvPTSS+HUU08Nr33ta9XvuOOOC/fdd18erniz8sorhwMPPFCdSeMHP/hBuPHGG8Mtt9wS5p9//rDOOuuET37yk+ENb3iDhrnpppvCWWedFb761a+GN73pTUOSu+CCCzT+t771rSHunXi4/PLLw4UXXhjOP//8Try+I++kvWy88cbhjjvuCOPGjcvz8Ne//jXst99+4dOf/nR497vfnbvbDW1mypQpYffddw9rrbWWObf8etppp4XbbrutZrpzzTWXttvXv/71w/x/9atfhaOPPjrQlsePHx8+97nPhUmTJoUdd9xRw95///3h7W9/e5hnnnmGxa3iQFu5/vrrw4knnlgleE+HsT4l/u5Hs0DFtuZ1ORT9v/3tb+Gaa67RfnSRRRYJH/vYx8Kqq66aB+Jb/t73vheuu+66sNxyy4VddtlFxwML8O9//zv8+Mc/DrNnzw4LLrhg2HrrrcMqq6xi3l1/3WeffcL73ve+sNNOOw3J6wsvvKDj0Lbbbhs23XTTIX5VHxr9zsFyzpw5YcUVV6z6imHhfvrTn4bVVltN3c8+++zwm9/8Jhx55JHDwrlDdQRaupLFB/ftb387/OIXvwhPP/20/mCYDj/8cB1kfvSjH+U5u/nmmwOD2Omnnx6uvfba3P3vf/97Hpd0SO/BBx/M3Z555hkNi74umLRNNtkkXHTRReFd73pXeO6558JnPvOZsMUWWwQYMOjRRx8Ns2bNCs8++6w+x38///nPAw2pG+jSSy8NSyyxRDdkZdTyQHt43eteN4TB4uV0FtT7H//4x5p5oe7xf+ihh2r6t8rx1ltv1fdYW46vf/rTn3SCUOtdf/7znzUeAwx05ZVXBtoaRJnpBF988UV9HskfTFo3TAxGkvdG4/DtUtcHHXRQsG+/0TSaCV9sa16Xr6JJO4cx+sQnPqGOTBAZoGGqoP/+979h/fXXDzvvvLN+K6ecckpYc801A9+OEUwrffjjjz+uEwcYtJ/85Cfm3fVX2ib9RJH+85//aLtlwjVSavQ7B+tzzz13pK8LRx11VF6XJHLXXXeFiy++eMTpecSXEWjpSpaBClO15ZZb2qN+QKxiUYk0BAjmxlYpYLZY0YBirpnZ+rrrrqsrAv/3f/+n/vZ3xBFH5EzaHnvsYc7hO9/5js4qvvnNb4Y999wzd+/mG2bLzFpgtAaJmAF/+MMfHlZkVn+6RentW97ylvD9739/WB4bcfjlL3+ZB4dRc6qGAN8FkzAGca4MaPvvv3+1yG0K5XX5KrDf+MY39OH3v/+97hzAVC299NLaz2+22WYB/5/97Gc6SWYVi0kTuxr0zVOnTg333HNP+NrXvqYThl133VWZsg984APhC1/4gq5uvfomv6uCAPXQDP3hD39oJrrHrYNAS1ey6rxDV2iYwdhsnhUvmCwGWGY5zA4fe+yxetFrun/961/X+DGDRcAddtghfPaznw2t0NRa88VtcKSzef7558P73//+8NRTT+mWJ+VbZplldJbHKhzLttttt51iudJKK4Xp06frio9lhxnMe97zHt2eAut4pYOVoeOPP15nmTAwdIDMUoy+8pWv6NacPXNlS/bLX/6yOhH30EMPVeaVPDHYQazKbLPNNponlsvjlcpUfpnpsQJpTDcrFXS0ECsWbPuy2gnReVNeys3POnf17II/Oie2NsGG7UsmBzHRxk8++WSd8TIBgdhCsPLdcMMNYcMNN8zrjm3jmNhOZduBugPvRr+VOK1eugeXJ554QrdZP/KRj4STTjopX6GmHODMKghbTeAOPuBUNtiwUs5qN5M+6ost53hlJdXWUnWZavf9VJdvfOMbdaJrohmsSk+ePDn89re/1WaGGMcGG2yg24Q4LLroorqdaJNJ24qnziDiIwbA1qKtAqtHH/zBTLJqx8/6iTPOOGNIyVJtg61A2h9tF9EY+nnra5iIsGtDv08YKNXW45ez0EG9wBTT9xr+fA+IPvBOGGXGAdyMUn2XhRvoq6wYVCYBqjSsbO9lhLnkkkuGhJNBQd1l71rdZSajz7/+9a8zGaD0XmYvQ+LwIB+b+klFDvGTj1jdhREZ4l7rQRqdhpUOWvNF3uwnTJ761YrXKrcUZrxHmJlMVvL0lVY24m2//faZDKqZLMtn0pFlb33rWzP5WDOROdN8f/zjH9c4wrzmzyJnlgmzos8ir6b+sq2qz6Q1c+bMTOSB9Fk+KPUnHVlV1Hv7W3vttTORr9BH+YA1PPFIQ1Z2MmEQ1I06pT5lENRn6jqVXxIVGToN/69//UvfQZ6lQ9b7J598Uv0uu+wyfZZBUZ/32muvjHYCNvx4bzOUqhuRocre/OY3Z+BU/EmHpq/+5z//ma2xxhpaP1/84hczkTnJ8ydbBRoG3A444IBMBv+87qRTy0jD2jh4C/Oo7YB8CSOrcWXQ1rRJgzYsM31Nn/bQq5TC3cpF+wd/6dQz2gLxfvjDH5p39t3vfjfHQiZW2THHHKPPwsDmYeIbESHIwBnsPv/5z2fUF/dga+0w1dbK6jLV7nutLqvWk2EsE0TFn3qDRIQj23vvvc1br9OmTVPMeTjkkEO0T4sDUL+8176d2G+076uUn/ZDf1wkWUjQcohcpnqBA+nJynjGuEXfwnPV75z2ybew/PLLZ7Kqm82YMSPvx0VMRvtk8sI4wrdSpa3HeaZ/o28hf+ecc072j3/8Q+uOPPJOmSTm4wpjCJTqu+L0e/W+ShtIla2cayrETr3QmCwGXhoRHxsfGvH42aDPgM7AZASzQwOxjs7crRKLTBaDfJyeha91NSbL8lDrWiteq9x4X4rAggEUMiYLxshItlC1vLJVYU6ZCPKrG0yNDTbgBckqUXbCCScoYyCzdA1nDBn+sjKmbnIYgcesKpMFk2BEnYn8hH7MuPFRfvCDH8xkuzZL5ZfwsqKjjBn3RYqZLFnh07zKalseTARl1W00mKxa7QU3mE2INs2zzMrz/MlWtrrZQGEDMwFEbkX96IQhOjY6T1lt1Gf+PvShD2lnx70cJNFvAxyMjKmz5167VvkmZDVTcQJLCGaWPsLaLG7W7o0Zx01WFPNBnOeYrD9hkDKSFV19z3nnnZdVaWtldZlq971Wl1XqyXBkoKffJw7MJER9ycqH3tufrIprGPoovqHi5E5Wc9SfSVynqUr5KWMjTJZNbCkb3z4TZyjVNliQYDy9++67NTx/1pfYuEBaTDagVFvXQIU/ykGfbmSMofX7MG70VUwkoVTfpYF6/K9KG0gVsS0yWZyssOVGTlVtvvnmQRpIeOc73xkQ5mOrimVkllAhTmqxXcay/1ZbbaVuZX8mIF62LVCMjwA+8gIxyawqz0PsPpr34ISgpzAMQ17L1p+RbbPKgGNOuVA4S8gyOw/IDiG/JoNAYGsFmThO6dihgviEC0vNwhCpTESeYOJGPq6w+OKL56FY6t9tt93ybVlO2SFjBZk8Xr38LrXUUrpFLB91nl69mwceeEC9KKNRO08U2jvsSrmlw7LH/AqGkJ2EjeuLth2XPY9UuJGPU7cMeQfb3EbUKdtkLPezlUx549OXbPfee++9Frwvr8JAabmQ47F+gu9eVqF1O3DChAl5uePTbEsuuaT2JblndGPyVGxTy4qJ+tgBGfoltnGgkba11Hfar3Upk6IgE4MgjICexp04caLiON988w3ZWsJRmGWV32JrkD4DubuYZKKtj/Z9xX7deE8ZEccokm2p2al5/PnOEXcwQg6Z7TcObKXaxtve9jYVk0C0hm+Aw2AmnoHoRZFSbb0Yvt4z44r1+4jgsB3M9nqVvivus+qlPwjubWGyZJUiH2iLIJo8D3I3CKnHxOmTKkzWO97xDo1mA1ycBvfIZJE+qiGMUCXBL6aRHqGP02j2nj1tPj4Y0JhidRMMtjJj0hOaFgbmFXkm5Bw4Os1JTAYPPkJkrPjBuFmHR/yY6MTo6IyKnZ2sTJmXXvnYYuJDGzNmTOyU36fyi9yZzOjCeuutl8epd0OnDCHHZ1SrUzO/Vl9pI8gj1CM7JQhehnGtTq9WfMOcOqQ+jewef9I1DMy/avoWvhevtF3wvPPOO/VHGay9IncSq4qJ1WjEg1qx3LRLiMlH3BdwMhlGzXAeaVtLtft+rMtHHnlEmVK+SSaLsfoAJlOxvBvY0y8vu+yy3OrgXTxU8pe//EX9YJZ7gSiL7CYMyyonL6G4HMiwsaBgZONPle8cRva9732vTr5gzjg0RruND4pZulxTbT0OW3Zfj9mt0neVpTtIfq+OsqNQaj5EBOxkmVh1QsWvRBgVvUIceS0yHHE47ulsEZpnhitLl0NmB8wIjj32WF0ps0ZcjN9Nz6w0oUOsjBA4ZOaNUKit4qHPBEFFPlyEH9EXJjImeqKS1bHVV19dDxdwwAAivgmZUw8wZKa3CZzizpBZGDMlm9lrAoU/PnDyYMSKgGxj6WpalfzK0nbglyLrtFlNQjgcqnVkOpVOu/xNpw/62Gy1sNbKV/H94EU7ZuWRDpFVVTusgeD7ww8/rIwAHSsMM3XKcXmIuu5n4huGCaevKK52shKAADwCxI2StWfqDH1OELiCL9+RMdONtjVbDUu1+36rSwTcOayz8MIL6yq29U1WL+DMqWnwMebiqquuyvVoMZmg36Gts1IDgT3MNfXRCyTySgF9i5waBgcj6wPiPg6VMxyS4YQlRJ+MP991qm3QX7O6zYqrtVO+D8gYHn145S/V1uOwI7mv0neNJN2+jJPaT4z9BYD4cdi9yWQhWF6LTHhVtgWHecv2h+7FIyBsJA1V3YoyWfgjZIqQnqwCZcJU6R40MhG4kU/buzaZLBNUtrS5sn+dKlMcfiT3ZelL56P5l44oT9pkskTXTO7GPj7pIPMkJ3ZU6Fw+TpVnQLZBmB31R5hXmCOVE5KOKkNQHEIYkmeEF2+//fZMTgJqeJNlQZie9BGmREbFBOdjwfd4r540Ed4kDu9E8F7Uc+gzbSCVX/b043omPWQ17PBDLJOFnygo1PyfeeaZWs/IcfDu0ZDJAjfaUK0fdYVsFXWB7CHyWcik0SbJXy2ZLJPhAj9kHagTwiJLBHYmZySnLSm6tmP8kUVCXoVDEjyTr14l8l9GtA3CyAA8LJisTqsf34xhRV9gZLKK9hxfhZnVuqG+OCAC3nZgQ/Q0adBUW4tlsop1mWr39Em9VJepekJ2kDAcIIi/DxPmtvFAGOIM2VHCER6cIFkF1vqgX0PmyMYHvoluoFT5yaMdAKJ/lNOC2gfYN0q56J8hk2+ivdEHWxjGLijVNq644grFjgMzsoWeMYbSB5BHDhFBJussE76sSlvXSNEf8nOkydgjIj+aZ4TeY0IWl/EESvVdcbxeva/SBlJlK+/tCrFTLzRGqR6TZQLusixfSPnlRxoJlczHB8Fc8U4aTS0Srl4ZAhvUCEsasmydBxdlhppGNzJZst2peZPZdJ5fOnvKgXB/TLJqlQ/e+NPBmcAj4fhoYxzwt8GHE5xgTzx+MKJ0ika8nw/H/Dnlx6BuTFZRIJJ4dB7xST8GHwZAo3r55aQYdVwsH+9k8IPoRMiLMZ90GDYY4s5AyHU0mCzDpNbVGGGYKWP8CIeAKtdaTBYnsCgn/nSw4GgC07iBDQcRKLMR35NNHvC378j8e+1KOeuRrLIqBpSxFplAPCcIZXavOFo7J7xNGGrFxY0+igGRPPBDWJsBzCjV1mImq1iXpFGv3Vv6vVSXZfUk23o5hoZlfLXycmLW3GnDxRPh9NXWb9G2OfBDH9ENVFb+OH+0n7hNUR4msnG/DpOFu4WjrJxkZaJtVNY26Cdscky+SMuwZYIK2aEC/Amfauv2XrsyzlpdcZCHuigyWfTDdnq3St9laffqtWobKCvfa/CUhCoR2xkNBK+UZqsCoTGY/eMFFligVUm2JJ0yzJDRYPnYlsqrvJC9eZbSYzkUi8eyvJzs0eXoWv4cSEDexAQZLZ5d2TqhfmN5MPOrd2VrEeFk6UBrBinmlzyybM5y9txzz10zTj1HDkfIh91Q/uqlhXtZ3ZTFq+fH1od0ngFh2DICA+qBerRtFHAEKwS668kVsV3AVkM9/7J3dpNfq3EfSdnAH8zjLZ44naptrVZdkk6x3cdpc98LddmqerK2zXYiaRaJPodDTMI4jNjUVDHNVjw3Wn7kM9k2LG6bkhfM78iiQUAgnbaBHG29/q+sbfAO+ul6fbhMErRPifv/VFuPseLgAe9oZLvW6res74rf0Uv3jbaBWmXrGyarVuG6wa0VldQN5ejHPHjddKZWHffO4N7oWwe9nlpZ/pjJarQePHznEGhFG3j1qEPnyuFvdgQcAUfAEXAE+hYBVoY4Rew0eAj4Slab67wVnHCbsziwyXvddKbqHffO4N7oWwe9nga9/I22l34M34o24CtZ/dgyvEyOgCPgCDgCo44AKoiwHYguwKoUq8JJxUElj5zo1mByqlDV+pgC11TcRv3lNLfqMsRGohwuaTS6h38FAWeyvCk4Ao6AI+AIOAItQABmBIXbCKdXIVF9EzDuXJXkxGAwBa4oQYXpQu9hqwk9iRhPh4HDYHQjh6FanZdeT29UlZH2Olief0fAEXAEHAFHoFUIcLq8ERI9cI0EH3FYTjhCWE1B8bTTyBHwlayRY+cx+xwB7AmiXRy7hPxY1ue4uej6URte48ePD9gRREO5kSgVDBtttFHAD+3k2CZDdYYRM1FsO5o/ZjHMnAva/zE1ZM/EOeecc3ITVWxBMKvk/ajA2GSTTYIY+1aN2cyGcePdmKQxVSup/Fq+uular5wcT8cyBBqvKSsz7dhSwbnnnqv1BLZscYguuCHFQvs4diDNn/BGaH0XhbD2qNcDDzwwiP45vcdOHHXNIMcRffwg3LFggZvoMcrtyeGXyi9hnHobAZgk2g3tkbaF9Y2Yyr4/NLZjtUOUs+p3zeoXP8zC0d+gkoi2jrk5oxNPPFG3CO05vqbafxyW+3rfA+777befBt9zzz21zRfj8kx/xTdB2+eb4jsQfZS1gg62mzSCyiRIVQ7rAV9GwDHr3paQqhtTACqGt1VZK0pdTXEoWvGl81NlfaQjur8yU6SJdXo0v5uGa7GzpyCg1ZqwpCsmpDIxsK3PKFeF0JSNvxiM1Wf+pk+frso5uTdrAIRB4al0ahl5Ij1+J5xwQoZ2bfxR1AmV5VcDdOCP/JVRrXKKPqpMDDcrFlgZAFsUOqIcVLY01OoA6aLIFW3uZrUAreyQaYdH+ShKc6lTwlOHEPFQKBsT7zOFvOedd56G550ohfzSl76Ua/smTRTjmsJctJun8hu/p1vvU/XUrfluVb5S5UeptpgS03ZIe8SSBXH4mSLisu8Pzff0FXy7MpnKRG+iftO0MfoHmSRkKGkmPSx9QLGC0Li/wOoG4eq1/yImZd8Dfdn++++v6aHgFMWkRULRKe9D6TX5QDE1+eab6SeijM1SQym04oXNZrjX4jtm3Vtjqbqh80PjsSjb00LA/BAHBseIjpbORVaS1EwO/jBGYk9Mg9ABidFuvTdzMaIw1qJnYrNQ08QESdxpWoBaTBYdrdHMmTM1PsyW0b777qvapFP5tfCjfU3hbkxWXE4zsXX66afn2cUEFGnBANmgQTgIbdQwnWbChXqkPmOCOaLuqKuqTBbvMUIrPRq8YaggBklMqcBgp/JraXTzNVVP3Zz3VuQtVX4zqxQzIUcccYS2SZisKt9fbE2DNrvHHnsoc2X5NwsgaHeH6jFZqfZv6dk19T1cffXVWo64r7K4XLF2wQQknhBSFr6nfqJUG6hSVpfJEhSdHIF6CMhAnGtYx5AtJLNGXRqP47BliBZmjERj7Bkj5Syfb7755kFMFmlQTgNJ5xYmTpyYR2XLTxip8MADD+RuqRu2EozYapAVmCE6eNhSgGwbs15+LY1uvcblRFM2hKFcDOtCaFuHMJorM2+1OiArVGp0W1aVdJsVI8Vs24EvYWIijNiRU23jsXvZ/WqrrZZ7y+AaZDUy12KOlu1rrrlG/cWum17r5TdPxG96FgExi6Z5j9uprDwFYbTUPdVfFAuO0WW2EGnf9AlYxrj11ls1GJYuykhWkOq2/2K8VnwP9HOIQ7BFOWfOHNVkb99l8X2D/uxM1qC3AC9/KQKx2RXMTUDLLrtsmDRpUh6Pezt9I0Zug9gyC1dddVWQ2WXgGPSOO+6oJ47mmWeeYWZDzPwFpnIwTwHJykqetr0zd5AbexduyHCQbi2yuGX5rRWvW9zicjIwQDBNY8eOzbOIUK6sJqmZElkNVCZMVg4DMlb8kE+TlUcNj4xLTOPGjdNHM1MU444HZq+KtOCCC+ZOyIONGTMmf45vUvmNw/p9byJg3xftRFZwtBAxM2T+Vb8/vn8mZbKKFJjcTZ48OSCziaxfijDTU6/9I7sYk5nySn0PcZziPbJnTGgwhQSDt+GGGwa+Dfo8p6EIuOD7UDz8yRGoi4CtQGE/UGQQ9MeqFTNQNDo/8sgjQeSvwuqrr65C19gxo4OU7SMVfqezFYO4QYzr5u9AcBqCWTBbZrIEn/ujd6eMRCYpIExvHTphDz74YBWkXWqppTRqvfyWpdttfggWQzBZhj0CxxwqAHs6fVYPZdsvyFaGYiyGuPWIO4wsgwHuMXEUnsGRFUgY1ViIngGPY+xlRJ3FOo5YWWNgnDp1qgpCE7defsvSdb/eQIC6hcSwcp5h2SbO71P9RR7wlRu+YxgsDrawSsohC1aLIJuAvRJ02KWs/RcDV/keinGKz6yWy/a72sq98MILtc+RrbNiMH8GgSp7ihamweAWbaCvjln3Vn+qbpDhkdNsQwrw0Y9+VGUVpANU4VbZGtDn2bNnZ7J6kclgrsKgyALdeeedKkwtg72mgewG70SW5+abb87OOussDY9cD/IYcjJR/RHalsE74x2ENzkHk1VCHsLIBFARuiZ9BN6Jg3A3VJZfS2O0rynca5XTsAVLBNuRYTNBc+RWwIt0EYoX5ihDXgbc9tprLy2erGqpP/UJziaQjJwc9LWvfU39Z8yYkSHrZYLzRcF3YZA1PH8yGObvRPBYdB7pM3lL5TdPpItvUvXUxVlvSdZS5RfDyxntUZhtbW/I4vH9E88E31Pfn5w+1nbKN438E3GRDxSD2dp/kDZucspVy1RPJivV/ouApL6HlEyWnK7VfMmkUfOK/CP55CcMYfF1PftMeZqlhlJoxQubzXCvxXfMurfGUnVDByrHqYcUQFan9AQQcfkRxjpAAtJZIlRq/tyb8DX+dMQM/uYvsg0ZaRrBBJgfaR9yyCE5k2VCsLICY8H1CmNlaXKFcUAgH0rlVwON8h/lK6N65YShhCE1fBBcl63ZPCnqwQY5wnDySZRDqj8nEO3kJX6Gkw0Isu2qJ0gtbU51MUAak3X++efrexlYjWCMOVVlcTjpaMwtYVL5tXS69Uq5BpmqlB9milOp1gY4FMO9MVmp709WwfK4TJI4zRe3YSZxtHn6CYhDLTBeUPGgTFn71wjRX+p7MKF+Jjy1SFQ15CcfKS8YcOKW+zvuuKNWlJ50ozzNktsuFBTbSa2wfdTO/A1y2s3UDdtzbPtNmDChJoQyEw3zzTffEPkpCygfbXjyySfVjzBFSqVdDM+zpYm+GrYvizSSNItptOq5GdzJgzA6un0Sy8tZ3tiykxWBwBapybuZH1e2XcCeejNZrNgfGTewjOXBYv9a96T5xz/+UbdPavmX5bdW+G5xa7aeuqUcI81HI+Vnq1kYd/3ma72v7PtDqzr+bHtDtGGUgbKNXetbrpW+uaXav4Wza+p7sHD1rvSB4BTLKtYL24vujbSBeuVzJqseMi1yb0UltSgrnkwBAa+bAiCj9Oi4jxLQTb5m0Otp0MvfZPPpi+itaAMu+N4XTcEL4Qg4Ao6AI+AIOALdhoAzWd1WI54fR8ARcAQcAUfAEegLBJzJ6otq9EJ0AgExe6F6bOq9O+VfL14991hdQL0wg+KODUOOjtejlH+9eLXcxVxSMMWTtfzdzREYbQSQHdx5552DnITVV6OfSw52qAoR1MZwj+oYp84j4ExW5+vAc9CjCIiKBjXwWi/7Kf968Wq5i3qAgBFop5cRuOSSS/IBphYmKf9aceq5rb/++qrZup6/uzsCo40AjL+cLtQDF7wbQ/Io333b294WxB5iQCEvlh6cOo/A8GNInc+T58AR6AsEMJHRKhLbhK1KaiDSQTFsq4iTok6OQDchwCliTsEaiaoFPd04a9asgEZ3n5AZMp2/+kpW5+vAc9ClCDBbFL01AXt1dGqbbbbZsNUT0UcVRKGgavgmHIyVdX5obBZlmHnpUC2w3XbbhSWWWEI1OWOfjHcYob1clGmqH2mJ3hk1m0Oal156acBO4TrrrKNuFqdfrxyJR6M7mt75ocm9yGjyvO2222rdrLfeeuGGG27I4dhhhx2CGJPOn/HD9Af1uOaaaw7basTOHAMT79poo43UHA/1iJvoBFIN/mzPODkCMQLY7sN2obUrRASMaC+iNy1vo1tttdWQNkq4VLvEIgQ2UOkz2AY0CxHPPPOM9gWi1DiILq0gBqTD888/H/gO0DrPu81+Ju+plw5+MT311FOaLlrn+Rawrfrss8+qWpSyvqsMh1Q/ygoc33pMouw0iN4vdaIPpo+l/OSJFTyorEypvlYTGK0/6Ugqk+SpclgP+DICjln3toRU3aBdmTDSyWUzZ87MUDbJsykXxeo8zygPROMxmtx5ls5NC42/KQ5EKSYKMFEwinZxi4t2ZwjFlijPJP5BBx2k7yM8eeB9sgWQoYFetgUysZWmcXr1jzKWkegMypWOooz18MMPV+wovwwkGhUcSQcliOBtmrGtbvAHR0gGHQ0rNtYyGYxypaMoc4SEWVNsSZ96NKWlKHlF8Sv1IEa+M7FLqeEH5S9VT/2OQ6r8aPknDN8wVgjMSgCKPCFro2ussUYmzFeG8lzCi7Fz9U+1S6xCEJ54YoMzt3Dw2GOPZaLrTf1ok2JSJ/vgBz+o7ZT+QVZxta8yawZl6WhGoj+ztsB7UaxK35fqu1I4pPpR8OM7jolv1RQBy0RHy0r/S374JsvKlMpv/J7UPTg0Sw2l0IoXNpvhXovvmHVvjZXVjayk6IdtTBClkBmduqEJHDJGCTMqRnQWMF1QzGSZGRfrYPE3szl0mjAH5EdkKfBSkqV/ZbxgqkgLzc/9QGW4U77LL79csTAmCLcf/vCH6mYMLAMYzA/MKYQmdtJloINiJgsGlTqRGbX68QdDC1MFwUATF2bLCM3aaN+HSKuo+d/C9fM1VU/9XHbKliq/GEPWMDBLEG0RJj1m9OM2iqkl0jRTT6l2yaSNb14UjGr69AMwU1iNiJksPDEnZe2ZZxgSY7LK0iFsTMZkwRgZpfquMhyq9KNVmSxMDRmVlSmVX0ujyjXVBqqk4TJZgqKTI1BE4J577lEnMWeRe2G1Xjq5YH54yOAdVlxxxTwM4Vm+5/RPTCaEip8RWsKhOXPmqBZy7tdaay0uSiz5D+IWFQcGIDFto1f+2OKD7r//fr3yt+WWW+YasRdYYIEgKwZqLDsPIDfSCQa2VKgnthCNwByt2jLw6TasMMdh0UUXNe+AAVwnR6AMAVltUS3/6667bhCmJogtTW2TZjiauMLM52107Nix2qbFdmaldomR6N122001qpMWFgyuueYabodtnatjnb+ydOpE0S1Q80v1XWU4XHvttZpMqh+1d9W78v2iAd+orEz0C1C9vnappZayZEbl6kzWqMDsL+k1BBAehWQmOiTrMFqxqQsGZrQCG9GR1iIGc9KaNGlS7s09J9dIQ2ydqfs888yT+w/qjeEbYzn33HMrfuYHNkWzOtQNcikxvfTSS/oIxkXs8cAfhthxj1Hz+yoILLLIIkFWsYNsK+tpPmSL+MnWXth99901iWIbpZ1hRqdKu0QuccyYMVWyUhpmJOnEZqVSfVcZDhMnTtS8pfpRw8MKIqt2dqtXWaUb8lxWplR+hyQ0Cg8u+D4KIPsreg8B6xxkmyrPPAKcdKgIuhqJEWDtNO1ZrNcrM1C05bXccsspAzBlypQgRoX1x+yODhebZQh0QvFKjchbqMArKy6DREsvvbQW98Ybb8yLLVswit/KK6+cu8UrihwaAPuYkSIgTBmrDHS806ZNy7GnPrBdCCOHP/WI/Tijgw8+WAWAWQlzcgRqISCyUOHYY4/VQxliGF5tmcrWcjj77LPz4LbyhAOHZK666qrw/ve/v1K7FDnDEOvGwy7h5MmTw9SpU/P0q9w0m06q7yrDoUo/CuMJ02SEPcUHH3zQHmtey8qUym/NBNvpWGVP0cJIPuzWrxURcMwqAtWBYKm6QdgZmQrkgG6//fZMTreoTIUJQJtMFoKZshKVyWlB9ZdTMVqaWCbLZK6QqRDmQQU3kfVBhgtZDuQtkKlAgHv27NmZnDrKll9++WzrrbfWtOR0jeZFOvNMGIoOoNW6V6Zwl5UlLSvlB2sEXRH+pS4Q6oXAjnTk9FaGTBxCujzfcsstub8JvlN/+MkJJg1rMiTmLwyW+st2TybbEBkC75Y2iVFHCC/fdNNNmvag/IHBIFOq/MIAaTtBHkqYggyBd9qoyVxZGz3ssMMyURqa7bLLLhre2miqXcoJvzx9hMtFV54+094bkckqS6dYvyaTRT9jlOq7Ujik+lEOAoH1jBkzFCc7QBALvhflUcvKlMqvlavKNdUGKqVRJZCFacULLa1BuTpm3VvTqbpBENpODBIWJohTQkYwUTACDML482MglxmrBomZLBxEDYMKYFtYhK9jQXg6T5gs86eTMaaCAd7cYQR6mShHikRuRbG1MtPJ4mbEACYrgTqoWZgzzzzTvIcIvsPEmjAsYRkIEbaV1a08PIwV7uaP0LDVoxwhz7E3Qfs8Yh/fgMUgU5XyM6HiUAVh+fFNc7oNskmUtSv6j/PPPz+HNNUu8ZdV7zxthNmZVEAiz6nuHBKBYORI34iwJvhelo6Ft+vjjz+u6TKxiSnVd5XhkOpHmVTBiBmGIouZcbjImCz60SKTlSpTKr9x2cruq7SBsvj4vYY/SagStcIidaUX9VEgx6x7K7Nq3bAVJafXhgheFkslM0vd9kM41QihdWGihiz541crrMXh+vTTT4d55513mDwYW4tsabG92MtUFXfKiD4g5OOK269WfrZQ2E5FKDaW10JvEVuzxxxzjAUNbEOA/YQJE3SrMPd45YauEH/ixmnhzXYj+Yjrtxi/354bqad+KzvlqVp+2iB6mRZbbLEh7QMRAJmkheOOO04F1Wl3pFmkVLvEn0MywkQVozb03Ip0yvquejhYJlP9KLKRfIOxPJjFrXdNlaksv/XSjN2rtoE4TvHeBd+LiPizI1BAgIE1NbjGJ1/48GW7L/zkJz8JK6ywQiG1UMqsEbgoLGsJwHjxGyRaaKGFSosL47PkkkvmYWQVIch2jMp4wCzFBOMUh439uKdDZSCsRePGjavl7G6OgDLfJlNZCw5k/8oYpFS7xL8sfq131nJrRTpxP1d8B99iGQ6pfrTeRKr4nvg5Vaay/MbptPPeBd/bia6nPZAIYNIF9QMwCGgqdho9BESeTY/RiyybatoevTf7mxyBoQiwsoVqEafBRsC3C9tc/61YbmxzFgc2+XbWDUvjqdWvQQW+nbiDqWPfmpbV7npqTS7bl8qgl799yPZOyq1oA85ktbm+W1FJbc7iwCbvddOZqnfcO4N7o28d9Hoa9PI32l76MXwr2oBvF/Zjy/AyOQKOgCPgCDgCjkDHEXAmq+NV4BlwBBwBR8ARcAQcgX5EwJmsfqxVL5Mj4Ag4Ao6AI+AIdBwBZ7I6XgWeAUfAEXAEHAFHwBHoRwQaFnzvRxC8TI6AI+AIOAKOgCPgCBQRaEBfezGqPjesjLTZF9bMRR87tuJ0Qh/D09Gied10Bn7HvTO4N/rWQa+nQS9/o+2lH8PTBpol3y5sFkGP7wg4Ao6AI+AIOAKOQA0EnMmqAYo7OQKOgCPgCDgCjoAj0CwCzmQ1i6DHdwQcAUfAEXAEHAFHoAYCzmTVAMWdHAFHwBFwBBwBR8ARaBYBZ7KaRdDjOwKOgCPgCDgCjoAjUAMBZ7JqgOJOjoAj4Ag4Ao6AI+AINIuAM1nNIujxHQFHwBFwBBwBR8ARqIFAw3qyaqSRO/3ud78Lhx12WP782te+NowbNy684x3vCDvvvHN4wxvekPuddtpp4bbbbsuf45u55pornHrqqWG++eYLu+yyS/jQhz4Utt566zhIfl8lnVNOOSXcd999eZzizcorrxwOPPDA8OlPfzo8++yzRW99XmaZZcLhhx9e068Vjpdffnm48MILw/nnn9+K5HoiDdrLxhtvHO644w5tJ5bpv/71r2G//fbT+nj3u99tzvn1pZdeClOmTAm77757WGuttXL3Vt987WtfC/fee2/46le/GhZccMEhyX/pS18KCyywQPjUpz6Vu9cqj30T1sbywH5TCYFm8PvVr34Vjj766HDccceF8ePHJ9/3zW9+M/zxj38M06ZNS4YlwJ///Ofwz3/+MyyxxBKVwhcDNZq/YvxueP7b3/4WrrnmmvCDH/wgLLLIIuFjH/tYWHXVVfOs8S1/73vfC9ddd11YbrnltD9fbLHFcv9///vf4cc//nGYPXu2fmP086usskru3+03++yzT3j++efzbDJ2vf71rw9LLrlk+PjHP66Y5J5+M5AItHQliw/u29/+dvjFL34Rnn766UAH+f3vf18HogkTJoT7778/B/nWW2/VsIQr/v70pz8FBlIUn5JeGYNUJZ2///3v+TvIG2k++OCDudszzzyj+Zo1a5Z2FsX88Eye2kmXXnrpiDvrduarnWn/6Ec/Cq973euGMFi8j46XOmLAq0XWLh566KFa3i1zu/HGG8PZZ5+tDHgxUQYV8h9TrfLQpijLQQcdFKydxXH8vhyBZvCDCQJ7BvoqBLN/5ZVXVgmqfQcTr7hPqxQxCtRo/qKoXXFL/pl8fOITn9D8MEFcbbXVlKnC4b///W9Yf/31dYJNf85kd8011xzSl37uc58Lm2yySXj88cfD9ddfrwzaT37yk64oX5VM0L7i/FJO+obPf/7z4X3ve1/dPqxK2h6mTxCQAasySZFLwwoDkxHmkksuGRLupptuymQVK3vXu96VycxP/XbcccfsLW95y5BwxQdpsJqezCyLXvlzlXTywHIjMypN84Ybboid9Z48SocxzL0ZhxRmpC2dkeLzwx/+sJlX9VxcmbVmZXVbr0D/+c9/tA5l5aFekEruqbr58Ic/rO8hnMzGh6T5gQ98IMM/pmJ5qFfaOG2KNGRlLA4+sPcp3A2YZvETJllxlxUjS7L0KisPmaycloYxT5lAatoyiTSnhq+N5q/hFzQZIVVP06dPVwyee+45fRPfJe3dMDz55JPVXya06v+HP/xBn7/4xS/q889+9jN9/ta3vpXHF8YkW3fddfW503+p8pM/xoxPfvKTw7IqzJeW7Rvf+MYwP3foHQSqtIFUaVq6kiUZqkkyIIXjjz9et15YHXAaisA999yjS87vf//7w1NPPRXWWWed8PWvfz0wU2aWxxbmb37zm7DddtvpatdKK60UpIPTFR9L6dxzzw3vec97dFuE2aJ0XOal4cCfWSbbJptttlm46667cv+vfOUrujWXO8gN26df/vKX1Ym4hx56aNhpp500T8zeIFZuttlmG80TfvHKTiq/0iGHiy66SGe6pMVKz6677sqtrviAwc0336zPzIgpL+XmJx2Xuo/GH1sfyy+/fNhtt91KV0SK5SFvwsiHJ554IshEIHzkIx8JJ510Uvjf//43Gtnui3c0ip8M4tqO+W7YRmZlJCbpDPW7mjx5cv4d8O3Vo3ptmO0h2j108MEH6woN96yYf+YznwkrrLCCfidsZ8cr4Kn8kUYv0Rvf+MaAuIaJgbAqDba//e1vtRj09RtssIFuE+Kw6KKL6nYiq/aQiYtsu+22+kx8xADYWqy6+qgRu/Bvww031Fz9/ve/z3NHe8adPpg+GvEQI9rqFltsES6++GL1ow2zGkbfTztiS5o+Nm6vtC1EXAjLj+1J2hi01157DVuBv/baa3VsYYyByvKjAQp/xGfsIC+UgW/g0UcfLYTyx2EIpLiw2F8ix4/D7uutZBHQZi02m2cF6s1vfrO64xf/pOI07aorWal04oymVrJkMBySF8uXLI3HyVS+T2FGQsLMZCKbpGlKB6UzIOJtv/32mTTkjHczY3rrW9+qqyHMnPBn5g39/Oc/z58vuOCCTJgVfZZla/UXuSF9Jq2ZM2dmb3/72/WZskG1ZvBrr712JvIV6m8rMcQjDWbvwgBpGsw8WVECN/L02GOPJfNLorfccouG/9e//qXvIM/SIev9k08+qX6XXXaZPsvApc/ScWRf+MIX9J53jcZKFitWwpDqO0U+UPPDX3Elq1gewlB/tE1WZCgLeR601UpwKBI4VKFG8GOFfI011tDvhJUS6or38LOVrCOPPFKfaWuydZUJ86zPsu2s2Ym/g7JvjhUb+jHSPuCAAzJhFjJhnjO+Gb5TGRwz8sA93wxtvEr+qmAymmGq1pPlSQZvxYR6g9i52Hvvvc1br6xcgwt0yCGHaJ+mD6/88X3EdRb7jfZ9lfJTFtoN9ctPGO2MlTswIL6Iumi2bdyhjbC6RX+PPyte0He/+119Jj2Z1OZ9OM+Epb2ySvjBD35Qw7/44ouZTAA1DjgefvjhiithZBKQiRyp+lEnRqy8EwdK5cfi2FVkUzU9kY/WPNMPkzfK089UpQ2kyl+tt3slldQLy5gsOhriM+BDMFk81/oxkENVmaxaaeBm6Whir/xZ4xIuPnbWexpNvbRkZWlY+CoOpJciBgdZ5dBgxmQZTjja4PDLX/4yT3Go/60AABu9SURBVMo+Ipga+0ApG8QgcMIJJyizKLMdLZMxZPjL7EjdPvrRj/JYmcmSWZmG588+WAYX6B//+Id2AN/5zneS+SU8nQKMWS2KmSw6DDCU1bY8qAjKqttoMVm8WA506DtFZkfzUWSyiuUR+SsNf8QRR2h4OmDal2GujgP6V+WbaBQ/JhSkC8NjBPa4wWSxpcW9MQCEsToxEYGYyUp9c8XtQutXTj/9dHt9zpyfd955WSp/eaQuuqlST5Zd8GXCRRxZAVRn2rusgFsQvcJAEIY+iv7ZthYtkMjFqT+TuE5TlfLXGzNwZ0JrRH/BhEvkTc0pg2GBKYKsD+cKEY73kw6TNIi2hRt9ohyU0ntj0vA3BpVtWutD5QAZXpmNA/acyo9Giv4Ql2DSbVvDeDHZJ3/9TFXaQKr8LT1dKBmqS3Zqb+GFF87DSKPTpeHc4ZWb+eefv+hU+tyqdHgJp1tkwBz2vvhEzDDPJhxYFkdwUhiGIamw9WckK1V6K4OGOeUClXPmzAkymwjysQaRZQgyc9atqS233FJP6bDEC2266aZ5XPCVGdGQpefcs84NGC+++OK5L0v9bKGZlXJO1HDKCOLdUL38LrXUUipgLB+phiv7e+CBB9SbMhq180ShvaN4nTp1amCbQwbiwKmwIiEwHZdHOksNgvA+pxQhltlFXjGwhcBBEKf6CDSKnx2Oib8btqqsDT788MP6Mr4lGdyHvDjegjGP1Df3zne+04LqVSZAemULXAY7vbetYYTj3/SmN6lbvfypZ4/+yYCuJ8B//etf6xbgxIkTtSScDmerPyZhbHV7ka1B+gwExWOSybg+NjoGxGmM9j19KdtzlI2DGldffbV+8/QVkAzCKvpAH7rDDjvk2aPvRpyAbWYjO1k599xza1+OCAmn9KGFFlpIrzKhDXfeeafe08aN2IKEaG+cepSJcDjnnHM0b/Q7EG2/Sn7QChAT4weiGoilkG/au7XzOJzfD0dg1JgsO4UjW155LuaZZx6VX8gdRnjTqnR4PadlkKkYLWJfnI+v2Glbp0w++AhlxhAmTZqUZ4t7Tu4g58DRaU5N0sEz2CNjxQ/GzTo84sdEJ0ZHZ1Ts7PiQY4KJiwl5gDFjxsRO+X0qv8gEyFZlWG+99fI49W7ouCBOrhpx+nC0ibLSYa2++uph//33H/L6WuUBezCnM7QO0fBGXi5WdTIkMX9QBBrFT7ZPNB7t1to6cnJG5r/ssssO+47ib83Cp9qwhbOrDZQMkmPHjjXnIFtmemLOmLZ6+csj9NjNI488opM8vkkmiyuuuGJeAiZT9BMxccKWOoCYtHH6PKa//OUv+ogKhF6hpZdeWhka8isr1SpbhRwVYx2ypda30lcX+3DimD/3yLnFZG0ZN5vQcm99SdzWYMwIb35MgmG0mGCcddZZymDBqBnjWyU/vAtCZoxJPGMVE15kyxgrbTL0cij/r4XAq6NsLd8WuVGppnsGwTmnVxFgpYkPs4zQL8OsAaFQ08nz05/+VFdW+Cj5ADg2LHIgYc8991ShUZgB1A/wg4gPUwbRIcKQIZANwaTGnSH1hYoLhCnrEYMHeTBi1i7bnvohVskvHVDMcFs6xat12rIdox82/qjt6ARxcEBkEcJRRx2lr6cDg8A/Lg8rIzCRCAXHq1uEZTaIADxH160zxN3pVQRGgp+tAMhJ5nzVljZjZJMNVqSpQ4gZPXq0igMbfqk2TBjIVqvsWyEf6IqCWKVmskP6qfxphB77Q8CdlRZ2J1jFtr7JikGZ0f8HRuiPgq666qpcjxYMB/0OTMDb3vY29afOYBRq1YkG6PI/vukzzjhDV6FoB/SjMCPsMMCIMw4as4TgO2WPGaWqxYOxgzhcYLsU9DkcykAnH7TRRhsplsccc4wedLJ+izw2mp8TTzxRd0tYxWIFEiquCKuj/w1DoC1MFsrlZO9WOWa2RuB22faRvWJtcJYLthCNCTA3u8I12+oJjacYjg/aVkJS6TQyK2IrqPguy5PIcyhDYs/NXunk2YKSvfbSpJiRgN0ee+yhp/zosESwV5ePRXZEdfbQmZs7nR86bFjGpvNC4ScDPjjAfKGvBjLmjg+OZWs+JBgl/PlYy0gEWpWB4NQhp4NQJnj77bfryT9mZmX5pUM2BsXeITJk2mYoT0x0UGzhopyWfNK58M5OEe/mBJBtY5KPYnns9KXhG+cVpgvsGGyKGMThBvl+JPixVQKjS/0wo6f9c0LXiFUT6gM32hHfBIPcEUccoW3Xwtk19c3ZCit1DwPHKWBm+WwrM4iyMk3acuBB9QTCOJTlz97bS1dOtsEk7bvvvqpQ1PLOIM4Eji0r+jYwod2LvGZAt50cztGgnLgFMxT60l+w2yFyTHpvafXilRUiTkAzXjCZ4h6MKCdKllnlglmBCeNU9UgmW5xEJE1Os7JiO++88+rkj3bG6hnE5JltzGOPPVZxtkk2fo3mh0nEFVdcEViRpb1Th0zUIfp729JUB/8bioAM9JVJYpaGtRMIhLOffER6AkEYrSFxywTfiYugnVReno6lZ1cZoDS9KunEL5btOU0T3V1FkgZa9328V5ayi1GSz8SrR5w8wV9mvHkQUcqnbkX9O8KMqeCklR+hyVgQnhOKYB37c0IKQj8NeJkfwpayZaV+/PF+O+1CGE75yYCUny6UDjI/lWKREFyNT/rJwJWZUCVh6uVXVslUWLJYPt4pg5AmL3JMmleEOyGZAeanF8kf+qi4ypaS+o/0jzTKCMwQEC2SrODp+/EvlgeBVdqRtc9iXBPoltln0WtgnstwbwY/BNwRpCZ9fgi5c8UdEqXCKmxt/rQ3vhujWPAdt3pt2MLzDZIW3w5E/2cnvnBHEFwGJguu+SjLXx6wS24oQz2iLzQca10tHifpzJ9+p3iASLYY836L74YDP3xT3UBl5bf8kWf6x1pkfSonj+kv7TAF6RKP9kbfBgnDojhZn40bfaowstwq0R6JK4ytPt999935CVncaXu4xWRjskw+YudkfoYElgdO/NNH8x5+tGOxeqH3HFboV6KszdJrSEASqkTM0BoIXinNfg9UhhnyGeg1saXyKlggZMpSui3ZxnFYlpeTPYEtkVr+L7zwgso2xQLscXy2N6jfWjIqcbj4nq1FhLtt1TH2476YX/LIbJaZESsOjRCra8zaGslfWfpldVMWL/ZrpjxxOoN03wrcy/BidUUGMTXLVSsc8lnI/lQ9fFBsw3GafDMICcdtGflBvov4kE8cJ5W/OGwn71tVT2ABhuw+kGaR6HPY8WBVi9WXbqFWlT8uj2FB22vV6g9ybuxisOrfKDWaH74bcBnJuxrNWzeEb0UbcCarzTXZikpqcxYHNnmvm85UvePeGdwbfeug19Ogl7/R9tKP4VvRBl6WRuxHdLxMjoAj4Ag4Ao6AI+AIdBABZ7I6CL6/2hFwBBwBR8ARaBQBtql33nnn3DwaYhQI2WPWCPM73HPQwKnzCDiT1fk68Bw4Ao6AI+AIOAKVEUAND6dwkYeF0OHHCXPke+WwjupLNN1slRP1gG1BoC0qHNqSU0/UEXAEHAFHwBFwBNRAc3wIDbU9HPZA4zxC8GIqylHqEgR8JatLKsKz4Qg4Ai8jgAZ9dP2g04pTqOigQhceyhzRC4RFBtzRN8RJPSNMfmC2Zvz48QG9WaKmxLz0imJMTDKZP+GNWAVA71NMBx54YBAVD+r0ox/9KKBIWWyG6ik5/CDcUcrIyTm2aXg2SuXXwvm1dxEoa3Ns56HfDz2CtLmtttoqiAqhIYXlGe3p1ibR3RZTvfbFiUK+EbHxqPrY0MXF6Wt0R6LQlXeje8yoXjrmb9d63x6n1rfbbjtt5yhUnj59uiq1tnhlOLDqJjYrA8qcKSff0V133WVRdQWu7NsjLvrv+L747k2PXlmZUvnNXz4aN8INVybJT+WwHvBlBByz7m0JXjedqZsU7mYknXDouhImJhNVGapvD/1Cn//85zOxbqC6htAlhPF52RpRnT3oHhJFidmuu+6qzxhmhtDTR3rorkKfmyg71mdRvKv+RR1ZOK699tq5rjiMPBOf90tnrzqCMGJsaaKzDYPnPGO0PZVffWmX/1GWQaZU+VNtDj1spCEKnjNh+HMD2qbfUJgh9aedoU/M9GoJE6Gwl7UvUYmhcUXZbSYWJzJRPK1tU7YNMzF1pDq2DjjggGQ6xfqt9e2hu4t2T3nEDqvqBaNcfDNQCgd0nxGe7xij2XyzPIuScY2f+vYw4E544pEGOhbLsEnlV19a8Y/3NksNpdCKFzab4V6L75h1b4153XSmblK4W0dP52xkA5JoEDenTGbD2vnCABkTRTgI5Y9iRSDvyJdffvkMZZgxwXAxeKD0ONXRG5MVK1VG4SwKIGGoINF7p4OdCBxnqfzG+ejW+1Q9dWu+W5WvVPlTbQ6mhPZFW4RQPEqaooVdn1F0jAJpFPAaoeDW2mlZ+4qZLOIy8bB4PMOQGJNVlg5hY6r17ZkSVWMOCS8ruloWJhRlOKA4lTIbQ0ZcWZVWNxReQ6lvz5gs0aWm4fkrK1Mqv3kiFW5SbaBCEpnLZAmKTo6AI9B9CLD1ZyQdvN5iygM7nBCKYCHMsWC0G4W4mOOSASZgsmXLLbdUm4Fs22EGqWjYmzCYgkIRZlViy8PotttuC5jfQZcOhAJgzOxAtlVTL78ayP96GgFZgarb5qxgwjTlZnOwUSha04NoZWdxQ7f6UMC6ww47WHA1t4OJM9psWftCiXVVKkunXhrxt2cC9JiJMjKBe8wDleGAbV7I7CtyP//886vJN2yUViVwipVol5WJ7x6ql18Ml48mOZM1mmj7uxwBR6AyArFmfwYdCKPDsUFdDJXLalJYZJFFwi9+8Qu1p3bllVeqnAdyVrKNpzbkiEvnHhOa2iHTvI0NtpiwyFCkWNM18mBjxowpBtHnVH5rRnLHnkKgrM0hLwgVtf6j0V62t9XeH/7YOcRQtpHd0xbL2peFr3IdSTrFb09W5IblE1uI5L8Mh4li5xAifkx8i7HNxtS3xwQqprIy8e2V5TdOZzTunckaDZT9HY6AI9AUAgi8QjBZGNaF0BUEI4WZKZFLCSJ/FURWK+y5557qhzF0jL0z4DETFnuoITZALrId2hkzQ2bwo+M2wtzIgw8+qIK25la8wuCJHcvcmZU1DKyzmrbyyiure7385pH8pmcRSLU5CmYrm9xjVBzD8BjLhsFgxRWGYNq0aflqKILvDz/8sE4kytoXxqarUlk6Yn8wmcxyyy2nq8dTpkxRwXci0O7FlmLy2+P7g1h9NgPVCMKzwosRcajV314qv/rS0fyrsqdoYSRfduvXigg4ZhWB6kAwr5sOgC6vTOFuciEYiTeSwUjlV5BzQbBdVq1yQXOMqpvRbmRThDnKEHhHHsbkX4QZ0/fK6UQ1omtyGya3gkAv+ZoxY4bKepngvDB0mgWTyYqNxGPsmDi8E+Hfo446Sp/JWyq/Vq5uvqbqqZvz3oq8pcqfanMm+H7YYYdpm9pll120fWAwGpItZX3GCDRtxmSbDjroIPUva1+NyGSVpaMviv5qfXsIqIMFwvU33nijCp1TNoxEI2+WwgGBfr5Fyivb83pwhPQQ2odS3x4yWcg+xlRWplR+43RS96k2kIqPf0NcUyteWCVT/RTGMeve2vS66UzdpHCHaSIMp4hiuvfee7WzxY8fgutXXHFFHkTULSgjZv4IEXPSCOIEomjB1nj40+nDYMmKlfrLqlh+ugt/kZ3JEMw1Juv888/XuGL8WcPzxwDzhS98IU8TYWNOLhql8mvhuvUKDoNMVcpf1uaMEaGtkRaC6bQjI9qPMfv4Ew4hcBh0qKx9iUyUpilqSTQsjFw9wfeydDRy9Ffv25NVq2HfViwIX4aDyI+poDplNBw4bWmU+vZk5W8Yk5UqUyq/9u7Ulfw2S24gWlBsJ7XCwGQ78zfIaXvddKb2m8VdGJ3Adl5R3oXSsGWHjpzFFltMBdGLJSSerAKECRMm5LJYcRi2IKVTDbFMSuxf6540EQQuyo1Y2LL8WphuvDZbT91YpkbyVLX89docW9xyCi4cd9xxAUF12hxpFinVJlPtq5hevedWpMO3w/Y8hzyKVA8HC/fCCy8EvoVYgN38uLbj2yvLb/zuevdV20C9+Lg7k1WGTgv8WlFJLciGJ1EDAa+bGqCMgpPjPgogt+AVg15PzZbfmCwU2Dr1JgLNtgFK7Rrfe7PuPdeOgCPgCDgCXYwAq6kLLLBAF+fQszYaCPhKVptRbgUn3OYsDmzyXjedqXrHvTO4N/rWQa+nQS9/o+2lH8O3og34SlY/tgwvkyPQ5whgw7Bo5y0ucso/Dpu658j5fffdlwrm/gOGgJw0VRuBcsChJSVH3YGcVM3TkkMbQQTR8+dGblAdgf1C7BlCJ510kj7jxg+1Jp/97GdVGW8j6XrYxhFwJqtxzDyGI+AIdBiBSy65ZIiR2WJ2Uv7F8GXP6PeJjUmXhXW/wUEAQW6MFYvag5YUGmYN3W3Q008/rTrasGYwEvr1r3+teUPxKSSqF/SZdPmhbf20004LkydPDqLmZCSv8DgVEXBlpBWB8mCOgCPQOwiIkdyWZbYRszste6knNHAIxALyL774Yr4K1SogUH5qTBxpwoBhFkp0ToX11lsvbLXVVq16lacTIeArWREYfusIOALdgQDa10VJo87mOaUl+oP0GHycO47Fb7vttmH8+PE6SNxwww25N/bgxJh0/ozfhhtuqGHXXHPNYVuNaNkWpYf6vo022kjN8aDKAbdHH300iF4f3WbJE/QbR+AVBLCjt84662jboj3aypYYCld3VBMYoeEdhgbrA0U68cQTA1rV2eLbZptt1Pvggw8Op5xyiqosmTp1akCbOe19k002CbfeemsxiYae55133nDOOeeo1YNjjz22obgeuDoCzmRVx8pDOgKOwCgggPkR0RKtRpZFIWjYaaed1AwHRmsZpIxEC7vqxBKFoLoFwkBnRmcx/PzQQw9pUMyf4CcKDMP06dPVhiGmeRgEIXRc4X/11VeHffbZR033wFyx5YgRaVESGTAMbYZnNZL/OQKvIHD00Uer2SbR1B5g5mmnbCXSZngWhaE5VqI8N1x33XVhpZVWyt3sBkb/zjvvDPPNN59OHnAXLeuazje+8Y0gCj+VCWPF67nnnlMTTjEDZ+k0csVuJ9vhd911V25wvZH4HrYCAo1oM5XkGgnuYZkKO2Zd2w68bjpTNSnc0WJNGJF3yTMots/UDdMcENq00ZCN5mcITezEwRwOhL+ZJ/nABz6g2qpFgF39+EMbvGnInjlzpsZFM7XRvvvum2GCByItERI2r4G5puqp34FIld+0o2+99dY5FJhzIt6sWbPUDasEa6+9du6PJQHM09QisUeYLb/88ur1u9/9TtMxqwf4if3NTLau1f+xxx5TE1CY16lF1qbN4gHWC7BIUIvMHFS9tGrFGRS3VBuogoPLZAmKTo6AI9A9CDCbh2RAyjPFFh8UCwKzsoShXQh9RBhnLp70kk4w3HzzzbrSwBai0Zw5c8ITTzyhK2Ni6yyIHbaw6KKLmndg68bJEaiCAFt3RrRBSEzO6JVTfPzYQmTVCEPJYlpH/Rr5Y+VVJhiqNZ53oEmeLUV0cTVLthqGJnen1iPgTFbrMfUUHQFHoAkEjHEaO3Zsnsrcc8+t23bmh0fRrM78888/TFj4pZde0jRgoCZNmpSnZ/f4M8jMM888uZ/fOAKNILDQQgvlwWmnEMw9xHY3TJYYfw5zzfWydM7mm2+ufo38wVix/X3RRRfp9iMqSvgxQVhllVUaSWpY2LvvvlsnIWxTOrUeAZfJaj2mnqIj4Ag0gcDSSy+tsTl2bsRggkDwyiuvbE65/BUOyMAgU2XMkwWCKeNUFbJc06ZNC8hv8UOAmJUFGDn8WQHjRJcRAsfIadlgae5+dQSKCMQ61O644w71XnbZZfXK6pDJFKLXTYwd17T7V0zTnrEHCJ155pm6CnbooYeq3Jat2CLj1QyhT4uVXlfj0AyK5XF9JascH/d1BByBUUZgiy22CCITpTN1hNU5BSVyI7qSBeNjhAAxun6Y5X/lK19R57333tu88ytpiUxL2G+//XRVga1Ctl8QVIYJYxDEiC/biawOsI14wgknhFNPPVUN+rJSccstt+hgJPJdebp+4wiAwDHHHKPC7rQl2g8HJWJ1CCInqCcKCTtjxgwuSVpwwQU1DEzQxIkTdRJBO8Z99dVXDzfddJP6v/Od70ymZQEwzozCU4jVW7Y0Yd5E5lBP8qqH/7UegSqCWxZG3m63fq2IgGNWEagOBPO66QDo8soquMsWhgoBE5bfqquumuFmhDD6pptuqsLvFkYGDPMeIviOcPyRRx6p6RAWgXlRCZHJ6lYeXrZh8rTwP+CAAzI55aj+xx9/fB7XBO3ziH18A1aDTKnym+D79ttvn7cPDlOISochsP33v/9VoXXarKxMDfGLHzhs8a53vSt34nAGeZCTtpmssmY77rhj/h7cOYxRrz1yQIQwzzzzjKaHcD7P8Q9BeN7pAu855MNuwKtZctuFgmI7qRW2j9qZv0FO2+umM7XfCO4ySKgsi83sizlmO4WVp8UXXzwXgicMuoTQOcQqg5EMdkEGFBUeZquwSNKZqj9xY9kvwrHdiEzN61//+mK0vn1upJ76EYRGyo/aEdrqhAkThkGBn5wM1G1qtqEbIVacxo0bF0zWiy1t9MMtueSSw9poI+l62GoINNIG6qXo24X1kHF3R8AR6DgCsVBxrczA+DDgGGHvja09lJnCLMUE4xSHjf24p0OtNUjix0Dn5AjUQ2DMmDHD2g5M/QUXXBCuvfZalSdk27BRKk4uEE5ne8+pdxBwJqt36spz6gg4AgkEZs+erXJXsj2SK3RMRHFvR6AtCLBairwfMlqcLiyehm3LSz3RrkPAtwvbXCWtWG5scxYHNnmvm85Ufbtx56ThIG3rtasW211P7cp3q9JtRflFAa5uMxe3n1uVR0+nvQi0og04k9XeOtItCGQ9nLoPgVZ8QN1Xqu7PkePe/XVEDge9nga9/L3RStuby1a0AdeT1d468tQdAUfAEXAEHAFHYEARcCZrQCvei+0IOAKOgCPgCDgC7UXAmaz24uupOwKOgCPgCDgCjsCAIuBM1oBWvBfbEXAEHAFHwBFwBNqLQMOC7+3NjqfuCDgCjoAj4Ag4Ao5AdyDQ7MG1hvRkNfuy7oDMc+EIOAKOgCPgCDgCjkD7EfDtwvZj7G9wBBwBR8ARcAQcgQFEwJmsAax0L7Ij4Ag4Ao6AI+AItB8BZ7Laj7G/wRFwBBwBR8ARcAQGEAFnsgaw0r3IjoAj4Ag4Ao6AI9B+BJzJaj/G/gZHwBFwBBwBR8ARGEAEnMkawEr3IjsCjoAj4Ag4Ao5A+xFwJqv9GPsbHAFHwBFwBBwBR2AAEXAmawAr3YvsCDgCjoAj4Ag4Au1H4P8BiHMKpMT7HYUAAAAASUVORK5CYII=;" vertex="1" parent="1">
          <mxGeometry x="-790" y="495" width="451.94" height="285" as="geometry" />
        </mxCell>
      </root>
    </mxGraphModel>
  </diagram>
</mxfile>
